<svg xmlns="http://www.w3.org/2000/svg" viewBox="0 0 94.63 94.63"><defs><style>.cls-1{fill:#fe5c37;}.cls-2{fill:#fff;}</style></defs><title>ineback</title><g id="Layer_2" data-name="Layer 2"><g id="Layer_1-2" data-name="Layer 1"><g id="Layer_12" data-name="Layer 12"><circle class="cls-1" cx="47.32" cy="47.32" r="47.32"/><path class="cls-2" d="M43.37,57.07c0-.22,0-.51,0-.88s0-.64,0-.82A14.23,14.23,0,0,1,43.88,51a9.84,9.84,0,0,1,1.81-3.26,18.22,18.22,0,0,1,2.85-2.59A19,19,0,0,0,51,43a8.79,8.79,0,0,0,1.64-2.41,6,6,0,0,0,.45-2.35,5.48,5.48,0,0,0-6-6,5.56,5.56,0,0,0-4.45,1.89,8.52,8.52,0,0,0-1.77,5.32h-8.4v-.93a13.09,13.09,0,0,1,4-10q4-3.74,10.71-3.74,6.89,0,11,3.53a11.91,11.91,0,0,1,4.06,9.46,13.83,13.83,0,0,1-.46,3.74,10.07,10.07,0,0,1-1.41,3,19.26,19.26,0,0,1-3.77,3.74c-1.7,1.34-2.73,2.17-3.08,2.49a6.7,6.7,0,0,0-1.63,2.32A8,8,0,0,0,51.32,56c0,.1,0,.27,0,.5s0,.42,0,.54ZM43,69.82V61.09h8.79v8.73Z"/></g></g></g></svg>