<svg xmlns="http://www.w3.org/2000/svg" xmlns:xlink="http://www.w3.org/1999/xlink" viewBox="0 0 127.96 71.27"><defs><style>.cls-1,.cls-16{fill:#fec502;}.cls-2{fill:none;}.cls-3{isolation:isolate;}.cls-4{clip-path:url(#clip-path);}.cls-5{opacity:0.66;}.cls-6{fill:#fee25d;}.cls-7{fill:#f2b701;}.cls-8{fill:#e5a900;}.cls-9{opacity:0.6;}.cls-11,.cls-9{mix-blend-mode:soft-light;}.cls-10{fill:#fff;}.cls-11{opacity:0.42;}.cls-12{clip-path:url(#clip-path-2);}.cls-13,.cls-14{fill:#743b2a;}.cls-14{opacity:0.43;}.cls-14,.cls-15{mix-blend-mode:screen;}.cls-15{opacity:0.53;}.cls-16{opacity:0.48;mix-blend-mode:multiply;}</style><clipPath id="clip-path"><path class="cls-1" d="M9.63,30.68A4.63,4.63,0,0,1,14,26.42c1.79,0,3.4,1,4.91,1.95A109,109,0,0,0,49.78,41.66a57.29,57.29,0,0,0,12,2c14.71.57,28.33-7.1,41-14.52,2.26-1.32,4.76-3,5-5.61.08-.83-.07-1.67.08-2.49a6.72,6.72,0,0,1,1.86-3.11l4.07-4.62a2.73,2.73,0,0,1,1.24-.95,2.36,2.36,0,0,1,1.12,0A9.33,9.33,0,0,1,121.73,16c-.82,3.14-1.69,6.57-4.38,8.4-.68.47-1.45.8-2.14,1.26-2.72,1.79-4,5.16-4.45,8.39s-.42,6.54-1.34,9.67A21.7,21.7,0,0,1,105.36,51C97.53,60.78,84.91,65.55,72.5,67.19c-18,2.37-35.68-1.28-50.06-12.35-3.27-2.51-7.09-6.31-8.86-10C11.42,40.26,9.41,35.71,9.63,30.68Z"/></clipPath><clipPath id="clip-path-2"><path class="cls-2" d="M9.63,30.68A4.63,4.63,0,0,1,14,26.42c1.79,0,3.4,1,4.91,1.95A109,109,0,0,0,49.78,41.66a57.29,57.29,0,0,0,12,2c14.71.57,28.33-7.1,41-14.52,2.26-1.32,4.76-3,5-5.61.08-.83-.07-1.67.08-2.49a6.72,6.72,0,0,1,1.86-3.11l4.07-4.62a2.73,2.73,0,0,1,1.24-.95,2.36,2.36,0,0,1,1.12,0A9.33,9.33,0,0,1,121.73,16c-.82,3.14-1.69,6.57-4.38,8.4-.68.47-1.45.8-2.14,1.26-2.72,1.79-4,5.16-4.45,8.39s-.42,6.54-1.34,9.67A21.7,21.7,0,0,1,105.36,51C97.53,60.78,84.91,65.55,72.5,67.19c-18,2.37-35.68-1.28-50.06-12.35-3.27-2.51-7.09-6.31-8.86-10C11.42,40.26,9.41,35.71,9.63,30.68Z"/></clipPath></defs><title>inebanana</title><g class="cls-3"><g id="Layer_2" data-name="Layer 2"><g id="Layer_1-2" data-name="Layer 1"><g id="Layer_24" data-name="Layer 24"><path class="cls-1" d="M9.63,30.68A4.63,4.63,0,0,1,14,26.42c1.79,0,3.4,1,4.91,1.95A109,109,0,0,0,49.78,41.66a57.29,57.29,0,0,0,12,2c14.71.57,28.33-7.1,41-14.52,2.26-1.32,4.76-3,5-5.61.08-.83-.07-1.67.08-2.49a6.72,6.72,0,0,1,1.86-3.11l4.07-4.62a2.73,2.73,0,0,1,1.24-.95,2.36,2.36,0,0,1,1.12,0A9.33,9.33,0,0,1,121.73,16c-.82,3.14-1.69,6.57-4.38,8.4-.68.47-1.45.8-2.14,1.26-2.72,1.79-4,5.16-4.45,8.39s-.42,6.54-1.34,9.67A21.7,21.7,0,0,1,105.36,51C97.53,60.78,84.91,65.55,72.5,67.19c-18,2.37-35.68-1.28-50.06-12.35-3.27-2.51-7.09-6.31-8.86-10C11.42,40.26,9.41,35.71,9.63,30.68Z"/><g class="cls-4"><g class="cls-5"><path class="cls-6" d="M10.61,23.8c-1.2,3.8,3,7.56,5.84,9.56a64.32,64.32,0,0,0,11,5.91A91.43,91.43,0,0,0,55.8,47,58.78,58.78,0,0,0,83,43.62a98.68,98.68,0,0,0,12.66-6.38c3.9-2.23,7.68-4.72,10.37-8.39a34,34,0,0,0,3.6-6.05c.71-1.57,1.14-2.81,2.08-3.54a25.43,25.43,0,0,0,8.45-12.59c1.23-5-4.83-4.55-7.57-.29a10.49,10.49,0,0,1-2,2.32c-1.2,1-2.57,1.74-3.81,2.67a18.68,18.68,0,0,0-4.26,4.11A27.86,27.86,0,0,0,99.79,21a14.77,14.77,0,0,1-6.2,6.67,108.81,108.81,0,0,1-10.67,5.92c-15.21,7.39-32.24,4.4-47.58-.83-4.26-1.46-8.54-3-12.69-4.72a42.17,42.17,0,0,1-5.22-2.58c-1.65-1-2.89-2.35-4.76-2.79a1.72,1.72,0,0,0-2.06,1.18Z"/></g><path class="cls-7" d="M4.63,27c-.58,2.59.27,5.28,1.12,7.76a39.63,39.63,0,0,0,3.44,7.56A62.11,62.11,0,0,0,19.71,55.77c8.6,8,22.14,9.81,33.43,10.29a93.38,93.38,0,0,0,35.11-5.28C98,57.3,109.44,52,114,42.08a23,23,0,0,0,1.57-4.29,19.85,19.85,0,0,1,.83-3.94c.42-.88,1.66-1.56,2.52-2.28A21.39,21.39,0,0,0,122.13,28a30.37,30.37,0,0,0,4-8c1.24-3.47,1.95-6.48.38-10-1-2.16-3.71-1.84-5.2-.67-2.33,1.81-2.91,4.32-3.78,7a22.84,22.84,0,0,1-2.78,6,24.74,24.74,0,0,1-4.19,4.05,12.49,12.49,0,0,0-3.67,7.39,16.39,16.39,0,0,1-6.27,10.27,44.13,44.13,0,0,1-11,6.25,84.19,84.19,0,0,1-31,6.53A65.57,65.57,0,0,1,44.45,56,56.5,56.5,0,0,1,29,50.88,44.66,44.66,0,0,1,16.6,40.37a82.61,82.61,0,0,1-5.05-6.62c-1.63-2.37-2.84-5.27-4.93-7.24a1.2,1.2,0,0,0-2,.53Z"/><path class="cls-8" d="M0,42.38c.31,1.88,1.37,3.32,2.26,5A29.79,29.79,0,0,0,7,53.17,59,59,0,0,0,17.45,62c8.37,5.52,18.35,7.37,28.15,8.51,18.55,2.16,38.37.07,54.46-10.08a59.84,59.84,0,0,0,11.15-9,34,34,0,0,0,4.52-5.5,13.63,13.63,0,0,0,1.59-3.68c.3-1.17.17-2.32.36-3.48.38-2.37-1.37-9.81-3.28-8.19-1.33,1.14-1.54,5.76-2.86,7s-2.08,4.42-6,8.06A81.73,81.73,0,0,1,96.85,53C90.39,57.42,83.43,59.3,75.79,61,67,63,59.13,63,50.17,62.19,41.64,61.46,32,59.33,24.26,55.6a72.43,72.43,0,0,1-11.75-7.46c-1.93-1.44-3.79-3-5.86-4.27-1.72-1-3.49-2.27-5.51-2.62A.93.93,0,0,0,0,42.38Z"/></g><g class="cls-9"><path class="cls-10" d="M17.15,34.61a13.62,13.62,0,0,0,1.64,2.83A27.7,27.7,0,0,0,21.27,40a42.66,42.66,0,0,0,5.82,4.56,58.78,58.78,0,0,0,13.53,6.27A48.5,48.5,0,0,0,56.37,53.4a34.78,34.78,0,0,0,8.19-1.14,18.91,18.91,0,0,0,4-1.41,19.35,19.35,0,0,0,3.12-2.45,1.42,1.42,0,0,0-.63-2.35,19.84,19.84,0,0,0-7.13-1.26c-2.52,0-5,.19-7.56.22a47.32,47.32,0,0,1-13.86-2.23,91.85,91.85,0,0,1-12.14-4.45c-2-.93-4.11-1.72-6.12-2.68-1-.48-2-.88-3-1.33a24.47,24.47,0,0,0-3.19-.9.82.82,0,0,0-.91,1.19Z"/></g><g class="cls-11"><path class="cls-10" d="M77.72,47.84C80.58,50,85,48.19,87.91,47c3.31-1.32,8-3,9.72-6.34a2.88,2.88,0,0,0-2.46-4.28c-3.26.09-6.16,2.39-8.94,3.88-1.36.73-2.72,1.47-4,2.25s-2.64,2-4.08,2.41a1.61,1.61,0,0,0-.38,2.9Z"/></g><g class="cls-12"><path class="cls-13" d="M128,12.87c-.17-3.16-2-6.39-5.14-7.45-3.48-1.18-6.63.74-8.47,3.65a9,9,0,0,0-.81,1.57,7.9,7.9,0,0,0-1,2,6.66,6.66,0,0,0,1.83,7.12c2.49,2.2,6.86,2,9.62.41A8,8,0,0,0,128,12.87Z"/><path class="cls-14" d="M125.87,7.8c-.17-3.16-2-6.39-5.14-7.45-3.48-1.18-6.63.74-8.48,3.65a9.26,9.26,0,0,0-.8,1.57,8.09,8.09,0,0,0-1,2,6.68,6.68,0,0,0,1.84,7.12c2.49,2.2,6.86,2,9.62.41A8,8,0,0,0,125.87,7.8Z"/><path class="cls-13" d="M9.63,31.35c-.56.57-.55.62,0,.14l.54-.42c.43-.36.85-.64,1.3-1,1.07-.75,2.08-1.63,3.11-2.44,1.41-1.08,2.78-2.42,2.67-4.33a3.29,3.29,0,0,0-4.16-2.91c-2.83.65-5.76,3.65-6.67,6.36-.66,1.95-.84,5.34,2,5.5a1.31,1.31,0,0,0,1.23-.94Z"/><g class="cls-15"><path class="cls-13" d="M14.44,27.71c-.56.57-.55.61,0,.14l.54-.42c.43-.36.85-.64,1.3-1,1.07-.75,2.08-1.63,3.11-2.44,1.41-1.08,2.79-2.42,2.67-4.33a3.29,3.29,0,0,0-4.16-2.91c-2.83.65-5.76,3.65-6.67,6.36-.66,2-.84,5.34,2,5.5a1.31,1.31,0,0,0,1.23-.94Z"/></g><path class="cls-16" d="M120.6,19.85a3.92,3.92,0,0,0-4.75-1.73,16.19,16.19,0,0,0-1.31-1.31,5,5,0,0,0-4.71-1.13c-.23-.14-.46-.28-.69-.4a4.69,4.69,0,0,0-6.37,6.34,3.74,3.74,0,0,0-1.13,5.23c-.3,2.13,1.15,4.61,2.41,6.14,2.2,2.68,5.87,3.93,9.26,4,3.72,0,4.9-4.11,3-6.6A4.76,4.76,0,0,0,119,27.47,5.83,5.83,0,0,0,120.6,19.85Z"/></g></g></g></g></g></svg>