<svg xmlns="http://www.w3.org/2000/svg" xmlns:xlink="http://www.w3.org/1999/xlink" viewBox="0 0 117.47 76.93"><defs><style>.cls-1{mask:url(#mask);filter:url(#luminosity-noclip-2);}.cls-13,.cls-16,.cls-2{mix-blend-mode:multiply;}.cls-2{fill:url(#linear-gradient);}.cls-3{fill:url(#linear-gradient-2);}.cls-4{fill:none;}.cls-5{isolation:isolate;}.cls-6{fill:#9f5b1c;}.cls-7{fill:#8c4b15;}.cls-8{fill:url(#radial-gradient);}.cls-9{opacity:0;}.cls-10{clip-path:url(#clip-path);}.cls-11,.cls-17,.cls-18,.cls-26{opacity:0.12;}.cls-11,.cls-25,.cls-26{mix-blend-mode:screen;}.cls-12,.cls-17{fill:#fff;}.cls-13{fill:#bac325;opacity:0.15;}.cls-14{fill:#747474;}.cls-15{clip-path:url(#clip-path-2);}.cls-16{fill:#9aa11f;opacity:0.17;}.cls-17,.cls-18{mix-blend-mode:lighten;}.cls-19{fill:#f0d505;}.cls-20{clip-path:url(#clip-path-3);}.cls-21{mask:url(#mask-2);}.cls-22{fill:url(#linear-gradient-4);}.cls-23{fill:#f2d826;}.cls-24,.cls-25,.cls-26{fill:#f2d73e;}.cls-25{opacity:0.18;}.cls-27{filter:url(#luminosity-noclip);}</style><filter id="luminosity-noclip" x="20.35" y="-8320.4" width="87.49" height="32766" filterUnits="userSpaceOnUse" color-interpolation-filters="sRGB"><feFlood flood-color="#fff" result="bg"/><feBlend in="SourceGraphic" in2="bg"/></filter><mask id="mask" x="20.35" y="-8320.4" width="87.49" height="32766" maskUnits="userSpaceOnUse"><g class="cls-27"/></mask><linearGradient id="linear-gradient" x1="80.93" y1="58.99" x2="17.65" y2="55.7" gradientUnits="userSpaceOnUse"><stop offset="0" stop-color="#fff"/><stop offset="1"/></linearGradient><linearGradient id="linear-gradient-2" x1="7.66" y1="21.3" x2="51.2" y2="40.74" gradientUnits="userSpaceOnUse"><stop offset="0" stop-color="#fa0009"/><stop offset="1" stop-color="#eb0000"/></linearGradient><radialGradient id="radial-gradient" cx="52.75" cy="26.3" r="41.25" gradientUnits="userSpaceOnUse"><stop offset="0" stop-color="#fac909"/><stop offset="1" stop-color="#f45500"/></radialGradient><clipPath id="clip-path"><path class="cls-3" d="M79.77,21.34C76.21,20,72.4,19.24,69,17.52c-2.35-1.18-4.46-2.81-6.71-4.19A38.8,38.8,0,0,0,31.58,9.1c-3.93,1.13-7.78,3-10.46,6.07C18.59,18.1,17.3,21.91,15,25c-1.78,2.38-4.15,4.29-5.78,6.77C5,38.22,6.75,47.34,11.81,53.16S24.47,62,32,63.52C43.77,65.88,56.38,65,67,59.6A39.7,39.7,0,0,0,85.27,40.79a22.75,22.75,0,0,0,1.94-10.43C86.8,26.06,83.34,22.7,79.77,21.34Z"/></clipPath><clipPath id="clip-path-2"><path class="cls-4" d="M79.77,21.34C76.21,20,72.4,19.24,69,17.52c-2.35-1.18-4.46-2.81-6.71-4.19A38.8,38.8,0,0,0,31.58,9.1c-3.93,1.13-7.78,3-10.46,6.07C18.59,18.1,17.3,21.91,15,25c-1.78,2.38-4.15,4.29-5.78,6.77C5,38.22,6.75,47.34,11.81,53.16S24.47,62,32,63.52C43.77,65.88,56.38,65,67,59.6A39.7,39.7,0,0,0,85.27,40.79a22.75,22.75,0,0,0,1.94-10.43C86.8,26.06,83.34,22.7,79.77,21.34Z"/></clipPath><clipPath id="clip-path-3"><path class="cls-4" d="M25.76,51.27c2.43-1.48,72.7-2.2,72.7-2.2s-12.89,20.48-42.38,20C27.44,68.65,23.73,52.51,25.76,51.27Z"/></clipPath><filter id="luminosity-noclip-2" x="20.35" y="44.53" width="87.49" height="28.65" filterUnits="userSpaceOnUse" color-interpolation-filters="sRGB"><feFlood flood-color="#fff" result="bg"/><feBlend in="SourceGraphic" in2="bg"/></filter><mask id="mask-2" x="20.35" y="44.53" width="87.49" height="28.65" maskUnits="userSpaceOnUse"><g class="cls-1"><path class="cls-2" d="M22.19,50.23c-4.5,4.18.26,10.13,3.6,13.3A34.06,34.06,0,0,0,42.93,72.3c16,2.72,35.72-.91,48.31-9.42A66.69,66.69,0,0,0,107.4,47.49c1.85-2.43-2.51-3.75-5.49-2.44-4.08,1.8-5.38,4.86-7.82,7.41a46.23,46.23,0,0,1-7.85,6.93,50.45,50.45,0,0,1-24.19,8.75,73.2,73.2,0,0,1-14.77-.39A38.73,38.73,0,0,1,34.36,63a21.91,21.91,0,0,1-6.19-5.9c-1.56-2.22-1.44-4.35-2.71-7.43-.32-.78-2.44-.19-3.27.59Z"/></g></mask><linearGradient id="linear-gradient-4" x1="80.93" y1="58.99" x2="17.65" y2="55.7" xlink:href="#linear-gradient-2"/></defs><title>inemango</title><g class="cls-5"><g id="Layer_2" data-name="Layer 2"><g id="Layer_1-2" data-name="Layer 1"><g id="Layer_5" data-name="Layer 5"><path class="cls-6" d="M19.22,23.36A13.4,13.4,0,0,1,15.75,20c-1-1.36-1.45-3.05-2.51-4.32-1.28-1.53-4.05-.3-4,1.63.11,2.2,1.78,4.26,3.32,5.73A13.85,13.85,0,0,0,18,26.14c1.7.54,2.58-1.87,1.18-2.78Z"/><path class="cls-7" d="M16.52,23.17a10.84,10.84,0,0,1-2.45-3c-.7-1.21-1-2.71-1.78-3.84-.9-1.36-2.86-.26-2.79,1.45a9.12,9.12,0,0,0,2.35,5.1,9.58,9.58,0,0,0,3.84,2.74c1.2.48,1.82-1.67.83-2.48Z"/><path class="cls-8" d="M79.77,21.34C76.21,20,72.4,19.24,69,17.52c-2.35-1.18-4.46-2.81-6.71-4.19A38.8,38.8,0,0,0,31.58,9.1c-3.93,1.13-7.78,3-10.46,6.07C18.59,18.1,17.3,21.91,15,25c-1.78,2.38-4.15,4.29-5.78,6.77C5,38.22,6.75,47.34,11.81,53.16S24.47,62,32,63.52C43.77,65.88,56.38,65,67,59.6A39.7,39.7,0,0,0,85.27,40.79a22.75,22.75,0,0,0,1.94-10.43C86.8,26.06,83.34,22.7,79.77,21.34Z"/><g class="cls-9"><path class="cls-3" d="M79.77,21.34C76.21,20,72.4,19.24,69,17.52c-2.35-1.18-4.46-2.81-6.71-4.19A38.8,38.8,0,0,0,31.58,9.1c-3.93,1.13-7.78,3-10.46,6.07C18.59,18.1,17.3,21.91,15,25c-1.78,2.38-4.15,4.29-5.78,6.77C5,38.22,6.75,47.34,11.81,53.16S24.47,62,32,63.52C43.77,65.88,56.38,65,67,59.6A39.7,39.7,0,0,0,85.27,40.79a22.75,22.75,0,0,0,1.94-10.43C86.8,26.06,83.34,22.7,79.77,21.34Z"/><g class="cls-10"><g class="cls-11"><path class="cls-12" d="M8.33,24.83a10.67,10.67,0,0,0,9.32.49A55.07,55.07,0,0,0,26,21.12c1.13-.68,2.67-1.85,4-2.08-.15,0-1.31.55-.26.11l1.52-.64c-.77.32-.93.39-.49.21.78-.27,1.54-.58,2.33-.82a35.47,35.47,0,0,1,3.94-1c.73-.14,1.49-.22,2.22-.39-1.69.4-1,.12-.53.08s1-.1,1.55-.13a29.87,29.87,0,0,1,4.23.05c.66.05,1.32.15,2,.2,1,.1-1.94-.33-.42,0l1.3.25c.71.16,1.43.35,2.13.57l.83.28c.22.07,1.49.69.36.11s.16.08.34.17l.79.4c.78.41,1.53.87,2.27,1.35,3.16,2.07,6,4.2,9.59,5.59s7.65,1.72,11.53,2c.87.07,1.73.12,2.6.2l1.29.13-.67-.09.9.15a19.54,19.54,0,0,1,2,.49l1,.32c1.53.57-.89-.45-.24-.1s1.3.7,1.94,1.1c1.2.76-1.08-1-.38-.31.28.27.57.53.86.79.49.45,1.94,2.17.59.34a8.82,8.82,0,0,0,4.82,3.63L87,32.42c1,1.26-.46-.74.12.18a5.63,5.63,0,0,0,10.15-1.33,11.57,11.57,0,0,0,.6-3.35L97,31.13c3.14-5.35-1-11-5.34-14a22.46,22.46,0,0,0-8.87-3.6c-2.18-.38-4.39-.6-6.59-.77l-2.59-.19-1-.09-1-.11.93.13A6.7,6.7,0,0,1,70,12c-.5-.13-1-.3-1.47-.44-.88-.24-.28.23.33.18-.5,0-1.77-.91-2.19-1.16C65.8,10.09,65,9.53,64.15,9a43,43,0,0,0-9.54-5.2A29.8,29.8,0,0,0,44.47,1.93,36.67,36.67,0,0,0,24.41,7.76a50.56,50.56,0,0,0-8.56,7.57c-.57.59-1.15,1.18-1.76,1.75l-.82.72c-.92.82.56-.29-.5.38-1.53,1-2.14,1.87-3.9,2.53s-2.37,3.13-.54,4.12Z"/></g><path class="cls-13" d="M96.7,33.82a7.28,7.28,0,0,0-5.13-5.13c-2.73-.75-5,.2-7.14,1.89Q82.69,32,80.94,33.39l-.62.49c-.63.44-1.23.94-1.85,1.4A72,72,0,0,1,71,40.16c-.65.36-1.3.71-2,1a17.28,17.28,0,0,0-2,.91l-.59.23c-.78.29-1.58.55-2.38.79a40.13,40.13,0,0,1-4.71,1.08l-.38,0a1.39,1.39,0,0,1-.33.06l-.25,0-.1,0,.08,0c-.8.08-1.61.16-2.41.21a78,78,0,0,1-9.67-.05c-1.53-.1-3.05-.25-4.57-.42l.11,0-.16,0-.19,0-.26,0L40.83,44c-.88-.14-1.76-.28-2.64-.45a105.6,105.6,0,0,1-18.52-5.32l-.36-.12c.34.15.32.14,0,0a1.71,1.71,0,0,1-.54-.23l-.87-.36-.43-.14-.2-.07c-1.73-3.06-3.88-5.71-7.28-7l0,0,0,0h0a.43.43,0,0,1-.07-.07,4,4,0,0,0-.46-.29,1,1,0,0,1,.39.21c-.26-.29-.78-.9-.85-1-.46-.34-.53-.41-.2-.19l-.55-.54A2.76,2.76,0,0,0,3.88,29a20.46,20.46,0,0,0-1,2A6.11,6.11,0,0,0,.89,33.06C-.47,35.64-.4,39.41,2,41.44c.19.17.46.53.7.73a8.07,8.07,0,0,0,.92,1l.16.19.18.28c.89,1.44,1.56,3,2.36,4.51a37.48,37.48,0,0,0,6.77,9A39.23,39.23,0,0,0,33.94,67.77c8.11,1.36,16.14.88,24.27,0,4.31-.49,8.66-1,12.72-2.58a45,45,0,0,0,11.73-6.92A65.1,65.1,0,0,0,91,50.08,27.76,27.76,0,0,0,95.38,44,15.38,15.38,0,0,0,96.7,33.82ZM82.41,37.16a.41.41,0,0,0,0,.09,1.67,1.67,0,0,1,.08-.4V37Zm0-.19,0-.15C82.52,36.59,82.58,36.52,82.46,37ZM80,34.14c-.39.31-.24.18,0,0ZM67.42,42l-.26.1C67.53,41.92,68.46,41.58,67.42,42Z"/><path class="cls-14" d="M59,44.26c.32-.1.26-.24-.6.09h0A3.21,3.21,0,0,1,59,44.26Z"/><path class="cls-14" d="M41.78,44.09c-1.18-.3-.89-.16-.5-.07a3.47,3.47,0,0,1,.45.06Z"/><path class="cls-14" d="M9.89,30.24l0-.06-.09-.07.07.08Z"/><path class="cls-14" d="M19.31,38.07l-.63-.27,0,0,.54.23Z"/></g></g><g class="cls-15"><path class="cls-16" d="M90,24.78c-2.82-1.66-5.76.36-6.88,3-.79,1.89-1,4-1.69,5.94a24.92,24.92,0,0,1-2.72,5.14,29.44,29.44,0,0,1-8.09,8c-7.77,5.16-17.22,6.83-26.4,6.86-8.52,0-18.88-1-24.48-8.35a12.53,12.53,0,0,1-2.46-10.41,11.11,11.11,0,0,1,2.87-5,18.73,18.73,0,0,0,4-6.19,9.72,9.72,0,0,0,.59-2.88c0-.16,0-.32.05-.49,0-.38,0-.76,0-1.14s0-.59-.07-.89c.62-3.23,6.19-5.58,8.57-6.87,4.39-2.38,9-4.59,14.11-4.56C51.83,7,51.8.19,47.37,0c-8.7-.32-18.43,1.87-25.5,7.15a19.45,19.45,0,0,0-4.7,4.89,3.37,3.37,0,0,0-1.77,3c0,.28,0,.56,0,.83a14.46,14.46,0,0,0-.36,1.64c-.15,1-.23,2-.36,3a17,17,0,0,1-3.49,6,20.07,20.07,0,0,0-4.09,6.33A19.08,19.08,0,0,0,6.26,40,36.46,36.46,0,0,0,42.49,75.19c9.3.08,18.22-3.62,25.78-8.81a93.2,93.2,0,0,0,10.87-8.86,52.21,52.21,0,0,0,9.51-11.14,28.79,28.79,0,0,0,4-14.42C92.61,29.36,92.5,26.26,90,24.78Zm-4.41,4.67a1.14,1.14,0,0,0,0,.32l0,0A1,1,0,0,1,85.56,29.45Z"/></g><path class="cls-17" d="M77.48,27a4.24,4.24,0,0,0-1.18-2.69c-1.07-1.06-2.71-1.43-4.1-1.91l-8.38-2.93c-1.87-.65-3.74-1.35-5.62-2a34.53,34.53,0,0,0-3-2.07,27.22,27.22,0,0,0-12.89-4,18.84,18.84,0,0,0-6.46.84C33.73,12.91,31.25,14,30,16a5.47,5.47,0,0,0,1.13,7,7.29,7.29,0,0,0,7.18,1.28c2.05-.65,3.71-1.62,5.93-1.44a15.5,15.5,0,0,1,5.83,1.93c4.31,2.23,8.27,4.87,13.07,6a56.13,56.13,0,0,0,6.07,1l.19,0,1.2.14c2.36.29,4.81-.06,6.11-2.08a5.36,5.36,0,0,0,1-1.38A1.24,1.24,0,0,0,77.48,27Zm-41.79-9.2s-.09,0-.09,0Zm.07,2-.06.09S34.9,20.21,35.76,19.79Z"/><g class="cls-18"><path class="cls-12" d="M20.54,38.94a34.67,34.67,0,0,0,9,7.31A35.08,35.08,0,0,0,41,49.84a52.14,52.14,0,0,0,25.79-2.92,60.55,60.55,0,0,0,6.92-3c2.18-1.16,4.51-2.29,6-4.3a1.33,1.33,0,0,0-1.14-2c-2.64.32-5.07,1.8-7.49,2.85s-4.73,2-7.18,2.82a56.23,56.23,0,0,1-15.7,3.1A46,46,0,0,1,34,44.63c-4.53-1.29-9.44-3.12-13.2-6-.19-.14-.4.16-.25.32Z"/></g><path class="cls-12" d="M52.22,15.65c3.12,4.9,9.71,7.86,15.21,9a45.77,45.77,0,0,0,4.66.64,7.82,7.82,0,0,1,4.3,1.33,8.61,8.61,0,0,1,2.14,3.15c.56,1.11,1.32,1.8,2.56,1.27a1.63,1.63,0,0,0,.79-1.37c.27-2.63-1.58-5.09-3.68-6.49-2.63-1.76-5.85-1.46-8.84-1.91A38,38,0,0,1,61,19c-2.81-1.12-5.35-2.75-8.09-4-.41-.18-1,.22-.67.67Z"/><path class="cls-12" d="M34,15.07a3.25,3.25,0,0,0,.89.31,4.38,4.38,0,0,0,.62.08,2,2,0,0,0,1-.3,1.57,1.57,0,0,0,0-2.69,2.48,2.48,0,0,0-1-.3,4.41,4.41,0,0,0-.62.09,3.25,3.25,0,0,0-.89.31,1.46,1.46,0,0,0,0,2.5Z"/><path class="cls-19" d="M25.76,51.27c2.43-1.48,72.7-2.2,72.7-2.2s-12.89,20.48-42.38,20C27.44,68.65,23.73,52.51,25.76,51.27Z"/><path class="cls-19" d="M25.74,50.92c2.42-1.48,73.09-2.28,73.09-2.28s-12.9,20.48-42.35,20C27.86,68.23,23.7,52.16,25.74,50.92Z"/><g class="cls-20"><g class="cls-21"><path class="cls-22" d="M22.19,50.23c-4.5,4.18.26,10.13,3.6,13.3A34.06,34.06,0,0,0,42.93,72.3c16,2.72,35.72-.91,48.31-9.42A66.69,66.69,0,0,0,107.4,47.49c1.85-2.43-2.51-3.75-5.49-2.44-4.08,1.8-5.38,4.86-7.82,7.41a46.23,46.23,0,0,1-7.85,6.93,50.45,50.45,0,0,1-24.19,8.75,73.2,73.2,0,0,1-14.77-.39A38.73,38.73,0,0,1,34.36,63a21.91,21.91,0,0,1-6.19-5.9c-1.56-2.22-1.44-4.35-2.71-7.43-.32-.78-2.44-.19-3.27.59Z"/></g><path class="cls-23" d="M82.6,43.46a50.15,50.15,0,0,0-5,2.27,23.68,23.68,0,0,1-2.42.83,60.08,60.08,0,0,1-14.57,1.27A21.35,21.35,0,0,0,57.9,47a47.08,47.08,0,0,0-5.69-.68c-3.14-.3-6.22-.69-9.33-1.06h0l-1.24-.15L37.05,44c-3.22-.8-7,1.4-6.72,3.54a8,8,0,0,0,.37,1.54c-.27,1.59.85,3,2.42,4.25A27.63,27.63,0,0,0,38,58.07c4.22,3.19,10.46,4.53,17.42,4.13S69,59.63,75.1,57.06c5.93-2.5,11.13-5.32,14.6-9.33C92.35,44.66,86.92,42.18,82.6,43.46Z"/><path class="cls-24" d="M86.82,38.32a48,48,0,0,0-5,2.26c-.76.31-1.58.59-2.42.84A60.07,60.07,0,0,1,64.8,42.68a23.15,23.15,0,0,0-2.68-.82,51.46,51.46,0,0,0-5.69-.68c-3.14-.3-6.22-.69-9.32-1h0L45.83,40c-1.53-.36-3-.74-4.56-1.12-3.22-.81-7,1.39-6.72,3.53a8.62,8.62,0,0,0,.37,1.54c-.27,1.59.85,3,2.42,4.25a27,27,0,0,0,4.93,4.75c4.22,3.19,10.45,4.54,17.42,4.13s13.54-2.56,19.63-5.13c5.93-2.51,11.13-5.32,14.6-9.34C96.57,39.51,91.14,37,86.82,38.32Z"/></g><g class="cls-20"><path class="cls-25" d="M89.87,48.59l-.06,0a8.4,8.4,0,0,0-4.71-.13,3.25,3.25,0,0,0-1.27-2.35A6.18,6.18,0,0,0,80.05,45a10.17,10.17,0,0,0-.47-2.16c-1.12-3.38-8.19-3.06-9.8.56l-.3.74,0,0c-1.58-.54-3.72.46-3.08,1.65.92,1.71-.57,4.13-1.63,5.88a34.82,34.82,0,0,1-4.28,6A29.33,29.33,0,0,1,53.22,63c-2.5,1.39-5.92,3.47-9.27,3.59-5.85.2-8,4.76-3.06,6.28,4.45,1.38,10.22-.59,14.67-2l.35-.11c-1.84,2.51,2.43,5.6,6.53,3.89,3.67-1.54,5.58-3.8,7.45-6.19a9.1,9.1,0,0,0,1.94-.06,7.57,7.57,0,0,0,2.74-.92c2.14.41,4.91-.07,6.35-1.51,1.87-.15,3.66-.86,4.3-2.17l.07-.13A5.43,5.43,0,0,0,88.79,62a5.85,5.85,0,0,0,3.39-2l.16-.23a7.48,7.48,0,0,0,2.79-1.88,9.85,9.85,0,0,0,2.24-3.72,7.24,7.24,0,0,0,2.13-3.53C100.25,47.34,93.25,45.33,89.87,48.59Z"/><path class="cls-26" d="M95,45l0,.06a8.8,8.8,0,0,0-4.74.84A4.84,4.84,0,0,0,87.79,44a8.38,8.38,0,0,0-4.35-.32,14.5,14.5,0,0,0-1.53-1.86c-2.8-2.84-9.66-1.12-9.45,2.48,0,.25,0,.49.06.74h0c-1.84-.17-3.46,1.17-2.25,2.11C72,48.51,71.72,51,71.55,52.81a22.83,22.83,0,0,1-1.27,6.32,18.85,18.85,0,0,1-4.49,6.33c-1.8,1.77-4.16,4.34-7.42,5.12-5.71,1.37-5.52,5.93.08,6.32,5.1.35,9.85-2.6,13.57-4.77l.29-.18c-.59,2.65,5.19,4.59,8.41,2.21C83.59,72,84.36,69.59,85,67.05a9.11,9.11,0,0,0,1.89-.45,5.94,5.94,0,0,0,2.26-1.39c2.32-.06,4.83-1,5.55-2.64,1.78-.52,3.21-1.52,3.19-2.84v-.14a3.88,3.88,0,0,0,2.65-2.22,3.94,3.94,0,0,0,2.35-2.51c0-.08,0-.16,0-.24a4.84,4.84,0,0,0,1.83-2.28,7,7,0,0,0,.38-3.82,5.13,5.13,0,0,0,.36-3.63C104.66,41.76,96.72,41.35,95,45Z"/><path class="cls-26" d="M105,41.37v.06a8.34,8.34,0,0,0-4.48,1.47,6.58,6.58,0,0,0-3.1-1.44,9.15,9.15,0,0,0-4.48.32,18.19,18.19,0,0,0-2.2-1.53c-3.82-2.29-10.1.32-8.62,3.69.1.23.21.46.32.69h0c-1.91.1-3.07,1.6-1.51,2.31,2.26,1,2.85,3.44,3.31,5.17a20.46,20.46,0,0,1,1,6.15,13.9,13.9,0,0,1-2.29,6.62c-1.18,1.93-2.64,4.7-5.65,5.91-5.25,2.11-3.46,6.38,2.31,5.95,5.25-.4,9-3.86,12-6.45l.23-.21c.34,2.59,6.83,3.6,9.23.88,2.14-2.42,2-4.84,1.83-7.33a8,8,0,0,0,1.74-.7,4.5,4.5,0,0,0,1.79-1.63c2.31-.39,4.48-1.69,4.64-3.3,1.61-.74,2.69-1.89,2.21-3.14l-.05-.12A2.91,2.91,0,0,0,115,52.26a2.93,2.93,0,0,0,1.48-2.71c0-.08,0-.16,0-.24a3.52,3.52,0,0,0,1-2.41,6.66,6.66,0,0,0-1-3.66,4.9,4.9,0,0,0-.92-3.49C113.58,36.93,105.45,37.68,105,41.37Z"/></g></g></g></g></g></svg>