<svg xmlns="http://www.w3.org/2000/svg" xmlns:xlink="http://www.w3.org/1999/xlink" viewBox="0 0 113.44 107.59"><defs><style>.cls-1,.cls-11,.cls-12{fill:#eb7013;}.cls-2{fill:none;}.cls-3{fill:#ff7917;}.cls-4{isolation:isolate;}.cls-5{fill:#676a23;}.cls-6{clip-path:url(#clip-path);}.cls-12,.cls-7{opacity:0.14;}.cls-13,.cls-14,.cls-7{mix-blend-mode:screen;}.cls-8{fill:#fab93b;}.cls-9{opacity:0.2;}.cls-11,.cls-12,.cls-19,.cls-9{mix-blend-mode:multiply;}.cls-10{clip-path:url(#clip-path-2);}.cls-11{opacity:0.25;}.cls-13,.cls-15{fill:#fff;}.cls-13,.cls-14{opacity:0.11;}.cls-16{clip-path:url(#clip-path-3);}.cls-17{fill:#ff6300;}.cls-18{fill:#ff991a;}.cls-19{fill:#ff6a0b;opacity:0.36;}.cls-20{fill:#ff8f27;}.cls-21{fill:#fc9d1a;}.cls-22{fill:#fff5f2;}.cls-23{clip-path:url(#clip-path-4);}.cls-24{clip-path:url(#clip-path-5);}.cls-25{clip-path:url(#clip-path-6);}.cls-26{clip-path:url(#clip-path-7);}.cls-27{clip-path:url(#clip-path-8);}.cls-28{clip-path:url(#clip-path-9);}.cls-29{clip-path:url(#clip-path-10);}.cls-30{clip-path:url(#clip-path-11);}.cls-31{opacity:0.41;mix-blend-mode:soft-light;}.cls-32{opacity:0.32;}.cls-33{opacity:0.34;}.cls-34{opacity:0.43;}</style><clipPath id="clip-path"><path class="cls-1" d="M27.64,65.5C35,73.81,47.28,76.35,58.33,75a28.53,28.53,0,0,0,12.23-4,38.13,38.13,0,0,0,6.31-5.67c2.77-2.88,5.59-5.83,7.29-9.45a26.16,26.16,0,0,0,2.17-10.35,40.3,40.3,0,0,0-8.7-26.71C71.56,11.33,62.26,6.5,52.69,6.46c-11.74,0-22.78,7-29.45,16.7-4.36,6.31-7.13,14-6.49,21.6A31.46,31.46,0,0,0,23,60.54C24.7,62.87,25.71,63.33,27.64,65.5Z"/></clipPath><clipPath id="clip-path-2"><path class="cls-2" d="M27.64,65.5C35,73.81,47.28,76.35,58.33,75a28.53,28.53,0,0,0,12.23-4,38.13,38.13,0,0,0,6.31-5.67c2.77-2.88,5.59-5.83,7.29-9.45a26.16,26.16,0,0,0,2.17-10.35,40.3,40.3,0,0,0-8.7-26.71C71.56,11.33,62.26,6.5,52.69,6.46c-11.74,0-22.78,7-29.45,16.7-4.36,6.31-7.13,14-6.49,21.6A31.46,31.46,0,0,0,23,60.54C24.7,62.87,25.71,63.33,27.64,65.5Z"/></clipPath><clipPath id="clip-path-3"><path class="cls-3" d="M54.79,39.83s-6.4,9.75-6.28,19.23C48.6,66.12,53.86,78.83,61,83.28s15.7,9.14,26.34,6.55,27.54-19,24.85-23.84S54.79,39.83,54.79,39.83Z"/></clipPath><clipPath id="clip-path-4"><path class="cls-2" d="M86.14,50q2.14-4,4.27-8a.47.47,0,0,0,0-.5,1.35,1.35,0,0,0-.48-.38A26.82,26.82,0,0,0,74,38c-.7.11-1.44.31-1.54.82a1.55,1.55,0,0,0,.38,1.05c2.05,3.21,5,6.27,6.61,9.52.54,1.07,2,4.6,4.37,4.43C85.07,53.74,85.76,50.76,86.14,50Z"/></clipPath><clipPath id="clip-path-5"><path class="cls-2" d="M77.83,49.2l-7.25-9.75A1.29,1.29,0,0,0,70,39a1.24,1.24,0,0,0-.6-.05c-4.89.45-8.57,3-9.62,6.54a1.55,1.55,0,0,0,.33,1.64,3.87,3.87,0,0,0,1.32.74c4.34,1.7,8.86,2.75,13.09,4.74,1.39.65,5.87,3,6.58,1.45C81.53,53.19,78.48,50.08,77.83,49.2Z"/></clipPath><clipPath id="clip-path-6"><path class="cls-2" d="M72.47,53.16l-12.72-5a1.36,1.36,0,0,0-.71-.14.47.47,0,0,0-.28.32c-1.41,3.45-.26,8.15,3,12.27A3.65,3.65,0,0,0,63.58,62a2.16,2.16,0,0,0,1.25-.1c3.39-1,6.19-2.8,9.84-3.49,1.2-.23,5.29-.73,4-2.66C78,54.74,73.62,53.61,72.47,53.16Z"/></clipPath><clipPath id="clip-path-7"><path class="cls-2" d="M93.56,61.13l12.21,5.18a1.06,1.06,0,0,0,.66.14.44.44,0,0,0,.25-.34c1.09-3.71.15-8.91-3.17-13.29-.46-.61-1-1.43-1.72-1.61a5.84,5.84,0,0,0-2.07.43c-3.1,1.15-5.2,3.09-8.56,3.87-1.1.25-4.9.83-3.55,2.89C88.33,59.5,92.46,60.66,93.56,61.13Z"/></clipPath><clipPath id="clip-path-8"><path class="cls-2" d="M88.67,65l7,9.79a1.33,1.33,0,0,0,.53.49,1.26,1.26,0,0,0,.6.07c4.94-.38,8.71-2.81,9.85-6.36a1.51,1.51,0,0,0-.28-1.64,4.31,4.31,0,0,0-1.31-.75c-4.33-1.75-8.85-2.86-13.06-4.9-1.38-.67-5.83-3.06-6.59-1.54C85.05,60.93,88,64.06,88.67,65Z"/></clipPath><clipPath id="clip-path-9"><path class="cls-2" d="M80.14,64.28l-5,7.8c-.09.15-.19.31-.09.49a1.11,1.11,0,0,0,.47.36,27.8,27.8,0,0,0,16.25,2.9c.72-.11,1.5-.31,1.64-.81a1.44,1.44,0,0,0-.31-1c-1.88-3.09-4.67-6-6.12-9.17-.47-1-1.72-4.45-4.16-4.25C81.52,60.68,80.59,63.58,80.14,64.28Z"/></clipPath><clipPath id="clip-path-10"><path class="cls-2" d="M100.54,49.55c0-1.15-7.65-7.28-8.26-6.94S85.21,53.3,85.3,54c.14,1,.16,2.3,2.84,1.7S100.52,50.84,100.54,49.55Z"/></clipPath><clipPath id="clip-path-11"><path class="cls-2" d="M73.58,71.93c.8.07,8-11.33,7.51-11.9S79.92,57.44,78,58.55s-4.18,1.13-6.88,2.16-6.7,2.33-6.4,3.36S72,71.77,73.58,71.93Z"/></clipPath></defs><title>ineorange</title><g class="cls-4"><g id="Layer_2" data-name="Layer 2"><g id="Layer_1-2" data-name="Layer 1"><g id="Layer_12" data-name="Layer 12"><path class="cls-5" d="M34.79,23.08a17,17,0,0,0-3.85-4.5c-1.32-1-3.18-2.71-5-2.23a.56.56,0,0,0-.33.81c.65,1.42,2.59,2,3.83,2.83a50,50,0,0,1,4.84,3.46c.25.21.68-.06.48-.37Z"/><path class="cls-1" d="M27.64,65.5C35,73.81,47.28,76.35,58.33,75a28.53,28.53,0,0,0,12.23-4,38.13,38.13,0,0,0,6.31-5.67c2.77-2.88,5.59-5.83,7.29-9.45a26.16,26.16,0,0,0,2.17-10.35,40.3,40.3,0,0,0-8.7-26.71C71.56,11.33,62.26,6.5,52.69,6.46c-11.74,0-22.78,7-29.45,16.7-4.36,6.31-7.13,14-6.49,21.6A31.46,31.46,0,0,0,23,60.54C24.7,62.87,25.71,63.33,27.64,65.5Z"/><g class="cls-6"><g class="cls-7"><path class="cls-8" d="M39.48,8.14c1.1.73,2.63.8,3.9,1.09,1.7.39,3.38.4,5.07.91a52.5,52.5,0,0,1,8.89,4,48.62,48.62,0,0,1,4.43,2.72c.27.18,1,.89,0,0l.7.58a27.17,27.17,0,0,1,1.94,1.93c1,1.05,1.86,2.17,2.81,3.25s-.19-.11-.18-.28a7.36,7.36,0,0,0,.72,1c.47.66.91,1.34,1.34,2,.8,1.32,1.46,2.69,2.14,4.07.54,1.11-.61-1.64-.21-.48.1.28.22.56.32.85.31.86.62,1.72.89,2.6.2.68.39,1.37.56,2.06A12.32,12.32,0,0,0,73.28,37s-.2-2-.12-.88c0,.44.09.88.12,1.32.07,1,.1,2,.09,3,0,.78-.05,1.56-.11,2.34,0,.33-.06.66-.09,1-.16,1.95,0-.66.1-.66s-1,4.77-1.12,5.21c-.2.76-.42,1.5-.66,2.24-.14.42-.28.84-.43,1.26s-.69,1.72-.12.36.09-.23,0,0c-.45,1-.84,2-1.25,3,.1-.25,1-2.06.18-.53-.2.4-.39.8-.6,1.19a81.31,81.31,0,0,1-6.09,10c-.49.67.06-.07.14-.17-.58.74-1.19,1.48-1.72,2.27s-1,1.63-1.59,2.44c-1.07,1.59-2,3.25-2.92,4.91a3.78,3.78,0,0,0,4.22,5.49,37.41,37.41,0,0,0,12-4.31c3.68-2.23,7.47-4.58,10.23-7.94a41.27,41.27,0,0,0,7.59-13.65,39.41,39.41,0,0,0,1.78-13.17,42.39,42.39,0,0,0-8-24.27A43,43,0,0,0,64.32,2.34,38.28,38.28,0,0,0,49.48.05c-2.36.12-5.32.33-7.37,1.66-1.67,1.07-3.44,2.72-3.58,4.78a2,2,0,0,0,.95,1.65Z"/></g><g class="cls-9"><path class="cls-1" d="M39,5.28c-2.63-3-7.62-.13-10.27,1.46a34.43,34.43,0,0,0-7.8,6.7,44.23,44.23,0,0,0-10.2,20.22C7.45,50.33,16.27,68,29.36,78.09A35.67,35.67,0,0,0,42,84.43a23.62,23.62,0,0,0,7.23.87,9.42,9.42,0,0,0,4.3-1,8.45,8.45,0,0,0,1.52-1.13l.27-.28c.93-1.16,1-1.3.25-.4a3.2,3.2,0,0,0,.64-5l.18.34c.35.72.25.45-.31-.81-.11-.21-.19-.4-.31-.6a9.1,9.1,0,0,0-2.72-2.77c-1.3-.88-2.65-1.67-4-2.51s-2.49-1.65-3.71-2.51c-1-.71.93.85.06,0-.25-.23-.52-.44-.78-.66-.68-.6-1.35-1.23-2-1.83A64.4,64.4,0,0,1,36.1,59c-.58-.7-1.34-1.42-.26-.27a15.94,15.94,0,0,1-1.41-2q-1.38-2-2.58-4.1c-.82-1.42-1.57-2.88-2.33-4.34-.33-.62-.61-1.27-.94-1.9-.6-1.14.5,1.43.08.2-.15-.45-.34-.89-.49-1.34a35.62,35.62,0,0,1-1.26-4.77,3.79,3.79,0,0,1-.18-1s.14,1.54.07.5c0-.72-.15-1.45-.24-2.17-.18-1.25-.21-1.48-.09-.71.07.53.07.54,0,0,0-1.53-.2-3-.15-4.57,0-.82.12-1.62.17-2.43s0,0,0,.16c.1-.59.2-1.17.32-1.75a24.62,24.62,0,0,1,1.25-4c-.39,1,.36-.77.49-1,.36-.74.75-1.46,1.17-2.18a33.2,33.2,0,0,1,5.4-6.84c2.25-2.36,7-5.68,3.88-9.25Z"/></g></g><g class="cls-10"><path class="cls-11" d="M92.49,40.35a11.73,11.73,0,0,0-.82-1.89c-.28-.57-.2-1-.22-.31a6.51,6.51,0,0,0-1-2.71,4.48,4.48,0,0,0-1.77-3.75,4.66,4.66,0,0,0-6,.35,110.31,110.31,0,0,1-9.45,7c-2.79,1.84-5.71,3.88-9,4.81-6.09,1.73-13.22.8-19.07-1.42A24.6,24.6,0,0,1,31.86,30.77,25,25,0,0,1,30.32,27a40.31,40.31,0,0,0-.92-5.23c-.08-.33-.17-.66-.26-1A16.09,16.09,0,0,1,29.23,18c.06-.51.53-3.91.81-4,2.29-.65,1.94-4.47-.58-4.28A4.89,4.89,0,0,0,25.77,12a4.62,4.62,0,0,0-5.42,3.17c-.1.29-.19.57-.26.85a48.38,48.38,0,0,0-1.45,6,4.78,4.78,0,0,0-4.87,3.48,46,46,0,0,0,.92,26.59A47.2,47.2,0,0,0,21,64.63a4.55,4.55,0,0,0,1.14,2.57c4.41,4.93,9,11.1,15.79,12.65,6.3,1.44,13.56.44,19.8-.93C70,76.25,81.41,69.19,87.41,58a36.45,36.45,0,0,0,3.73-10.5,12,12,0,0,0,1.38-2.92A7.61,7.61,0,0,0,92.49,40.35Z"/><path class="cls-12" d="M97,54.9a11.94,11.94,0,0,0-1-2c-.34-.59-.24-1-.27-.32a6.35,6.35,0,0,0-1.17-2.86,4.52,4.52,0,0,0-2.14-4,6.29,6.29,0,0,0-7.28.38,130.48,130.48,0,0,1-11.42,7.32c-3.38,1.94-6.9,4.09-10.84,5.07-7.36,1.82-16,.85-23-1.49C33,54.76,27.09,50.54,23.73,44.8a25.5,25.5,0,0,1-1.86-3.95,37.47,37.47,0,0,0-1.11-5.52c-.1-.35-.21-.69-.31-1a13.89,13.89,0,0,1,.1-3c.08-.53.65-4.12,1-4.2a2.28,2.28,0,0,0-.7-4.51A6.05,6.05,0,0,0,16.37,25a5.71,5.71,0,0,0-6.55,3.35,8.08,8.08,0,0,0-.32.9,46,46,0,0,0-1.75,6.27,5.79,5.79,0,0,0-5.89,3.67A42.61,42.61,0,0,0,3,67.25a47.69,47.69,0,0,0,7.65,13.24A4.4,4.4,0,0,0,12,83.19c5.34,5.2,10.85,11.7,19.09,13.34,7.62,1.51,16.41.46,24-1,14.76-2.82,28.62-10.26,35.88-22.1a35.52,35.52,0,0,0,4.5-11.07,11.6,11.6,0,0,0,1.67-3.08A6.9,6.9,0,0,0,97,54.9Z"/><path class="cls-12" d="M101.25,58.59A11.94,11.94,0,0,0,100,56.72c-.4-.56-.36-1-.3-.29a6.38,6.38,0,0,0-1.49-2.71A4.51,4.51,0,0,0,95.68,50a6.29,6.29,0,0,0-7.19,1.21q-5,4.53-10.51,8.58c-3.14,2.31-6.39,4.85-10.19,6.27C60.68,68.74,52,68.76,44.71,67.24,37.63,65.76,28.59,61.31,24.61,56c-.86-1.15-12.38-20.56-12.85-18.15C10,47.2,4.75,73.16,9.21,81.6a47.85,47.85,0,0,0,9.1,12.28A4.47,4.47,0,0,0,20,96.41c5.89,4.56,12.11,10.38,20.48,11.07,7.75.63,16.35-1.42,23.68-3.71,14.35-4.48,27.27-13.46,33.12-26a35.22,35.22,0,0,0,3.21-11.52A11.55,11.55,0,0,0,101.79,63,7,7,0,0,0,101.25,58.59Z"/></g><path class="cls-13" d="M82.12,42.56c-.53-12.16-6.3-24.66-17.65-30.24a26.12,26.12,0,0,0-6.56-2.24,9.1,9.1,0,0,0-4.12-.41,7.35,7.35,0,0,0-2.88,1,7.21,7.21,0,0,0-3.64,4.49c-1.05,3.29.13,6.64,2.24,9.19a25.69,25.69,0,0,0,3.11,3c1.67,2.64,3.23,5.35,4.65,8.14a13.7,13.7,0,0,1,1.42,7.64c-.18,3.24-.48,6.61.6,9.74A11.18,11.18,0,0,0,75.4,59.16C81.54,56,82.39,48.78,82.12,42.56Z"/><g class="cls-14"><path class="cls-15" d="M65.77,25.8l.16-.14a2.19,2.19,0,0,0,.61-.95,2.18,2.18,0,0,0,.25-1.13,2.85,2.85,0,0,0-.86-2.07l-.16-.15-.64-.49-.75-.31a2.41,2.41,0,0,0-1.25-.06,1.5,1.5,0,0,0-.79.22,1.55,1.55,0,0,0-.69.4,1.58,1.58,0,0,0-.56.56,1.63,1.63,0,0,0-.41.69,2.52,2.52,0,0,0-.27,1.21l.12.83.31.75c.17.21.33.43.49.64l.64.49.75.31a2.41,2.41,0,0,0,1.25.06,1.58,1.58,0,0,0,.79-.21,2.54,2.54,0,0,0,1-.65Z"/></g><g class="cls-14"><path class="cls-15" d="M69.66,31.35a3.22,3.22,0,0,0,2.18-.9,2.39,2.39,0,0,0,.64-1,2.33,2.33,0,0,0,.26-1.19,3.11,3.11,0,0,0-.9-2.18,3.08,3.08,0,0,0-4.35,0,2.39,2.39,0,0,0-.64,1,2.33,2.33,0,0,0-.26,1.19,3.07,3.07,0,0,0,.9,2.18,3.2,3.2,0,0,0,2.17.9Z"/></g><g class="cls-14"><path class="cls-15" d="M67.62,25.21l.47.08a1.87,1.87,0,0,0,.94,0l.1,0-.62.08h.15a2.23,2.23,0,0,0,2.13-2.8,3.3,3.3,0,0,0-.72-1.21,2.45,2.45,0,0,0-2.45-.59,2.47,2.47,0,0,0-1.21.84A2.2,2.2,0,0,0,65.9,23a2.85,2.85,0,0,0,.32,1.18,1.79,1.79,0,0,0,.6.65,1.72,1.72,0,0,0,.8.42Z"/></g><g class="cls-14"><path class="cls-15" d="M62.29,28.81a2.73,2.73,0,0,0-.35,1.25,2.18,2.18,0,0,0,.63,1.52,2.26,2.26,0,0,0,1.23.59,2,2,0,0,0,1.36-.26,2.23,2.23,0,0,0,1-1.28v0l-.22.51A.35.35,0,0,1,66,31l-.34.44,0,0a2.36,2.36,0,0,0,.63-1.52,2.07,2.07,0,0,0-.85-1.7,2,2,0,0,0-1.59-.43,2.1,2.1,0,0,0-1.58,1Z"/></g><g class="cls-14"><path class="cls-15" d="M66.56,33.61a3.26,3.26,0,0,0,0,1.78,3.5,3.5,0,0,0,.36.79,2.21,2.21,0,0,0,1.29,1,5,5,0,0,0,.66.08l-.54-.07h.05a2,2,0,0,0,2-.52,2.08,2.08,0,0,0,.52-2l0-.06c0,.18,0,.36.08.54v0l-.07.56a2.32,2.32,0,0,0-.31-1.88c.08.17.15.34.22.52a1.78,1.78,0,0,1-.09-.33c0,.19.06.39.08.58a1.22,1.22,0,0,1,0-.27l-.07.58a.51.51,0,0,1,0-.13,2.24,2.24,0,0,0-.22-1.68,2.18,2.18,0,0,0-3-.78,2.15,2.15,0,0,0-1,1.3Z"/></g><g class="cls-14"><path class="cls-15" d="M74.09,37.46l0,0a2,2,0,0,0,2.1,0l0,0a2.38,2.38,0,0,0,.88-1,2.14,2.14,0,0,0,.1-1.39,2.11,2.11,0,0,0-.76-1.11,2,2,0,0,0-1.3-.46,2.18,2.18,0,0,0-2,1.32,2.14,2.14,0,0,0-.1,1.39l.21.51a2.18,2.18,0,0,0,.77.77Z"/></g><g class="cls-14"><path class="cls-15" d="M73.33,31.09c3.1,0,3.11-4.82,0-4.82s-3.1,4.82,0,4.82Z"/></g><g class="cls-14"><path class="cls-15" d="M67.86,27.28a3.37,3.37,0,0,0-.75.85,2.15,2.15,0,0,0-.23,1.27,1.83,1.83,0,0,0,.54,1.13,2.17,2.17,0,0,0,.88.51,2,2,0,0,0,1.52-.2,3,3,0,0,0,.85-.75,2.11,2.11,0,0,0,.58-1.41,2,2,0,0,0-.58-1.4,2,2,0,0,0-1.41-.58,2.05,2.05,0,0,0-1.4.58Z"/></g><g class="cls-14"><path class="cls-15" d="M63.45,28l.2,0a1.84,1.84,0,0,0,1.3-1.3,1.91,1.91,0,0,0-.48-1.82,1.07,1.07,0,0,0-.14-.16,2,2,0,0,0-1.94-.51,2,2,0,0,0-.87,3.32,1.88,1.88,0,0,0,.87.51,1.91,1.91,0,0,0,1.06,0Z"/></g><g class="cls-14"><path class="cls-15" d="M63.75,25.13c2.78,0,2.79-4.32,0-4.32s-2.78,4.32,0,4.32Z"/></g><g class="cls-14"><path class="cls-15" d="M64.77,21.33a1.42,1.42,0,0,0,0-2.83,1.42,1.42,0,0,0,0,2.83Z"/></g><g class="cls-14"><path class="cls-15" d="M67.41,20l.22.07a1.49,1.49,0,0,0,1.76-.87,1.41,1.41,0,0,0,.07-1,1.63,1.63,0,0,0-.68-.89l-.19-.14A1.52,1.52,0,0,0,67.41,17a1.48,1.48,0,0,0-1,.88,1.54,1.54,0,0,0,1,2.07Z"/></g><g class="cls-14"><path class="cls-15" d="M72.72,25.29a1.3,1.3,0,1,0-1.3-1.3,1.32,1.32,0,0,0,1.3,1.3Z"/></g><g class="cls-14"><path class="cls-15" d="M68,27.45a1.9,1.9,0,0,0,1.3-.53,1.83,1.83,0,0,0,0-2.6,1.9,1.9,0,0,0-1.3-.53,1.83,1.83,0,1,0,0,3.66Z"/></g><g class="cls-14"><path class="cls-15" d="M65.32,31.88l.51-.61a1.08,1.08,0,0,0,.29-.7,1,1,0,0,0-.29-.7,1,1,0,0,0-1.41,0l-.61.5a1.07,1.07,0,0,0,1.51,1.51Z"/></g><g class="cls-14"><path class="cls-15" d="M59.67,32.56a1.44,1.44,0,1,0-1.43-1.44,1.46,1.46,0,0,0,1.43,1.44Z"/></g><g class="cls-14"><path class="cls-15" d="M56.82,21h-.14a2.1,2.1,0,0,0-1.35.56A2,2,0,0,0,54.77,23a1.88,1.88,0,0,0,.56,1.35l.39.3a1.93,1.93,0,0,0,1,.27h.14a1.93,1.93,0,0,0,1.37-.57A2,2,0,0,0,58.75,23a2,2,0,0,0-.56-1.37A1.92,1.92,0,0,0,56.82,21Z"/></g><g class="cls-14"><path class="cls-15" d="M53.86,19.2l-.25-.13a.5.5,0,0,0-.68.68l.12.26a.59.59,0,1,0,.81-.81Z"/></g><g class="cls-14"><path class="cls-15" d="M66.61,37a1.95,1.95,0,0,0,2-2,2,2,0,0,0-2-2,2,2,0,0,0-1.38.57A2,2,0,0,0,66.61,37Z"/></g><g class="cls-14"><path class="cls-15" d="M70.92,35.58l.2-.37a.65.65,0,0,0-.87-.88l-.37.2a.76.76,0,1,0,1,1Z"/></g><g class="cls-14"><path class="cls-15" d="M71.25,33.82a2.4,2.4,0,0,1,.26.18l-.34-.27.26.23a2.78,2.78,0,0,0,.93.53L72,34.32l.11,0a1.92,1.92,0,0,0,.8.22,1.56,1.56,0,0,0,1-.34,1.6,1.6,0,0,0,.57-1.67,2,2,0,0,0-.65-1.13,5,5,0,0,0-.79-.57,1.81,1.81,0,0,0-1.31-.17,1.75,1.75,0,0,0-1,.78,1.73,1.73,0,0,0,.61,2.33Z"/></g><g class="cls-14"><path class="cls-15" d="M72.72,42.15a2.64,2.64,0,0,0,0,1.12,1.57,1.57,0,0,0,.78,1.1,1.44,1.44,0,0,0,2.09-.84,2.15,2.15,0,0,0,0-1c0,.13,0,.26.05.39v-.24l-.05.39a.5.5,0,0,1,0-.12,1.54,1.54,0,0,0-.15-1.15,1.5,1.5,0,0,0-2-.53,1.42,1.42,0,0,0-.68.89Z"/></g><g class="cls-14"><path class="cls-15" d="M67.8,49.24l-.2.09a1.76,1.76,0,0,0-.87,1.52,1.83,1.83,0,0,0,.52,1.25,1.8,1.8,0,0,0,1.24.51,1.72,1.72,0,0,0,.89-.24,1.76,1.76,0,0,0,.64-.63l.08-.19c.05-.14.11-.27.17-.41a1.27,1.27,0,0,0,0-.67,1.62,1.62,0,0,0-.47-1,1.92,1.92,0,0,0-.74-.44,1.86,1.86,0,0,0-1.29.17Z"/></g><g class="cls-14"><path class="cls-15" d="M73.23,55.05a2.49,2.49,0,0,0,.14.44,2,2,0,0,0,.75.86,1.61,1.61,0,0,0,1.69,0,2,2,0,0,0,.89-1.3,1.84,1.84,0,0,0-.46-1.75A1.91,1.91,0,0,0,75,52.77a1.81,1.81,0,0,0-1.27.53,1.85,1.85,0,0,0-.47,1.75Z"/></g><path class="cls-3" d="M54.79,39.83s-6.4,9.75-6.28,19.23C48.6,66.12,53.86,78.83,61,83.28s15.7,9.14,26.34,6.55,27.54-19,24.85-23.84S54.79,39.83,54.79,39.83Z"/><g class="cls-16"><path class="cls-17" d="M69.49,60.13c-.84,1-6.54,9.68-7.87,14.74S64,90.9,64,90.9,32,74.12,31.44,73.34s3-22,4-24.21S49.11,32.34,49.11,32.34l9.2.81Z"/><path class="cls-18" d="M96.09,74S86,84.76,81.19,89.24a21.11,21.11,0,0,1-9.58,5.34s15.28,10,18.86,6.16,18.92-22.56,18.92-22.56l4-8.91Z"/></g><path class="cls-19" d="M105.31,73.75c-.92.8-1.66,6.49-12.1,8.65s-28-6.89-32.16-10.47-13.9-16.36-9.53-23.7S105.31,73.75,105.31,73.75Z"/><path class="cls-20" d="M112.6,67.87c-1.47,7.67-8.26,12.09-17.22,13.75a23.35,23.35,0,0,1-9.28-.23,57.16,57.16,0,0,1-13.62-4.9A60.55,60.55,0,0,1,59,67.24c-9.12-8.39-8.53-17.66-6.44-23.52,1.56-4.39,5-10.51,18.69-10.79a43.72,43.72,0,0,1,22.44,5.51c7.43,3.94,13.71,9.68,16.54,15.59C112.17,58.13,113.31,64.19,112.6,67.87Z"/><path class="cls-21" d="M111,66.72c-.35,5.21-2.06,8.43-9.06,11.48a25.08,25.08,0,0,1-8.32,2,38.75,38.75,0,0,1-7.6-.45C78,78.55,70,74.11,63.38,69a28,28,0,0,1-7.24-8.57,24.12,24.12,0,0,1-2.78-9.12,23.53,23.53,0,0,1-.15-5.73c.91-7.16,10.25-11,19.67-11.31,8-.27,15.58,2.57,23,7.19,2.42,1.51,10.39,7.7,12.77,13.79C110.12,59,111.27,63.12,111,66.72Z"/><path class="cls-22" d="M109.93,66.44c-.29,4.92-1.91,8-8.59,10.78a24,24,0,0,1-8,1.8,38.1,38.1,0,0,1-7.29-.48c-7.76-1.16-15.4-5.43-21.78-10.33a27.27,27.27,0,0,1-7-8.16,22.53,22.53,0,0,1-2.72-8.64A21.14,21.14,0,0,1,54.41,46c.81-6.77,9.73-10.33,18.75-10.55,7.69-.2,14.94,2.54,22.06,7,2.33,1.44,10,7.36,12.33,13.13C109,59.14,110.13,63,109.93,66.44Z"/><path class="cls-21" d="M86.14,50q2.14-4,4.27-8a.47.47,0,0,0,0-.5,1.35,1.35,0,0,0-.48-.38A26.82,26.82,0,0,0,74,38c-.7.11-1.44.31-1.54.82a1.55,1.55,0,0,0,.38,1.05c2.05,3.21,5,6.27,6.61,9.52.54,1.07,2,4.6,4.37,4.43C85.07,53.74,85.76,50.76,86.14,50Z"/><path class="cls-21" d="M77.83,49.2l-7.25-9.75A1.29,1.29,0,0,0,70,39a1.24,1.24,0,0,0-.6-.05c-4.89.45-8.57,3-9.62,6.54a1.55,1.55,0,0,0,.33,1.64,3.87,3.87,0,0,0,1.32.74c4.34,1.7,8.86,2.75,13.09,4.74,1.39.65,5.87,3,6.58,1.45C81.53,53.19,78.48,50.08,77.83,49.2Z"/><path class="cls-21" d="M72.47,53.16l-12.72-5a1.36,1.36,0,0,0-.71-.14.47.47,0,0,0-.28.32c-1.41,3.45-.26,8.15,3,12.27A3.65,3.65,0,0,0,63.58,62a2.16,2.16,0,0,0,1.25-.1c3.39-1,6.19-2.8,9.84-3.49,1.2-.23,5.29-.73,4-2.66C78,54.74,73.62,53.61,72.47,53.16Z"/><path class="cls-21" d="M93.56,61.13l12.21,5.18a1.06,1.06,0,0,0,.66.14.44.44,0,0,0,.25-.34c1.09-3.71.15-8.91-3.17-13.29-.46-.61-1-1.43-1.72-1.61a5.84,5.84,0,0,0-2.07.43c-3.1,1.15-5.2,3.09-8.56,3.87-1.1.25-4.9.83-3.55,2.89C88.33,59.5,92.46,60.66,93.56,61.13Z"/><path class="cls-21" d="M88.67,65l7,9.79a1.33,1.33,0,0,0,.53.49,1.26,1.26,0,0,0,.6.07c4.94-.38,8.71-2.81,9.85-6.36a1.51,1.51,0,0,0-.28-1.64,4.31,4.31,0,0,0-1.31-.75c-4.33-1.75-8.85-2.86-13.06-4.9-1.38-.67-5.83-3.06-6.59-1.54C85.05,60.93,88,64.06,88.67,65Z"/><path class="cls-21" d="M80.14,64.28l-5,7.8c-.09.15-.19.31-.09.49a1.11,1.11,0,0,0,.47.36,27.8,27.8,0,0,0,16.25,2.9c.72-.11,1.5-.31,1.64-.81a1.44,1.44,0,0,0-.31-1c-1.88-3.09-4.67-6-6.12-9.17-.47-1-1.72-4.45-4.16-4.25C81.52,60.68,80.59,63.58,80.14,64.28Z"/><path class="cls-15" d="M86.23,58.41c.58-.57-1.28-3.4-3.51-3.85s-3,.77-2.33,2.35S84.29,60.34,86.23,58.41Z"/><path class="cls-21" d="M100.54,49.55c0-1.15-7.65-7.28-8.26-6.94S84.79,53.53,85.3,54s.16,2.3,2.84,1.7S100.52,50.84,100.54,49.55Z"/><path class="cls-21" d="M73.58,71.93c.8.07,8-11.33,7.51-11.9S79.92,57.44,78,58.55s-4.18,1.13-6.88,2.16-6.7,2.33-6.4,3.36S72,71.77,73.58,71.93Z"/><g class="cls-23"><path class="cls-20" d="M81.62,53.06c1.9-.45,2.19-2.44,2.79-4.06s1.13-2.94,1.72-4.41A11,11,0,0,0,87.2,42q.93-.7-.18-.75c-.46-.15-.93-.29-1.39-.41a33.91,33.91,0,0,0-4.44-.9,30.46,30.46,0,0,0-5-.31c-.56,0-2-.22-2,.69,0,.26,1.12,1.4,1.3,1.59,1.77,1.86,5.7,8.4,5.86,11,0,.52-3.36-4.66-3.66-5.07a45.19,45.19,0,0,0-5.22-5.5c-1.15-1.12-1.79-2.58-.81-4.06,1.27-1.91,3.93-1.69,5.92-1.62a36.51,36.51,0,0,1,8.12,1.18c1.54.41,4.09.74,4.68,2.49.66,2-1.49,5.14-2.24,6.86-.64,1.49-3.8,10.43-6.81,6.69a.51.51,0,0,1,.25-.76Z"/></g><g class="cls-24"><path class="cls-20" d="M80.3,53.8a39.05,39.05,0,0,1-6.6-6.25c-1.08-1.26-2-2.67-2.91-4-.37-.53-1.3-2.07-1.83-2.3-.84-.37-1.53.17-2.27.65-1,.66-3,2-3.54,3.26s.15,1.09,1.24,1.54c.83.33,2.18,1,3,1.21,3,.88,11.35,4.13,13.64,6.34.74.71-.64.43-1.58.38-2.81-.15-9.86-3.3-12.53-4.11-1.89-.57-4.73-.72-6.25-2.1-3-2.74,1.21-6.67,3.39-8.27,1.27-.93,3.18-2.14,4.84-1.94,1.85.22,3.13,2.47,4,3.84a40.15,40.15,0,0,0,4.78,6.22c1.48,1.49,3.08,2.93,3.54,5,.12.58-.63.78-1,.51Z"/></g><g class="cls-25"><path class="cls-20" d="M76.58,54.75l.09-.26a.64.64,0,0,1,.68-.36c2.27.25,1.68,2.75.36,3.82a26.24,26.24,0,0,1-4.8,2.63,53.93,53.93,0,0,1-5.65,2.8c-3,1.09-5.83-.83-7.6-3.17S56,53.44,56.89,50.66c.31-1,1.35-4,2-3.13,1.24,1.63,1.29,6.61,2,8.5a8.92,8.92,0,0,0,1.94,3.11,3.43,3.43,0,0,0,4.22,1c2.18-.85,4.28-2,6.42-3,1-.42,3-.93,3.1-2.11,0-.12-.13-.14-.08-.3Z"/></g><g class="cls-26"><path class="cls-20" d="M102.14,51.19c3.13.72,4.6,5,5.13,7.78.4,2.07,1.18,7.93-2.14,8-2,0-4.33-1.4-6.09-2.24a43.13,43.13,0,0,0-7.65-2.53c-1.72-.47-3.66-1-4.57-2.69a2.65,2.65,0,0,1,.79-3.72,1.19,1.19,0,0,1,1.85.87c.17,3,5,3.55,7.28,4.32a28.56,28.56,0,0,1,3.94,1.8c.61.32,3.23,1.65,3.95,1.42,1.56-.5.3-5.57-.09-6.74-.69-2.08-2.26-3.8-2.72-5.93a.27.27,0,0,1,.32-.29Z"/></g><g class="cls-27"><path class="cls-20" d="M104.89,66.18c1.14.5,2.53.26,3.07,1.64s-.67,2.85-1.39,3.84c-1.79,2.47-5.75,6-9.12,4.84-1.9-.69-3.37-2.4-4.66-3.87-1.66-1.9-3.26-3.87-4.88-5.81-1.2-1.44-2.81-3-2.8-5a2.5,2.5,0,0,1,2.17-2.75c.56-.09.59.29.42.86-.81,2.66,2.21,4.78,3.79,6.63,1.81,2.12,3.51,4.54,5.67,6.32,2.36,1.93,5.22-.44,7-2.24a6.42,6.42,0,0,0,1.29-1.51c.38-.82.37-.83.08-1.42s-1.67-1.13-1.87-1.81c-.08-.29,1,.18,1.24.3Z"/></g><g class="cls-28"><path class="cls-20" d="M84.16,61.78c-1.38-.72-3.81,5.54-4.25,6.4a19.5,19.5,0,0,0-1.28,2.49,1.12,1.12,0,0,0,.08,1.83,9,9,0,0,0,1.8.2,24.84,24.84,0,0,1,5.15.7,18,18,0,0,0,3.09.63,12.42,12.42,0,0,0,3.42-.46l.12,0a1.44,1.44,0,0,1,1.8.85l.08.2a1.49,1.49,0,0,1-.9,1.91,15,15,0,0,1-5,.49c-1.92-.17-3.7-.94-5.61-1.19-2.32-.31-7,.25-7.79-2.9-.37-1.44,1-3.1,1.61-4.3,1.2-2.17,2.38-4.4,3.72-6.5,1.09-1.71,3.19-3.4,4.83-1.29a.67.67,0,0,1-.83,1Z"/></g><g class="cls-29"><path class="cls-20" d="M98.3,46.37a9.41,9.41,0,0,1-3.2-1.29c-.69-.32-2.08-1.13-2.87-.63-.38.25-.58,1.35-.77,1.77-.65,1.39-1.63,2.49-2.41,3.81-1,1.76-2.89,2.89-1.75,5.09.47.91.43,2.27-.56,1.92a3.37,3.37,0,0,1-1.83-4.29c.46-1.56,1.71-3,2.51-4.39s1.49-3,2.29-4.5,1.79-2.42,3.49-2c1.94.52,4.77,2.26,5.24,4.31a.13.13,0,0,1-.14.17Z"/></g><g class="cls-30"><path class="cls-20" d="M79.56,58.35c1.76-1.5,2.52,1.12,2.27,2.47a21.12,21.12,0,0,1-4.53,9.25c-1.55,1.84-3.47,2.82-5.71,1.53S65,66.65,65.05,63.9c0-.54.44-1.15,1.08-1,1.51.38,2.1,1.42,3.13,2.56.8.89,3.35,4.14,4.84,3.7s7-9.69,5.51-10.25a.34.34,0,0,1,0-.58Z"/></g><g class="cls-31"><path class="cls-15" d="M76.67,44.61c4.82-5.78,14.68-1.65,19,2.7,5.14,5.23,8.79,15,3.32,21.31-1.33,1.55-3.44,3-5.59,2.61a4.39,4.39,0,0,1-3.62-4c-.13-1.56.75-3,1.12-4.51a8.33,8.33,0,0,0,0-4A14,14,0,0,0,86,51.42c-2.56-2.09-6-2.48-8.78-4.14a1.74,1.74,0,0,1-.56-2.67Z"/></g><g class="cls-32"><path class="cls-15" d="M91.12,74.4a12.51,12.51,0,0,1-3.52-5.24A.21.21,0,0,1,88,69a37.43,37.43,0,0,1,3.35,5.29c.06.12-.11.22-.2.14Z"/></g><g class="cls-33"><path class="cls-15" d="M88.57,74.79a9.9,9.9,0,0,1-1.17-2.43,8.09,8.09,0,0,1-.63-2.65c0-.17.23-.3.34-.12A12.48,12.48,0,0,1,88,72.14a17.88,17.88,0,0,1,.64,2.62.05.05,0,0,1-.09,0Z"/></g><g class="cls-34"><path class="cls-15" d="M83.22,66.35a13.87,13.87,0,0,1-1.5,5.09c-.11.19-.47.13-.41-.13.4-1.72,1.26-3.3,1.76-5,0-.09.17-.07.15,0Z"/></g><path class="cls-15" d="M75.07,63.22A11.69,11.69,0,0,1,71,66.52c-.16.07-.34-.16-.2-.29C72,65,73.64,64.22,75,63.1c.08-.06.18.06.11.12Z"/><g class="cls-32"><path class="cls-15" d="M73.78,62.29a11.21,11.21,0,0,1-3.78,2,.1.1,0,0,1-.08-.17c1.21-.71,2.56-1.21,3.79-1.89.07,0,.13,0,.07.09Z"/></g><g class="cls-33"><path class="cls-15" d="M70.11,56.43a22.34,22.34,0,0,1-5.27,1.41.17.17,0,0,1-.08-.33A23.29,23.29,0,0,1,70,56.15c.17,0,.22.24.07.28Z"/></g><g class="cls-32"><path class="cls-15" d="M68.6,54.64a9.52,9.52,0,0,1-4.83-.23.17.17,0,0,1,.06-.33c1.57,0,3.21.28,4.77.45a.06.06,0,0,1,0,.11Z"/></g><path class="cls-15" d="M66.63,53.15a21.86,21.86,0,0,1-2.54-.48.08.08,0,0,1,0-.15,24.87,24.87,0,0,1,2.58.31.16.16,0,0,1-.06.32Z"/><path class="cls-15" d="M72.51,46.72c-.4-1.1-1.62-2.07-2.43-2.9a21.78,21.78,0,0,1-1.94-2.14c-.07-.1,0-.26.16-.19A12.74,12.74,0,0,1,70.91,44a5.15,5.15,0,0,1,1.61,2.76Z"/><g class="cls-32"><path class="cls-15" d="M70.46,46.59a15.24,15.24,0,0,1-2.49-2c-.1-.13.07-.26.19-.22a6.38,6.38,0,0,1,2.45,2.05c.08.09-.06.2-.15.13Z"/></g><path class="cls-15" d="M82.3,48.08a12.71,12.71,0,0,0-.19-2.14,10.14,10.14,0,0,1-.31-2.11.18.18,0,0,1,.33-.12c.88,1.17.71,3,.55,4.38,0,.22-.39.2-.38,0Z"/><g class="cls-32"><path class="cls-15" d="M96.85,48a3.75,3.75,0,0,1-1.5,1.48c-.72.45-1.37,1-2.13,1.38-.31.16-.49-.27-.34-.49a4.87,4.87,0,0,1,1.79-1.42,13,13,0,0,0,2.09-1,.06.06,0,0,1,.09.07Z"/></g><path class="cls-15" d="M101.16,55.18a16.06,16.06,0,0,1-5.25,1.42c-.16,0-.19-.19,0-.26A16.1,16.1,0,0,1,101.12,55c.1,0,.12.13,0,.17Z"/><g class="cls-33"><path class="cls-15" d="M98.84,57.13c-1.68.65-3.72,1.34-5.54,1a.14.14,0,0,1,0-.26c1.78-.49,3.74-.44,5.56-.78a0,0,0,0,1,0,.05Z"/></g><g class="cls-33"><path class="cls-15" d="M101.12,70.41a13.1,13.1,0,0,1-5.43-3.78.21.21,0,0,1,.26-.31,21.35,21.35,0,0,1,2.52,1.8c.93.69,1.91,1.32,2.8,2.07.12.1,0,.27-.15.22Z"/></g><path class="cls-15" d="M99.84,71.78a9,9,0,0,1-3.18-2.45.16.16,0,0,1,.21-.23,10.77,10.77,0,0,1,1.46,1.16c.54.45,1.09.88,1.67,1.28.14.09,0,.33-.16.24Z"/></g></g></g></g></svg>