<svg xmlns="http://www.w3.org/2000/svg" xmlns:xlink="http://www.w3.org/1999/xlink" viewBox="0 0 111.22 91.36"><defs><style>.cls-1{fill:#9f0012;}.cls-2{fill:none;}.cls-3{fill:#fff6e4;}.cls-4{isolation:isolate;}.cls-5{clip-path:url(#clip-path);}.cls-6{fill:#cc112e;opacity:0.41;}.cls-10,.cls-7{fill:#8e0015;}.cls-8{fill:#af3c21;}.cls-9{clip-path:url(#clip-path-2);}.cls-10{opacity:0.2;}.cls-10,.cls-13{mix-blend-mode:multiply;}.cls-11,.cls-12{fill:#d62343;}.cls-11{opacity:0.76;mix-blend-mode:soft-light;}.cls-12{opacity:0.48;}.cls-13,.cls-21{fill:#91081a;}.cls-13{opacity:0.4;}.cls-14{fill:#ce1e29;}.cls-15{fill:#faf6ea;}.cls-16{fill:#d1274e;}.cls-17{fill:#f06f85;}.cls-18{fill:#f1dabb;}.cls-19{clip-path:url(#clip-path-3);}.cls-20{fill:#8c1322;}.cls-22{fill:#d82e3f;}.cls-23{clip-path:url(#clip-path-4);}.cls-24{fill:#fcecca;}.cls-25{clip-path:url(#clip-path-5);}.cls-26{fill:#ecb362;}.cls-27{fill:#efe0bb;}.cls-28{fill:#a81223;}.cls-29{fill:#bc0011;}.cls-30{fill:#d87982;}.cls-31{fill:#c21528;}.cls-32{fill:#d60013;}.cls-33{fill:#f28791;}.cls-34{fill:#de1840;}.cls-35{fill:#ec002a;}.cls-36{fill:#ff8ea3;}.cls-37{fill:#de263a;}.cls-38{fill:#ec0f22;}.cls-39{fill:#ff9ea7;}.cls-40{fill:#a41222;}.cls-41{fill:#b80010;}.cls-42{fill:#d4767f;}.cls-43{fill:#8a0f1d;}.cls-44{fill:#9e000e;}.cls-45{fill:#ba6870;}.cls-46{fill:#de182e;}.cls-47{fill:#ec0015;}.cls-48{fill:#ff8e99;}.cls-49{fill:#fff;}.cls-50{fill:#c21537;}.cls-51{fill:#d60026;}.cls-52{fill:#f2879b;}.cls-53{opacity:0.46;}.cls-54{fill:#e27b50;}.cls-55{opacity:0.49;}.cls-56{opacity:0.53;}.cls-57{fill:#c7461f;}.cls-58{opacity:0.57;}</style><clipPath id="clip-path"><path class="cls-1" d="M73.24,12.49a11.33,11.33,0,0,1,2.05,2.6c1.37,2.7,2.39,4.7.7,7.22-1,1.44-3.88,1.94-5.63,2-16,.28-24.29,6.37-27,16.18-1.09,3.9-2.68,13.51,1.72,23a23.86,23.86,0,0,0,4.12,5.91c6,6.58,15.56,8.41,24.45,8.88,6.59.34,11.78-.45,18.68-5.38a24.54,24.54,0,0,0,9.29-12.95c2.13-7.83,3.8-17-4.08-27.44-6.51-8.59-10.67-4-9.86-8.72.69-4,4.78-5.7,8.59-7.18A9.23,9.23,0,0,0,94.57,16a5.75,5.75,0,0,0-2-.26c-1.09.07-.54-.07-1.5.45a25.33,25.33,0,0,0-.83-5.86c-2.11,1.47-5.55,4.62-5.63,4.31A13.13,13.13,0,0,0,81,8.34c-.35,1.52-.68,3.23-1,4.75-.18.77-.71,1.91-.83,1.74a7.32,7.32,0,0,0-2.8-2.56C75.12,11.75,72.85,12.39,73.24,12.49Z"/></clipPath><clipPath id="clip-path-2"><path class="cls-2" d="M73.24,12.49a11.33,11.33,0,0,1,2.05,2.6c1.37,2.7,2.39,4.7.7,7.22-1,1.44-3.88,1.94-5.63,2-16,.28-24.29,6.37-27,16.18-1.09,3.9-2.68,13.51,1.72,23a23.86,23.86,0,0,0,4.12,5.91c6,6.58,15.56,8.41,24.45,8.88,6.59.34,11.78-.45,18.68-5.38a24.54,24.54,0,0,0,9.29-12.95c2.13-7.83,3.8-17-4.08-27.44-6.51-8.59-10.67-4-9.86-8.72.69-4,4.78-5.7,8.59-7.18A9.23,9.23,0,0,0,94.57,16a5.75,5.75,0,0,0-2-.26c-1.09.07-.54-.07-1.5.45a25.33,25.33,0,0,0-.83-5.86c-2.11,1.47-5.55,4.62-5.63,4.31A13.13,13.13,0,0,0,81,8.34c-.35,1.52-.68,3.23-1,4.75-.18.77-.71,1.91-.83,1.74a7.32,7.32,0,0,0-2.8-2.56C75.12,11.75,72.85,12.39,73.24,12.49Z"/></clipPath><clipPath id="clip-path-3"><path class="cls-2" d="M33.71,8.54c-.44.11-2.1,2.51-2.3,2.91-1.53,3-2.68,5.26-.79,8.07,1.09,1.62,4.35,2.17,6.3,2.21,17.95.31,27.16,7.12,30.21,18.09,1.21,4.36,3,15.11-1.93,25.68a26.43,26.43,0,0,1-4.6,6.6C53.89,79.46,43.2,81.51,33.26,82c-7.38.39-13.18-.5-20.89-6A27.46,27.46,0,0,1,2,61.54c-2.39-8.76-4.25-19,4.57-30.69,7.27-9.6,11.92-4.44,11-9.75-.77-4.5-5.34-6.37-9.6-8a11.23,11.23,0,0,1,1.89-.6,6.62,6.62,0,0,1,2.21-.29c1.22.08.6-.08,1.67.5a29.07,29.07,0,0,1,.93-6.55C17,7.77,20.87,11.29,21,11a14.58,14.58,0,0,1,4.14-7c.38,1.7.75,3.62,1.14,5.31.2.87.79,2.14.93,2A8.07,8.07,0,0,1,30.29,8.3C31.59,7.72,34.14,8.44,33.71,8.54Z"/></clipPath><clipPath id="clip-path-4"><path class="cls-2" d="M63.06,74.93a39.1,39.1,0,0,1,16.52-13.2c7.49-3.16,14-6.39,21.8-8.68,2.56-.75,6.86-2.43,8.08-.06.66,1.29-.56,4.24-1,5.62A37.91,37.91,0,0,1,80.27,83.5c-5.4,1-11,.89-16.45.73-2.67-.08-6.12-.84-6.4-3.49C59.77,78.5,61.17,77.57,63.06,74.93Z"/></clipPath><clipPath id="clip-path-5"><path class="cls-3" d="M41.75,70.83c-3.33,3-9.06,3.89-13.5,3.24a21.6,21.6,0,0,1-11.76-6.13C8.87,60.49,7.88,47.17,12,37.34c1.55-3.74,4.28-7.35,8.14-8.85,2.71-1.06,6.57-2.57,9.07-.61,1.33,1.05,1.35,2.76,1.1,4.44a12.61,12.61,0,0,1-1.61,4.77c-2.3,3.79-.94,5.26-.87,6.62.15,2.83,1.22,4.84,2.06,7.55.3,0-.25-4.23.5-5.59,1.5-2.69,2-2.48,2.4-4,.49-2,.2-2.32.79-4.25.52-1.68,2.38-2.66,3-4.32.33-.88.32-5,.92-5.74a3.68,3.68,0,0,1,2.69-1c4.79-.33,10.37,1.7,14.48,4.2,3.77,2.29,6.26,6.53,7.48,10.78s2.6,6.64.5,15.57C60.22,67.14,58.72,68.14,53,71.33,49.62,73.24,43,73.43,41.75,70.83Z"/></clipPath></defs><title>inepomegranate</title><g class="cls-4"><g id="Layer_2" data-name="Layer 2"><g id="Layer_1-2" data-name="Layer 1"><g id="Layer_26" data-name="Layer 26"><path class="cls-1" d="M73.24,12.49a11.33,11.33,0,0,1,2.05,2.6c1.37,2.7,2.39,4.7.7,7.22-1,1.44-3.88,1.94-5.63,2-16,.28-24.29,6.37-27,16.18-1.09,3.9-2.68,13.51,1.72,23a23.86,23.86,0,0,0,4.12,5.91c6,6.58,15.56,8.41,24.45,8.88,6.59.34,11.78-.45,18.68-5.38a24.54,24.54,0,0,0,9.29-12.95c2.13-7.83,3.8-17-4.08-27.44-6.51-8.59-10.67-4-9.86-8.72.69-4,4.78-5.7,8.59-7.18A9.23,9.23,0,0,0,94.57,16a5.75,5.75,0,0,0-2-.26c-1.09.07-.54-.07-1.5.45a25.33,25.33,0,0,0-.83-5.86c-2.11,1.47-5.55,4.62-5.63,4.31A13.13,13.13,0,0,0,81,8.34c-.35,1.52-.68,3.23-1,4.75-.18.77-.71,1.91-.83,1.74a7.32,7.32,0,0,0-2.8-2.56C75.12,11.75,72.85,12.39,73.24,12.49Z"/><g class="cls-5"><path class="cls-6" d="M97,31.89a27.51,27.51,0,0,0-5.65-5,24.94,24.94,0,0,0-2.22-1.32,5.7,5.7,0,0,1,.18-.83,10.25,10.25,0,0,1,3.29-4c1-.73,1.92-1.43,2.87-2.2.79-.65,1.59-1.3,2.44-1.89a1.41,1.41,0,0,0-.7-2.6,17.78,17.78,0,0,0-5.44.46,14.82,14.82,0,0,0-5.11,3.28c-2.7,2.39-5.94,7.34-4.17,11.06.28,3.24,1.89,5.9,3.81,8.48q.69.91,1.35,1.86c.48.76.91,1.54,1.31,2.34a22.27,22.27,0,0,1,.88,7.89,44.46,44.46,0,0,1-1.57,7.29c-.64,2.5-1.3,5-1.94,7.51-1,3.89,4.28,5.45,6,2.26a3.78,3.78,0,0,0,1.63-.61,3.2,3.2,0,0,0,3.63-2.39c.81,3,6.12,3,6.65-.27C106,52.13,104.38,40.62,97,31.89Zm-8.68-6.75L87.94,25Z"/><path class="cls-7" d="M80,16.89c-.66-3.7-3.5-8.14-7.34-9.06a1.37,1.37,0,0,0-1.53,2c.31.55.65,1.07,1,1.6a2.55,2.55,0,0,0-2.1.42,3.19,3.19,0,0,0-1.63.41,3.29,3.29,0,0,0-1.15,4.4l.11.24c.75,2-1.53,4-3.29,4.91a23,23,0,0,1-3.49,1.41,3.58,3.58,0,0,0-2.2-.34,8.55,8.55,0,0,0-5.59,3.71,3,3,0,0,0-.1,2.94,3.28,3.28,0,0,0,3,4c-2,3.36-4.16,7.67-1.72,11.18,1.77,2.56,5.07,1.91,6.2-.81a28.93,28.93,0,0,1,5.92-9.58c2.71-2.69,6.35-3.47,9.42-5.56C79.49,26,80.79,21.53,80,16.89Z"/><path class="cls-8" d="M98,11.92a22.28,22.28,0,0,0-5.4-2.49,27.2,27.2,0,0,0-6.1-.72A26.81,26.81,0,0,1,80,8.09l-1.66-.47A3.3,3.3,0,0,0,77,7.2l-.57,0A11.33,11.33,0,0,0,75.12,7a2.86,2.86,0,0,0-1-.05c-.13,0-.25,0-.37.06l-.7.09c-1.63.26-2.29,2.44-1.51,3.73a3.43,3.43,0,0,0,3.26,1.72A21.43,21.43,0,0,1,78,14.19c1.65,1.14,2.85,2.86,4.84,3.47,2.22.67,4.32-.1,6.52-.4a31.35,31.35,0,0,1,7.18,0C99.4,17.49,100.28,13.24,98,11.92Z"/></g><g class="cls-9"><path class="cls-10" d="M69.88,17.07c.71.6,1.44,1.16,2.19,1.69a3.43,3.43,0,0,0,.76,2.92c.27.33.55.65.85.95.64,2,3,3.07,5.1,3.73a11.88,11.88,0,0,0,6.12.4c1.84-.19,3.55-.88,4.31-2.56a3.7,3.7,0,0,0,.35-1.4,11.15,11.15,0,0,0,4.37-.66,3.48,3.48,0,0,0,2.43-2.82,2.29,2.29,0,0,1,0-.25,3.5,3.5,0,0,0,2.05-1.9,3.94,3.94,0,0,0,.24-.89,3.66,3.66,0,0,0,.21-.55,3.33,3.33,0,0,0-2.27-4A27,27,0,0,1,93.13,10a3.42,3.42,0,0,0-4.06.52c-1.41-.34-2.82-.64-4.25-.91a29.45,29.45,0,0,0-9.6-1.22,3,3,0,0,0-2.94,2.94c0,.13,0,.25,0,.36C69.71,11.3,67.76,15.26,69.88,17.07Z"/><path class="cls-11" d="M97.7,25a3.82,3.82,0,0,0-1.3-.49A1.54,1.54,0,0,0,94.47,26a6,6,0,0,1-1.06,4.2,9.3,9.3,0,0,0-2.34,1.44,27.83,27.83,0,0,1-4.54.95,35.39,35.39,0,0,1-4,.52c-1.61.11-3.39-.15-5,.28a6.68,6.68,0,0,0-4.74,6.85c.33,6.35,6.89,9.06,12.45,8.54a20.29,20.29,0,0,0,13.14-6.58c3.55-4,7.46-11.75,2.9-16.36A3.6,3.6,0,0,0,97.7,25Z"/><path class="cls-12" d="M93.65,50a9.16,9.16,0,0,0-6.41.87,33.73,33.73,0,0,0-5.11,2.62,6.19,6.19,0,0,0-2.8,5.24c.07,1.46.92,3.35,2.37,3.84a1,1,0,0,0,1.14-.6,3.65,3.65,0,0,0,2.64,1.24,27.34,27.34,0,0,0,6.9-1c2-.53,4.42-1,5.89-2.47a5.4,5.4,0,0,0,.68-6.3A7.61,7.61,0,0,0,93.65,50Z"/><path class="cls-13" d="M69.5,53.05A34.39,34.39,0,0,1,66.22,48a35.44,35.44,0,0,1-3.95-12.36A38.71,38.71,0,0,1,62,28.47c.13-2.2.16-4.44,1.37-6.37,1.45-2.31-2-5-3.83-3a11.4,11.4,0,0,0-1.2,1.61,3.63,3.63,0,0,0-1.24-1.13,3.52,3.52,0,0,0-3.36-2.47c-7.31.79-11.23,7.29-14.22,13.32-3.35,6.75-5.35,14-3.88,21.5a51.82,51.82,0,0,0,3.65,10.59,48.21,48.21,0,0,0,5,8.89,28.63,28.63,0,0,0,7.17,7.43,9.21,9.21,0,0,0,6.66,1.28,8,8,0,0,0,6.47.94c4.43-1.18,8.06-5.35,10.12-9.27,2.49-4.74,2.77-10-.93-14.14C72.39,56.11,70.81,54.71,69.5,53.05Z"/></g><path class="cls-14" d="M33.71,8.54c-.44.11-2.1,2.51-2.3,2.91-1.53,3-2.68,5.26-.79,8.07,1.09,1.62,4.35,2.17,6.3,2.21,17.95.31,27.16,7.12,30.21,18.09,1.21,4.36,3,15.11-1.93,25.68a26.43,26.43,0,0,1-4.6,6.6C53.89,79.46,43.2,81.51,33.26,82c-7.38.39-13.18-.5-20.89-6A27.46,27.46,0,0,1,2,61.54c-2.39-8.76-4.25-19,4.57-30.69,7.27-9.6,11.92-4.44,11-9.75-.77-4.5-5.34-6.37-9.6-8a11.23,11.23,0,0,1,1.89-.6,6.62,6.62,0,0,1,2.21-.29c1.22.08.6-.08,1.67.5a29.07,29.07,0,0,1,.93-6.55C17,7.77,20.87,11.29,21,11a14.58,14.58,0,0,1,4.14-7c.38,1.7.75,3.62,1.14,5.31.2.87.79,2.14.93,2A8.07,8.07,0,0,1,30.29,8.3C31.59,7.72,34.14,8.44,33.71,8.54Z"/><path class="cls-15" d="M41.75,70.83c-3.33,3-9.06,3.89-13.5,3.24a21.6,21.6,0,0,1-11.76-6.13C8.87,60.49,7.88,47.17,12,37.34c1.55-3.74,4.28-7.35,8.14-8.85,2.71-1.06,6.57-2.57,9.07-.61,1.33,1.05,1.35,2.76,1.1,4.44a12.61,12.61,0,0,1-1.61,4.77c-2.3,3.79-.94,5.26-.87,6.62.15,2.83,1.22,4.84,2.06,7.55.3,0-.25-4.23.5-5.59,1.5-2.69,2-2.48,2.4-4,.49-2,.2-2.32.79-4.25.52-1.68,2.38-2.66,3-4.32.33-.88.32-5,.92-5.74a3.68,3.68,0,0,1,2.69-1c4.79-.33,10.37,1.7,14.48,4.2,3.77,2.29,6.26,6.53,7.48,10.78s2.6,6.64.5,15.57C60.22,67.14,58.72,68.14,53,71.33,49.62,73.24,43,73.43,41.75,70.83Z"/><path class="cls-16" d="M87,77.68a46.17,46.17,0,0,0,22.81-24.43c2,3,.74,7-.91,10.13A43.39,43.39,0,0,1,85.3,84.18a38.67,38.67,0,0,1-14.7,2.11c-2.25-.11-13.37-1.94-13.29-5.19,0-1.14,11.86,1,14,.83A45.75,45.75,0,0,0,87,77.68Z"/><path class="cls-3" d="M63.06,74.93a39.1,39.1,0,0,1,16.52-13.2c7.49-3.16,14-6.39,21.8-8.68,2.56-.75,6.86-2.43,8.08-.06.66,1.29-.56,4.24-1,5.62A37.91,37.91,0,0,1,80.27,83.5c-5.4,1-11,.89-16.45.73-2.67-.08-6.12-.84-6.4-3.49C59.77,78.5,61.17,77.57,63.06,74.93Z"/><path class="cls-17" d="M42.22,72.73C38.58,76,32.33,77,27.47,76.27a23.63,23.63,0,0,1-12.85-6.7C6.3,61.43,5.21,46.88,9.68,36.14c1.7-4.08,4.68-8,8.9-9.68,3-1.15,7.18-2.8,9.9-.66,1.46,1.15,8.4.23,9.05-.56a4,4,0,0,1,2.94-1c5.24-.37,11.33,1.86,15.82,4.58,4.13,2.51,6.84,7.14,8.18,11.78s2.84,7.26.55,17C62.4,68.7,60.76,69.79,54.54,73.28,50.82,75.37,43.64,75.57,42.22,72.73Z"/><path class="cls-18" d="M42,72c-3.51,3.2-9.56,4.11-14.26,3.42a22.75,22.75,0,0,1-12.42-6.48C7.3,61.07,6.25,47,10.57,36.6c1.64-3.94,4.53-7.76,8.61-9.35,2.86-1.12,6.94-2.71,9.57-.64,1.42,1.11,8.13.22,8.75-.54a3.9,3.9,0,0,1,2.85-1c5.06-.35,10.95,1.8,15.29,4.43,4,2.42,6.62,6.91,7.92,11.39s2.74,7,.52,16.46C61.55,68.09,60,69.15,54,72.52,50.36,74.54,43.41,74.74,42,72Z"/><g class="cls-19"><path class="cls-20" d="M30.94,4.91c-1.39.33-2.83-.46-4.17-.76A14.11,14.11,0,0,0,21.71,4a62.27,62.27,0,0,0-9.56,2.51,2.48,2.48,0,0,0-1.49,3.2c-.49.15-1,.34-1.51.56a.72.72,0,0,0,0,1.37c1.28.38,2.52.79,3.82,1.14a27.24,27.24,0,0,1,3.42,1.1c2.13.9,4.12,2.9,6.57,2.6,2.11-.26,3.39-2,4.5-3.59a11.25,11.25,0,0,1,5.08-4.19C34.78,7.77,33.14,4.38,30.94,4.91Z"/><path class="cls-21" d="M5.21,15.12c1.63.81,3.27,1.61,4.83,2.56,1.14.7,3.12,2.1,3.08,3.64,0,1.2-1.39,2.17-2.2,2.86a32.89,32.89,0,0,0-4.2,3.71C1.06,34.44.15,43.4.54,51.72c.39,8.12,2.39,16.19,7.87,22.42,4.87,5.53,11.9,9.14,19,10.7a52.21,52.21,0,0,0,14.76.94c2.65-.19,5.29-.54,7.91-1,2.3-.39,5-1.41,6.2-3.48a1.25,1.25,0,0,0-.43-1.67c-1.77-1.16-4.24-1.14-6.28-.82s-4.36.72-6.58.92a48.82,48.82,0,0,1-12.89-.36c-6.82-1.22-13.4-4.3-18-9.62C7,63.83,5.86,55.64,5.79,48.06A30.54,30.54,0,0,1,7.73,35.89c1.43-3.35,3.71-5.58,6.47-7.84,3.24-2.66,5.32-6.61,2.5-10.45C14.25,14.26,9.46,12,5.42,13.54c-.63.24-.93,1.21-.21,1.58Z"/><path class="cls-22" d="M31,17c-.67,2,1.72,3.6,3.28,4.28,2.79,1.21,6,1.57,9,2.15,5.54,1.1,11.48,1.5,15.87,5.44,8.91,8,8.37,21,6.32,31.72a30.22,30.22,0,0,1-2.9,9.05,20.82,20.82,0,0,1-2.81,4c-1.12,1.25-2.55,2.29-3.28,3.83s.45,3.34,2.15,2.8c2.89-.92,5.54-4,7.34-6.31a24.12,24.12,0,0,0,3.83-8.25,58.74,58.74,0,0,0,2-19.87A31.62,31.62,0,0,0,65.93,29.1a23.19,23.19,0,0,0-14.35-9c-3.87-.78-7.83-1.27-11.75-1.75-1.62-.2-3.24-.33-4.85-.52a34,34,0,0,1-3.66-1A.27.27,0,0,0,31,17Z"/></g><g class="cls-23"><path class="cls-24" d="M110.39,52.86A7.55,7.55,0,0,0,107,49.12a3.91,3.91,0,0,0-4.32.43,7.8,7.8,0,0,0-1.31-1.65,3.28,3.28,0,0,0-5.42,1.43c-1.55,4.78-1.49,9.82-3.76,14.41a29.06,29.06,0,0,1-8.31,10.14,34.93,34.93,0,0,1-13.22,6C66,81,60.7,82,56,80.61c-.89-.26-1.3.8-.82,1.42,1.86,2.41,5.09,3.23,8.21,3.57l-.09.19a3.25,3.25,0,0,0,1.32,4c3.64,2.4,8.27,1.52,12.24.54a44.59,44.59,0,0,0,9.83-3.78,52.91,52.91,0,0,0,16-13.11,56.09,56.09,0,0,0,6-8.79C110.79,61,112.19,56.9,110.39,52.86Zm-6.14,2Z"/></g><path class="cls-3" d="M41.75,70.83c-3.33,3-9.06,3.89-13.5,3.24a21.6,21.6,0,0,1-11.76-6.13C8.87,60.49,7.88,47.17,12,37.34c1.55-3.74,4.28-7.35,8.14-8.85,2.71-1.06,6.57-2.57,9.07-.61,1.33,1.05,1.35,2.76,1.1,4.44a12.61,12.61,0,0,1-1.61,4.77c-2.3,3.79-.94,5.26-.87,6.62.15,2.83,1.22,4.84,2.06,7.55.3,0-.25-4.23.5-5.59,1.5-2.69,2-2.48,2.4-4,.49-2,.2-2.32.79-4.25.52-1.68,2.38-2.66,3-4.32.33-.88.32-5,.92-5.74a3.68,3.68,0,0,1,2.69-1c4.79-.33,10.37,1.7,14.48,4.2,3.77,2.29,6.26,6.53,7.48,10.78s2.6,6.64.5,15.57C60.22,67.14,58.72,68.14,53,71.33,49.62,73.24,43,73.43,41.75,70.83Z"/><g class="cls-25"><path class="cls-26" d="M32.68,28.63a11.71,11.71,0,0,0,3.4.28,20.44,20.44,0,0,1,4.17.71A66,66,0,0,1,47,31.67C51,33.11,55,35.49,57.44,39c2.86,4.08,3.53,9.11,3.2,14S59.15,63.11,56.3,67.15a11.28,11.28,0,0,1-5.43,4.22,9.76,9.76,0,0,1-3.43.56,13,13,0,0,1-1.66-.21c-.73-.11-1.43,0-2.16-.07-1.71-.17-2.52,2.22-1.38,3.32A6.58,6.58,0,0,0,46,77a13.38,13.38,0,0,0,4.55-.11A16.15,16.15,0,0,0,58.15,73c4.56-4,6.6-10.26,7.49-16.08,1-6.29.79-12.91-2.27-18.65-2.7-5.06-7.43-8.51-12.66-10.63a35,35,0,0,0-9.07-2.25c-2.7-.32-7.9-.82-9.43,2.09a.8.8,0,0,0,.47,1.15Z"/><path class="cls-27" d="M39.07,72.24a43,43,0,0,1-6.25-3,24,24,0,0,1-2.7-2.64,22.39,22.39,0,0,1-3.82-7.56,89.46,89.46,0,0,1-3.17-11.68A28.71,28.71,0,0,1,27.45,32a3.2,3.2,0,0,0,1.22-1L30,29.35a2,2,0,0,0,.55-.71L31,28c1.28-1.66-.86-4.39-2.79-3.63a8.27,8.27,0,0,0-1.51.79.93.93,0,0,0-1-.47c-1,.15-2,.39-3,.63a9.93,9.93,0,0,0-3.15,1.62,22.29,22.29,0,0,0-5,4.54,25.24,25.24,0,0,0-5.23,13.2c-.9,9.09,1.26,20.31,8.63,26.4,4.52,3.72,10.24,5.16,16,5.25l.11.08a1.93,1.93,0,0,0,1.31.34c.77.23,1.54.43,2.31.59A2.64,2.64,0,0,0,39.07,72.24Z"/></g><path class="cls-28" d="M21.66,69.16c.38-1.92,3.91-2.36,4.48-.32s.24,3.5-1.63,4.15S21.25,71.2,21.66,69.16Z"/><path class="cls-29" d="M22.52,69.19c.19-.94,1.91-1.16,2.19-.16s.12,1.71-.8,2S22.32,70.19,22.52,69.19Z"/><path class="cls-30" d="M22.75,69.09c.11-.55,1.12-.67,1.28-.09s.07,1-.47,1.19S22.63,69.68,22.75,69.09Z"/><path class="cls-31" d="M20.29,65.17c.39-1.92,3.91-2.36,4.48-.33S25,68.35,23.15,69,19.89,67.21,20.29,65.17Z"/><path class="cls-32" d="M21.15,65.2c.19-1,1.92-1.16,2.2-.16s.12,1.71-.8,2S21,66.19,21.15,65.2Z"/><path class="cls-33" d="M21.38,65.1c.11-.55,1.12-.67,1.29-.09s.07,1-.47,1.19S21.27,65.68,21.38,65.1Z"/><path class="cls-31" d="M18.49,64.71c1.74-.89,4.27,1.6,3,3.31s-2.59,2.36-4.27,1.3S16.64,65.65,18.49,64.71Z"/><path class="cls-32" d="M19,65.4c.85-.44,2.09.78,1.48,1.62s-1.27,1.16-2.09.64S18.09,65.86,19,65.4Z"/><path class="cls-33" d="M19.22,65.52c.5-.25,1.22.46.86,1s-.74.67-1.22.37S18.69,65.79,19.22,65.52Z"/><path class="cls-31" d="M15.61,65c-1.12-1.61,1-4.46,2.87-3.46s2.69,2.26,1.86,4.06S16.79,66.66,15.61,65Z"/><path class="cls-32" d="M16.22,64.36c-.55-.79.5-2.18,1.41-1.69s1.32,1.1.91,2S16.8,65.19,16.22,64.36Z"/><path class="cls-33" d="M16.31,64.12c-.32-.46.29-1.27.82-1s.77.64.54,1.16S16.65,64.61,16.31,64.12Z"/><path class="cls-31" d="M18.45,60.72c.23-1.95,3.71-2.66,4.44-.67s.51,3.47-1.3,4.26S18.2,62.78,18.45,60.72Z"/><path class="cls-32" d="M19.31,60.68c.11-1,1.82-1.3,2.17-.33s.25,1.7-.64,2.09S19.19,61.69,19.31,60.68Z"/><path class="cls-33" d="M19.53,60.57c.07-.56,1.06-.76,1.27-.2s.15,1-.37,1.22S19.46,61.16,19.53,60.57Z"/><path class="cls-31" d="M11.53,58.58c.24-1.95,3.72-2.66,4.45-.68s.51,3.48-1.31,4.27S11.29,60.64,11.53,58.58Z"/><path class="cls-32" d="M12.39,58.54c.12-1,1.82-1.3,2.18-.33s.25,1.7-.64,2.09S12.27,59.55,12.39,58.54Z"/><path class="cls-33" d="M12.62,58.42c.06-.55,1.06-.76,1.27-.19s.14,1-.38,1.22S12.54,59,12.62,58.42Z"/><path class="cls-31" d="M14.86,58.31c.23-2,3.71-2.66,4.44-.67s.51,3.47-1.3,4.26S14.61,60.37,14.86,58.31Z"/><path class="cls-32" d="M15.72,58.27c.11-1,1.82-1.3,2.17-.33s.25,1.7-.64,2.09S15.6,59.28,15.72,58.27Z"/><path class="cls-33" d="M15.94,58.16C16,57.6,17,57.4,17.21,58s.15,1-.37,1.22S15.87,58.74,15.94,58.16Z"/><path class="cls-31" d="M8.63,53c.23-2,3.71-2.65,4.44-.67s.51,3.47-1.31,4.27S8.38,55,8.63,53Z"/><path class="cls-32" d="M9.48,52.91c.12-.95,1.82-1.3,2.18-.33s.25,1.7-.64,2.09S9.36,53.92,9.48,52.91Z"/><path class="cls-33" d="M9.71,52.8c.06-.56,1.06-.76,1.27-.19s.14,1-.38,1.22S9.64,53.39,9.71,52.8Z"/><path class="cls-31" d="M13.19,55.82c-1.4-1.37.16-4.56,2.18-3.93S18.44,53.6,18,55.53,14.68,57.27,13.19,55.82Z"/><path class="cls-32" d="M13.69,55.11c-.69-.67.07-2.23,1.06-1.92S16.25,54,16,55,14.41,55.83,13.69,55.11Z"/><path class="cls-33" d="M13.73,54.87c-.4-.39,0-1.31.62-1.12s.88.49.74,1S14.16,55.29,13.73,54.87Z"/><path class="cls-31" d="M11.25,51.15c-1.4-1.38.16-4.57,2.17-3.93s3.07,1.71,2.59,3.63S12.73,52.6,11.25,51.15Z"/><path class="cls-32" d="M11.74,50.44c-.69-.67.08-2.23,1.06-1.92s1.5.84,1.27,1.78S12.46,51.15,11.74,50.44Z"/><path class="cls-33" d="M11.78,50.2c-.4-.4.05-1.31.63-1.13s.87.49.74,1S12.21,50.61,11.78,50.2Z"/><path class="cls-28" d="M10,46.76c-1.4-1.37.16-4.56,2.18-3.93s3.06,1.72,2.58,3.64S11.46,48.22,10,46.76Z"/><path class="cls-29" d="M10.47,46.06c-.68-.67.08-2.24,1.07-1.92S13,45,12.8,45.92,11.2,46.77,10.47,46.06Z"/><path class="cls-30" d="M10.52,45.81c-.4-.39,0-1.3.62-1.12s.88.49.74,1S10.94,46.23,10.52,45.81Z"/><path class="cls-31" d="M14.85,48.61c-1.4-1.37.16-4.56,2.18-3.92s3.06,1.71,2.58,3.63S16.33,50.07,14.85,48.61Z"/><path class="cls-32" d="M15.34,47.91c-.68-.67.08-2.24,1.07-1.92s1.5.83,1.26,1.78S16.07,48.62,15.34,47.91Z"/><path class="cls-33" d="M15.39,47.66c-.4-.39,0-1.3.62-1.12s.88.49.74,1S15.81,48.08,15.39,47.66Z"/><path class="cls-31" d="M11.64,42.09c-1.4-1.37.16-4.57,2.17-3.93s3.07,1.71,2.59,3.64S13.12,43.54,11.64,42.09Z"/><path class="cls-32" d="M12.13,41.38c-.69-.67.08-2.23,1.06-1.92s1.5.84,1.27,1.78S12.85,42.1,12.13,41.38Z"/><path class="cls-33" d="M12.17,41.14c-.4-.39.05-1.31.63-1.12s.87.49.74,1S12.6,41.56,12.17,41.14Z"/><path class="cls-31" d="M13.67,41.77c.88-1.75,4.39-1.24,4.4.87s-.69,3.45-2.67,3.58S12.74,43.63,13.67,41.77Z"/><path class="cls-32" d="M14.49,42c.43-.86,2.15-.61,2.16.42s-.34,1.69-1.31,1.75S14,42.93,14.49,42Z"/><path class="cls-33" d="M14.74,42c.25-.5,1.25-.35,1.26.25s-.2,1-.77,1S14.47,42.53,14.74,42Z"/><path class="cls-34" d="M13.38,35.25c.88-1.75,4.39-1.24,4.4.87s-.69,3.44-2.67,3.57S12.44,37.1,13.38,35.25Z"/><path class="cls-35" d="M14.2,35.5c.43-.86,2.15-.61,2.15.43s-.33,1.68-1.3,1.75S13.74,36.41,14.2,35.5Z"/><path class="cls-36" d="M14.44,35.47c.26-.5,1.26-.36,1.26.25s-.19,1-.76,1S14.18,36,14.44,35.47Z"/><path class="cls-37" d="M15.42,38.07c.88-1.75,4.4-1.24,4.41.87s-.7,3.45-2.67,3.58S14.49,39.93,15.42,38.07Z"/><path class="cls-38" d="M16.24,38.33c.43-.86,2.15-.61,2.16.42s-.34,1.69-1.31,1.75S15.79,39.23,16.24,38.33Z"/><path class="cls-39" d="M16.49,38.29c.25-.5,1.26-.35,1.26.25s-.2,1-.76,1S16.22,38.82,16.49,38.29Z"/><path class="cls-31" d="M16.59,32.42c.88-1.75,4.39-1.24,4.41.88s-.7,3.44-2.68,3.57S15.66,34.28,16.59,32.42Z"/><path class="cls-32" d="M17.41,32.68c.43-.86,2.15-.61,2.16.42s-.34,1.69-1.31,1.75S17,33.59,17.41,32.68Z"/><path class="cls-33" d="M17.66,32.65c.25-.51,1.26-.36,1.26.25s-.2,1-.77,1S17.39,33.18,17.66,32.65Z"/><path class="cls-31" d="M26.57,29.47c.88-1.75,4.4-1.24,4.41.87s-.69,3.44-2.67,3.58S25.64,31.32,26.57,29.47Z"/><path class="cls-32" d="M27.4,29.72c.43-.86,2.15-.61,2.15.43s-.34,1.68-1.31,1.75S26.94,30.63,27.4,29.72Z"/><path class="cls-33" d="M27.64,29.69c.25-.5,1.26-.35,1.26.25s-.2,1-.76,1S27.38,30.22,27.64,29.69Z"/><path class="cls-31" d="M21.85,29.5c.88-1.75,4.39-1.24,4.4.88s-.69,3.44-2.67,3.57S20.92,31.36,21.85,29.5Z"/><path class="cls-32" d="M22.67,29.76c.43-.86,2.15-.61,2.16.42s-.34,1.69-1.31,1.75S22.21,30.66,22.67,29.76Z"/><path class="cls-33" d="M22.92,29.72c.25-.5,1.25-.35,1.26.25s-.2,1-.77,1S22.65,30.26,22.92,29.72Z"/><path class="cls-31" d="M24.71,34.65c-.86-1.77,1.68-4.25,3.36-3S30.39,34.31,29.3,36,25.62,36.51,24.71,34.65Z"/><path class="cls-32" d="M25.41,34.15c-.42-.87.82-2.08,1.65-1.46s1.13,1.29.59,2.1S25.85,35.06,25.41,34.15Z"/><path class="cls-33" d="M25.53,33.93c-.24-.5.48-1.21,1-.85s.66.76.35,1.23S25.79,34.47,25.53,33.93Z"/><path class="cls-28" d="M19.5,35.72c-.86-1.77,1.68-4.25,3.36-3s2.32,2.64,1.23,4.29S20.41,37.58,19.5,35.72Z"/><path class="cls-29" d="M20.2,35.22c-.42-.87.82-2.08,1.65-1.46s1.13,1.29.59,2.1S20.64,36.13,20.2,35.22Z"/><path class="cls-30" d="M20.32,35c-.24-.5.48-1.21,1-.85s.66.76.35,1.23S20.58,35.54,20.32,35Z"/><path class="cls-40" d="M18.84,35.32c1.32-1.45,4.56,0,4,2s-1.61,3.12-3.55,2.71S17.43,36.85,18.84,35.32Z"/><path class="cls-41" d="M19.56,35.78c.65-.7,2.23,0,2,1s-.79,1.52-1.74,1.32S18.87,36.53,19.56,35.78Z"/><path class="cls-42" d="M19.8,35.82c.38-.41,1.31,0,1.15.59s-.46.89-1,.77S19.4,36.26,19.8,35.82Z"/><path class="cls-31" d="M24.27,35.56c1.32-1.45,4.56,0,4,2s-1.6,3.13-3.54,2.71S22.86,37.09,24.27,35.56Z"/><path class="cls-32" d="M25,36c.65-.71,2.23,0,2,1s-.78,1.53-1.73,1.32S24.3,36.78,25,36Z"/><path class="cls-33" d="M25.23,36.07c.38-.42,1.31,0,1.15.58s-.46.89-1,.78S24.83,36.5,25.23,36.07Z"/><path class="cls-31" d="M18.89,41.21c1.32-1.45,4.56,0,4,2s-1.6,3.12-3.54,2.71S17.48,42.74,18.89,41.21Z"/><path class="cls-32" d="M19.61,41.68c.65-.71,2.23,0,1.95,1S20.78,44.2,19.83,44,18.92,42.42,19.61,41.68Z"/><path class="cls-33" d="M19.85,41.71c.38-.41,1.31,0,1.15.59s-.46.89-1,.77S19.45,42.15,19.85,41.71Z"/><path class="cls-31" d="M23.56,39.28c1.32-1.45,4.56,0,4,2S26,44.45,24,44,22.15,40.81,23.56,39.28Z"/><path class="cls-32" d="M24.28,39.75c.65-.71,2.23,0,1.95,1s-.78,1.53-1.73,1.32S23.59,40.5,24.28,39.75Z"/><path class="cls-33" d="M24.52,39.79c.38-.42,1.31,0,1.15.58s-.46.89-1,.77S24.12,40.22,24.52,39.79Z"/><path class="cls-31" d="M21.1,44.85c1.32-1.44,4.56,0,4,2S23.49,50,21.55,49.61,19.69,46.38,21.1,44.85Z"/><path class="cls-32" d="M21.82,45.32c.65-.7,2.23,0,1.95,1S23,47.85,22,47.65,21.13,46.07,21.82,45.32Z"/><path class="cls-33" d="M22.06,45.36c.38-.41,1.31,0,1.15.59s-.46.89-1,.77S21.66,45.8,22.06,45.36Z"/><path class="cls-31" d="M15.64,48.55c1.33-1.44,4.57,0,4,2.05S18,53.72,16.09,53.31,14.24,50.08,15.64,48.55Z"/><path class="cls-32" d="M16.36,49c.65-.7,2.24,0,2,1s-.79,1.53-1.74,1.33S15.68,49.77,16.36,49Z"/><path class="cls-33" d="M16.61,49.06c.38-.41,1.31,0,1.14.59s-.46.89-1,.77S16.21,49.5,16.61,49.06Z"/><path class="cls-31" d="M22,48.07c1.33-1.45,4.57,0,4,2s-1.61,3.12-3.55,2.71S20.57,49.6,22,48.07Z"/><path class="cls-32" d="M22.69,48.54c.65-.71,2.24,0,2,1s-.79,1.52-1.74,1.32S22,49.28,22.69,48.54Z"/><path class="cls-33" d="M22.94,48.57c.38-.41,1.31,0,1.14.59s-.46.89-1,.77S22.54,49,22.94,48.57Z"/><path class="cls-31" d="M24.86,41.75c1.95-.17,3.36,3.09,1.57,4.21s-3.29,1.22-4.44-.4S22.79,41.93,24.86,41.75Z"/><path class="cls-32" d="M25.08,42.58c1-.08,1.64,1.52.76,2.06s-1.61.6-2.17-.19S24.06,42.67,25.08,42.58Z"/><path class="cls-33" d="M25.23,42.78c.56-.05,1,.88.45,1.2s-.94.35-1.27-.11S24.64,42.83,25.23,42.78Z"/><path class="cls-31" d="M22.6,37.15c1.95-.17,3.36,3.09,1.57,4.21s-3.3,1.22-4.45-.4S20.53,37.33,22.6,37.15Z"/><path class="cls-32" d="M22.81,38c1-.08,1.65,1.52.77,2.06s-1.61.6-2.18-.19S21.8,38.07,22.81,38Z"/><path class="cls-33" d="M23,38.18c.56,0,1,.88.45,1.2s-1,.35-1.27-.11S22.38,38.23,23,38.18Z"/><path class="cls-40" d="M20,44c2-.17,3.36,3.09,1.57,4.2s-3.3,1.22-4.45-.39S17.9,44.2,20,44Z"/><path class="cls-41" d="M20.18,44.85c1-.08,1.65,1.51.77,2.06s-1.61.59-2.17-.2S19.17,44.94,20.18,44.85Z"/><path class="cls-42" d="M20.34,45c.56,0,1,.89.45,1.21s-.94.34-1.27-.12S19.75,45.09,20.34,45Z"/><path class="cls-31" d="M18.14,40.58c1.95-.17,3.36,3.09,1.57,4.21s-3.29,1.22-4.44-.4S16.07,40.76,18.14,40.58Z"/><path class="cls-32" d="M18.36,41.42c.95-.09,1.64,1.51.76,2.06s-1.61.59-2.17-.2S17.34,41.5,18.36,41.42Z"/><path class="cls-33" d="M18.51,41.61c.56,0,1,.88.45,1.2s-.94.35-1.27-.11S17.92,41.66,18.51,41.61Z"/><path class="cls-31" d="M19.82,51.13c1.95-.17,3.36,3.09,1.57,4.21s-3.29,1.21-4.45-.4S17.75,51.31,19.82,51.13Z"/><path class="cls-32" d="M20,52c1-.08,1.65,1.51.77,2.06s-1.61.6-2.17-.19S19,52.05,20,52Z"/><path class="cls-33" d="M20.19,52.15c.56,0,1,.89.45,1.21s-.94.35-1.27-.12S19.6,52.21,20.19,52.15Z"/><path class="cls-31" d="M13.1,53.68c2-.17,3.36,3.09,1.57,4.21s-3.29,1.22-4.44-.4S11,53.86,13.1,53.68Z"/><path class="cls-32" d="M13.32,54.52c.95-.09,1.64,1.51.76,2.06s-1.61.59-2.17-.2S12.3,54.6,13.32,54.52Z"/><path class="cls-33" d="M13.47,54.71c.56-.05,1,.88.45,1.2s-.94.35-1.27-.11S12.88,54.76,13.47,54.71Z"/><path class="cls-40" d="M14.2,49.52c1.95-.17,3.36,3.09,1.57,4.21s-3.3,1.22-4.45-.4S12.13,49.7,14.2,49.52Z"/><path class="cls-41" d="M14.41,50.35c1-.08,1.65,1.52.77,2.06s-1.61.6-2.18-.19S13.4,50.44,14.41,50.35Z"/><path class="cls-42" d="M14.57,50.55c.56,0,1,.88.45,1.2s-.95.35-1.28-.11S14,50.6,14.57,50.55Z"/><path class="cls-31" d="M25,51.13c2-.17,3.37,3.09,1.57,4.21s-3.29,1.21-4.44-.4S22.94,51.31,25,51.13Z"/><path class="cls-32" d="M25.22,52c1-.08,1.65,1.51.77,2.06s-1.61.6-2.18-.19S24.21,52.05,25.22,52Z"/><path class="cls-33" d="M25.38,52.15c.55,0,1,.89.45,1.21s-.95.35-1.28-.12S24.78,52.21,25.38,52.15Z"/><path class="cls-31" d="M22.37,52.1c2-.17,3.37,3.09,1.57,4.21s-3.29,1.22-4.44-.4S20.31,52.28,22.37,52.1Z"/><path class="cls-32" d="M22.59,52.93c1-.08,1.65,1.52.77,2.06s-1.61.6-2.18-.19S21.58,53,22.59,52.93Z"/><path class="cls-33" d="M22.75,53.13c.56-.05,1,.88.45,1.2s-.95.35-1.28-.11S22.15,53.18,22.75,53.13Z"/><path class="cls-43" d="M20.33,53.54c2-.17,3.36,3.09,1.57,4.21s-3.29,1.21-4.44-.4S18.26,53.72,20.33,53.54Z"/><path class="cls-44" d="M20.55,54.37c.95-.08,1.64,1.51.76,2.06s-1.61.6-2.17-.19S19.53,54.46,20.55,54.37Z"/><path class="cls-45" d="M20.7,54.56c.56,0,1,.89.45,1.21s-.94.35-1.27-.12S20.11,54.62,20.7,54.56Z"/><path class="cls-31" d="M20.87,56.51c1.95-.17,3.36,3.09,1.57,4.21s-3.3,1.21-4.45-.4S18.8,56.69,20.87,56.51Z"/><path class="cls-32" d="M21.08,57.34c1-.08,1.65,1.51.77,2.06s-1.61.6-2.18-.19S20.07,57.43,21.08,57.34Z"/><path class="cls-33" d="M21.24,57.53c.56,0,1,.89.45,1.21s-1,.35-1.27-.12S20.65,57.59,21.24,57.53Z"/><path class="cls-31" d="M43.26,55.05c2-.17,3.37,3.09,1.57,4.21s-3.29,1.21-4.44-.4S41.19,55.23,43.26,55.05Z"/><path class="cls-32" d="M43.48,55.88c1-.08,1.64,1.51.77,2.06s-1.62.6-2.18-.2S42.47,56,43.48,55.88Z"/><path class="cls-33" d="M43.63,56.07c.56,0,1,.89.45,1.21s-.94.35-1.27-.12S43,56.12,43.63,56.07Z"/><path class="cls-31" d="M36.66,59.58c2-.17,3.36,3.09,1.57,4.21s-3.29,1.22-4.44-.4S34.59,59.76,36.66,59.58Z"/><path class="cls-32" d="M36.88,60.42c.95-.09,1.64,1.51.76,2.06s-1.61.59-2.17-.2S35.86,60.5,36.88,60.42Z"/><path class="cls-33" d="M37,60.61c.56,0,1,.88.45,1.2s-.94.35-1.27-.11S36.44,60.66,37,60.61Z"/><path class="cls-31" d="M37,62.5c2-.17,3.37,3.09,1.57,4.21s-3.29,1.22-4.44-.4S34.88,62.69,37,62.5Z"/><path class="cls-32" d="M37.17,63.34c.95-.09,1.64,1.51.77,2.06s-1.62.59-2.18-.2S36.15,63.43,37.17,63.34Z"/><path class="cls-33" d="M37.32,63.53c.56-.05,1,.88.45,1.2s-.94.35-1.27-.11S36.73,63.58,37.32,63.53Z"/><path class="cls-31" d="M43.09,63.09c1.95-.17,3.36,3.09,1.57,4.21s-3.3,1.21-4.45-.4S41,63.27,43.09,63.09Z"/><path class="cls-32" d="M43.3,63.92c1-.08,1.65,1.51.77,2.06s-1.61.6-2.17-.19S42.29,64,43.3,63.92Z"/><path class="cls-33" d="M43.46,64.11c.56,0,1,.89.45,1.21s-.94.35-1.27-.11S42.87,64.17,43.46,64.11Z"/><path class="cls-31" d="M40.07,62.7c2-.17,3.36,3.09,1.57,4.21s-3.3,1.21-4.45-.4S38,62.88,40.07,62.7Z"/><path class="cls-32" d="M40.28,63.53c1-.08,1.65,1.51.77,2.06s-1.61.6-2.17-.19S39.27,63.62,40.28,63.53Z"/><path class="cls-33" d="M40.44,63.73c.56,0,1,.88.45,1.2s-.94.35-1.27-.11S39.85,63.78,40.44,63.73Z"/><path class="cls-46" d="M39.58,66.2c2-.17,3.37,3.09,1.57,4.21s-3.29,1.22-4.44-.39S37.51,66.39,39.58,66.2Z"/><path class="cls-47" d="M39.8,67c1-.09,1.64,1.51.77,2.06s-1.62.59-2.18-.2S38.78,67.13,39.8,67Z"/><path class="cls-48" d="M40,67.23c.56,0,1,.88.45,1.2s-.94.35-1.27-.11S39.36,67.28,40,67.23Z"/><path class="cls-31" d="M46,65.82c2-.18,3.36,3.08,1.57,4.2s-3.3,1.22-4.45-.39S43.94,66,46,65.82Z"/><path class="cls-32" d="M46.22,66.65c1-.09,1.65,1.51.77,2.06s-1.61.59-2.17-.2S45.21,66.74,46.22,66.65Z"/><path class="cls-33" d="M46.38,66.84c.56,0,1,.89.45,1.21s-.94.34-1.27-.12S45.79,66.89,46.38,66.84Z"/><path class="cls-31" d="M51.46,64.45c2-.17,3.37,3.09,1.57,4.21s-3.29,1.22-4.44-.4S49.39,64.63,51.46,64.45Z"/><path class="cls-32" d="M51.68,65.28c1-.08,1.64,1.52.77,2.06s-1.62.6-2.18-.19S50.66,65.37,51.68,65.28Z"/><path class="cls-33" d="M51.83,65.48c.56,0,1,.88.45,1.2s-.94.35-1.27-.11S51.24,65.53,51.83,65.48Z"/><path class="cls-31" d="M47.37,61c2-.17,3.37,3.09,1.57,4.21s-3.29,1.22-4.44-.4S45.3,61.22,47.37,61Z"/><path class="cls-32" d="M47.59,61.88c.95-.09,1.64,1.51.77,2.06s-1.62.59-2.18-.2S46.57,62,47.59,61.88Z"/><path class="cls-33" d="M47.74,62.07c.56,0,1,.88.45,1.2s-.94.35-1.27-.11S47.15,62.12,47.74,62.07Z"/><path class="cls-31" d="M47.08,56.86c2-.17,3.36,3.09,1.57,4.2s-3.29,1.22-4.45-.39S45,57,47.08,56.86Z"/><path class="cls-32" d="M47.29,57.69c1-.08,1.65,1.51.77,2.06s-1.61.59-2.17-.2S46.28,57.78,47.29,57.69Z"/><path class="cls-33" d="M47.45,57.88c.56-.05,1,.89.45,1.21s-.94.34-1.27-.12S46.86,57.93,47.45,57.88Z"/><path class="cls-31" d="M48.64,51.5c2-.17,3.36,3.09,1.57,4.21s-3.3,1.22-4.45-.4S46.57,51.68,48.64,51.5Z"/><path class="cls-32" d="M48.85,52.33c1-.08,1.65,1.52.77,2.06S48,55,47.45,54.2,47.84,52.42,48.85,52.33Z"/><path class="cls-33" d="M49,52.53c.56-.05,1,.88.45,1.2s-.94.35-1.27-.11S48.42,52.58,49,52.53Z"/><path class="cls-31" d="M46,48.29c2-.17,3.36,3.09,1.57,4.21s-3.3,1.21-4.45-.4S43.94,48.47,46,48.29Z"/><path class="cls-32" d="M46.22,49.12c1-.08,1.65,1.51.77,2.06s-1.61.6-2.17-.2S45.21,49.21,46.22,49.12Z"/><path class="cls-33" d="M46.38,49.31c.56-.05,1,.89.45,1.21s-.94.35-1.27-.12S45.79,49.37,46.38,49.31Z"/><path class="cls-31" d="M46.79,40.89c2-.17,3.36,3.09,1.57,4.2s-3.3,1.22-4.45-.39S44.72,41.07,46.79,40.89Z"/><path class="cls-32" d="M47,41.72c1-.08,1.65,1.51.77,2.06s-1.61.59-2.17-.2S46,41.81,47,41.72Z"/><path class="cls-33" d="M47.16,41.91c.56,0,1,.89.45,1.21s-.94.34-1.27-.12S46.57,42,47.16,41.91Z"/><path class="cls-31" d="M47.08,37.09c2-.17,3.36,3.09,1.57,4.21s-3.29,1.21-4.45-.4S45,37.27,47.08,37.09Z"/><path class="cls-32" d="M47.29,37.92c1-.08,1.65,1.51.77,2.06s-1.61.6-2.17-.19S46.28,38,47.29,37.92Z"/><path class="cls-33" d="M47.45,38.11c.56,0,1,.89.45,1.21s-.94.35-1.27-.11S46.86,38.17,47.45,38.11Z"/><path class="cls-31" d="M36.5,32.71c.76-1.81,4.3-1.53,4.46.57S40.5,36.77,38.53,37,35.7,34.62,36.5,32.71Z"/><path class="cls-32" d="M37.34,32.91c.37-.89,2.1-.75,2.18.28s-.23,1.7-1.19,1.83S36.94,33.85,37.34,32.91Z"/><path class="cls-33" d="M37.58,32.86c.22-.52,1.23-.44,1.28.16s-.13,1-.7,1.08S37.35,33.41,37.58,32.86Z"/><path class="cls-31" d="M39.86,33.18c.76-1.81,4.3-1.53,4.45.58s-.46,3.48-2.42,3.74S39.05,35.1,39.86,33.18Z"/><path class="cls-32" d="M40.69,33.38c.38-.89,2.11-.75,2.18.28s-.22,1.7-1.18,1.83S40.3,34.32,40.69,33.38Z"/><path class="cls-33" d="M40.94,33.33c.22-.52,1.23-.44,1.27.17s-.13,1-.69,1.07S40.71,33.88,40.94,33.33Z"/><path class="cls-31" d="M40.31,34.54c-1.63-1.1-.68-4.52,1.42-4.27s3.33,1.12,3.21,3.1S42,35.69,40.31,34.54Z"/><path class="cls-32" d="M40.67,33.75c-.8-.53-.33-2.21.69-2.08s1.63.54,1.57,1.51S41.51,34.32,40.67,33.75Z"/><path class="cls-33" d="M40.67,33.5c-.47-.31-.2-1.29.4-1.21s1,.32.92.88S41.16,33.84,40.67,33.5Z"/><path class="cls-31" d="M43.71,33.88c.76-1.81,4.3-1.54,4.45.57s-.46,3.48-2.42,3.75S42.9,35.79,43.71,33.88Z"/><path class="cls-32" d="M44.54,34.08c.38-.89,2.11-.75,2.19.28s-.23,1.7-1.19,1.83S44.15,35,44.54,34.08Z"/><path class="cls-33" d="M44.79,34c.22-.52,1.23-.44,1.27.16s-.13,1-.69,1.07S44.56,34.58,44.79,34Z"/><path class="cls-37" d="M43.52,30c.76-1.81,4.3-1.54,4.45.57S47.52,34,45.55,34.3,42.71,31.89,43.52,30Z"/><path class="cls-38" d="M44.36,30.18c.37-.89,2.1-.75,2.18.28s-.23,1.7-1.19,1.83S44,31.11,44.36,30.18Z"/><path class="cls-39" d="M44.6,30.13c.22-.52,1.23-.44,1.27.16s-.13,1-.69,1.07S44.37,30.68,44.6,30.13Z"/><path class="cls-31" d="M47,37.09c.76-1.81,4.3-1.53,4.45.58s-.46,3.48-2.42,3.74S46.21,39,47,37.09Z"/><path class="cls-32" d="M47.86,37.29c.37-.88,2.1-.75,2.18.28s-.23,1.7-1.19,1.83S47.46,38.23,47.86,37.29Z"/><path class="cls-33" d="M48.1,37.24c.22-.51,1.23-.44,1.27.17s-.13,1-.69,1.07S47.87,37.79,48.1,37.24Z"/><path class="cls-31" d="M37.09,43.23c.76-1.81,4.3-1.54,4.45.57s-.46,3.48-2.42,3.75S36.28,45.14,37.09,43.23Z"/><path class="cls-32" d="M37.92,43.42c.38-.88,2.11-.75,2.18.29s-.22,1.7-1.18,1.83S37.53,44.36,37.92,43.42Z"/><path class="cls-33" d="M38.17,43.38c.22-.52,1.23-.44,1.27.16s-.13,1-.69,1.07S37.94,43.92,38.17,43.38Z"/><path class="cls-31" d="M43.67,58.8c2-.17,3.37,3.09,1.57,4.21s-3.29,1.22-4.44-.4S41.6,59,43.67,58.8Z"/><path class="cls-32" d="M43.89,59.64c1-.09,1.64,1.51.77,2.06s-1.62.59-2.18-.2S42.87,59.72,43.89,59.64Z"/><path class="cls-33" d="M44,59.83c.56,0,1,.88.45,1.2s-.94.35-1.27-.11S43.45,59.88,44,59.83Z"/><path class="cls-31" d="M24.27,54.63c2-.17,3.37,3.09,1.57,4.21s-3.29,1.22-4.44-.4S22.21,54.81,24.27,54.63Z"/><path class="cls-32" d="M24.49,55.47c1-.09,1.65,1.51.77,2.06s-1.61.59-2.18-.2S23.48,55.55,24.49,55.47Z"/><path class="cls-33" d="M24.65,55.66c.55,0,1,.88.44,1.2s-.94.35-1.27-.11S24.05,55.71,24.65,55.66Z"/><path class="cls-28" d="M46.76,54.15c2-.17,3.37,3.09,1.57,4.21S45,59.58,43.89,58,44.69,54.33,46.76,54.15Z"/><path class="cls-29" d="M47,55c1-.09,1.65,1.51.77,2.06s-1.62.59-2.18-.2S46,55.08,47,55Z"/><path class="cls-49" d="M47.13,55.18c.56,0,1,.88.45,1.2s-.94.35-1.27-.11S46.54,55.23,47.13,55.18Z"/><path class="cls-31" d="M39.07,51.72c2-.17,3.36,3.09,1.57,4.21s-3.29,1.22-4.44-.4S37,51.9,39.07,51.72Z"/><path class="cls-32" d="M39.29,52.55c1-.08,1.64,1.51.76,2.06s-1.61.6-2.17-.19S38.27,52.64,39.29,52.55Z"/><path class="cls-33" d="M39.44,52.75c.56,0,1,.88.45,1.2s-.94.35-1.27-.11S38.85,52.8,39.44,52.75Z"/><path class="cls-37" d="M23.73,59.05c2-.17,3.37,3.09,1.57,4.21s-3.29,1.21-4.44-.4S21.66,59.23,23.73,59.05Z"/><path class="cls-38" d="M24,59.88c.95-.08,1.65,1.51.77,2.06s-1.61.6-2.18-.19S22.94,60,24,59.88Z"/><path class="cls-49" d="M24.1,60.07c.56,0,1,.89.45,1.21s-.94.35-1.27-.12S23.51,60.13,24.1,60.07Z"/><path class="cls-31" d="M28.92,61.6c1.95-.17,3.36,3.09,1.57,4.21S27.2,67,26,65.41,26.85,61.78,28.92,61.6Z"/><path class="cls-32" d="M29.13,62.44c1-.09,1.65,1.51.77,2.06s-1.61.59-2.17-.2S28.12,62.52,29.13,62.44Z"/><path class="cls-33" d="M29.29,62.63c.56-.05,1,.88.45,1.2s-.94.35-1.27-.11S28.7,62.68,29.29,62.63Z"/><path class="cls-40" d="M26.51,62.85c1.95-.18,3.36,3.08,1.57,4.2s-3.3,1.22-4.45-.39S24.44,63,26.51,62.85Z"/><path class="cls-41" d="M26.72,63.68c1-.09,1.65,1.51.77,2.06s-1.61.59-2.17-.2S25.71,63.77,26.72,63.68Z"/><path class="cls-42" d="M26.88,63.87c.56,0,1,.89.45,1.21s-.94.34-1.27-.12S26.29,63.92,26.88,63.87Z"/><path class="cls-31" d="M29.42,66.13c1-1.7,4.46-1,4.34,1.14s-.9,3.39-2.88,3.4S28.37,67.92,29.42,66.13Z"/><path class="cls-32" d="M30.22,66.43c.49-.83,2.19-.47,2.13.56s-.44,1.66-1.41,1.67S29.71,67.31,30.22,66.43Z"/><path class="cls-33" d="M30.47,66.42c.28-.49,1.28-.28,1.24.32s-.25,1-.82,1S30.17,66.93,30.47,66.42Z"/><path class="cls-31" d="M29.3,57.53c1-1.69,4.46-1,4.34,1.15s-.9,3.39-2.88,3.4S28.25,59.33,29.3,57.53Z"/><path class="cls-32" d="M30.1,57.84c.48-.83,2.19-.48,2.13.56s-.44,1.66-1.41,1.66S29.59,58.72,30.1,57.84Z"/><path class="cls-33" d="M30.35,57.82c.28-.48,1.28-.28,1.24.33s-.26,1-.82,1S30.05,58.34,30.35,57.82Z"/><path class="cls-40" d="M26.62,56.41c1-1.69,4.46-1,4.34,1.15S30.06,61,28.08,61,25.57,58.21,26.62,56.41Z"/><path class="cls-41" d="M27.42,56.72c.49-.83,2.19-.48,2.13.56s-.44,1.66-1.41,1.66S26.91,57.6,27.42,56.72Z"/><path class="cls-42" d="M27.67,56.7c.28-.48,1.28-.28,1.24.33s-.25,1-.82,1S27.37,57.22,27.67,56.7Z"/><path class="cls-31" d="M31.24,61.14c1-1.7,4.47-1,4.35,1.14s-.9,3.39-2.89,3.4S30.2,62.93,31.24,61.14Z"/><path class="cls-32" d="M32.05,61.44c.48-.83,2.18-.47,2.13.56s-.45,1.66-1.42,1.67S31.54,62.32,32.05,61.44Z"/><path class="cls-33" d="M32.3,61.42c.28-.48,1.27-.27,1.24.33s-.26,1-.83,1S32,61.94,32.3,61.42Z"/><path class="cls-31" d="M32.22,53.74c1-1.7,4.46-1,4.34,1.14s-.9,3.39-2.88,3.4S31.17,55.53,32.22,53.74Z"/><path class="cls-32" d="M33,54c.49-.83,2.19-.48,2.13.56s-.44,1.66-1.41,1.66S32.51,54.92,33,54Z"/><path class="cls-33" d="M33.27,54c.28-.48,1.28-.27,1.24.33s-.25,1-.82,1S33,54.54,33.27,54Z"/><path class="cls-46" d="M29.78,54.13c1-1.7,4.47-1,4.35,1.14s-.9,3.39-2.89,3.4S28.74,55.92,29.78,54.13Z"/><path class="cls-47" d="M30.59,54.43c.48-.83,2.18-.48,2.12.56s-.44,1.66-1.41,1.66S30.08,55.31,30.59,54.43Z"/><path class="cls-48" d="M30.84,54.41c.28-.48,1.27-.27,1.24.33s-.26,1-.83,1S30.54,54.93,30.84,54.41Z"/><path class="cls-31" d="M26.08,52.86c1-1.7,4.47-1,4.35,1.14s-.9,3.39-2.89,3.4S25,54.66,26.08,52.86Z"/><path class="cls-32" d="M26.89,53.16c.48-.83,2.18-.47,2.12.56s-.44,1.66-1.41,1.67S26.38,54,26.89,53.16Z"/><path class="cls-33" d="M27.14,53.15c.28-.49,1.27-.28,1.24.32s-.26,1-.83,1S26.84,53.66,27.14,53.15Z"/><path class="cls-31" d="M24.91,49.84c1-1.69,4.47-1,4.35,1.14s-.9,3.4-2.89,3.41S23.87,51.64,24.91,49.84Z"/><path class="cls-32" d="M25.72,50.14c.48-.83,2.18-.47,2.13.56s-.45,1.66-1.42,1.67S25.21,51,25.72,50.14Z"/><path class="cls-33" d="M26,50.13c.28-.49,1.27-.28,1.24.33s-.26,1-.83,1S25.67,50.64,26,50.13Z"/><path class="cls-37" d="M23.25,48.64c1-1.7,4.47-1,4.35,1.14s-.9,3.39-2.89,3.4S22.21,50.43,23.25,48.64Z"/><path class="cls-38" d="M24.06,48.94c.48-.83,2.18-.47,2.12.56s-.44,1.66-1.41,1.67S23.55,49.82,24.06,48.94Z"/><path class="cls-39" d="M24.31,48.93c.28-.49,1.27-.28,1.24.32s-.26,1-.83,1S24,49.44,24.31,48.93Z"/><path class="cls-31" d="M23.35,46c1-1.7,4.46-1,4.35,1.14s-.91,3.39-2.89,3.4S22.31,47.8,23.35,46Z"/><path class="cls-32" d="M24.16,46.31c.48-.83,2.18-.47,2.12.56s-.44,1.66-1.41,1.67S23.64,47.19,24.16,46.31Z"/><path class="cls-49" d="M24.4,46.3c.29-.49,1.28-.28,1.25.32s-.26,1-.83,1S24.11,46.81,24.4,46.3Z"/><path class="cls-31" d="M31.34,49.55c1-1.7,4.46-1,4.35,1.14s-.91,3.39-2.89,3.4S30.3,51.34,31.34,49.55Z"/><path class="cls-32" d="M32.15,49.85c.48-.83,2.18-.47,2.12.56s-.44,1.66-1.41,1.67S31.64,50.73,32.15,49.85Z"/><path class="cls-33" d="M32.39,49.84c.29-.49,1.28-.28,1.25.32s-.26,1-.83,1S32.1,50.35,32.39,49.84Z"/><path class="cls-31" d="M33.68,49.06c1-1.69,4.46-1,4.34,1.14s-.9,3.4-2.88,3.41S32.63,50.86,33.68,49.06Z"/><path class="cls-32" d="M34.48,49.37c.49-.83,2.19-.48,2.13.55s-.44,1.67-1.41,1.67S34,50.24,34.48,49.37Z"/><path class="cls-33" d="M34.73,49.35c.28-.49,1.28-.28,1.24.33s-.25,1-.82,1S34.43,49.86,34.73,49.35Z"/><path class="cls-31" d="M31.05,47.7c1-1.7,4.46-1,4.34,1.14s-.9,3.39-2.88,3.4S30,49.49,31.05,47.7Z"/><path class="cls-32" d="M31.85,48c.49-.83,2.19-.47,2.13.56s-.44,1.66-1.41,1.67S31.34,48.88,31.85,48Z"/><path class="cls-33" d="M32.1,48c.28-.49,1.28-.28,1.25.32s-.26,1-.83,1S31.8,48.5,32.1,48Z"/><path class="cls-31" d="M36.78,46.58c1-1.7,4.46-1,4.34,1.14s-.9,3.39-2.89,3.4S35.73,48.37,36.78,46.58Z"/><path class="cls-32" d="M37.58,46.88c.48-.83,2.18-.47,2.13.56s-.45,1.66-1.42,1.67S37.07,47.76,37.58,46.88Z"/><path class="cls-33" d="M37.83,46.87c.28-.49,1.28-.28,1.24.32s-.26,1-.82,1S37.53,47.38,37.83,46.87Z"/><path class="cls-31" d="M34.65,44.88c1-1.7,4.47-1,4.35,1.14s-.9,3.39-2.89,3.4S33.61,46.67,34.65,44.88Z"/><path class="cls-32" d="M35.46,45.18c.48-.83,2.18-.48,2.12.56s-.44,1.66-1.41,1.66S35,46.06,35.46,45.18Z"/><path class="cls-33" d="M35.71,45.16c.28-.48,1.27-.28,1.24.33s-.26,1-.83,1S35.41,45.68,35.71,45.16Z"/><path class="cls-28" d="M36.11,49.94c1-1.7,4.47-1,4.35,1.14s-.9,3.39-2.89,3.4S35.07,51.73,36.11,49.94Z"/><path class="cls-29" d="M36.92,50.24c.48-.83,2.18-.47,2.12.56s-.44,1.66-1.41,1.67S36.41,51.12,36.92,50.24Z"/><path class="cls-30" d="M37.17,50.23c.28-.49,1.27-.28,1.24.32s-.26,1-.83,1S36.87,50.74,37.17,50.23Z"/><path class="cls-31" d="M47.14,42.71c1-1.69,4.47-1,4.35,1.14s-.91,3.39-2.89,3.41S46.1,44.51,47.14,42.71Z"/><path class="cls-32" d="M48,43c.48-.83,2.18-.47,2.12.56s-.44,1.66-1.41,1.67S47.44,43.89,48,43Z"/><path class="cls-33" d="M48.19,43c.29-.49,1.28-.28,1.25.32s-.26,1-.83,1S47.9,43.51,48.19,43Z"/><path class="cls-31" d="M46.75,46.8c1-1.69,4.47-1,4.35,1.14s-.9,3.39-2.89,3.41S45.71,48.6,46.75,46.8Z"/><path class="cls-32" d="M47.56,47.1c.48-.83,2.18-.47,2.12.56s-.44,1.66-1.41,1.67S47.05,48,47.56,47.1Z"/><path class="cls-33" d="M47.81,47.09c.28-.49,1.27-.28,1.24.32s-.26,1-.83,1S47.51,47.6,47.81,47.09Z"/><path class="cls-31" d="M48,57.71c1-1.7,4.46-1,4.34,1.14s-.9,3.39-2.88,3.4S47,59.5,48,57.71Z"/><path class="cls-32" d="M48.82,58c.49-.83,2.19-.47,2.13.56s-.44,1.66-1.41,1.66S48.31,58.89,48.82,58Z"/><path class="cls-33" d="M49.07,58c.28-.48,1.28-.27,1.24.33s-.25,1-.82,1S48.77,58.51,49.07,58Z"/><path class="cls-31" d="M49.77,61.7c1-1.7,4.46-1,4.35,1.14s-.91,3.39-2.89,3.4S48.73,63.49,49.77,61.7Z"/><path class="cls-32" d="M50.58,62c.48-.83,2.18-.47,2.12.56s-.44,1.66-1.41,1.67S50.06,62.88,50.58,62Z"/><path class="cls-33" d="M50.82,62c.29-.49,1.28-.28,1.25.32s-.26,1-.83,1S50.53,62.5,50.82,62Z"/><path class="cls-28" d="M52.6,62.09c1-1.7,4.46-1,4.34,1.14s-.9,3.39-2.89,3.4S51.55,63.88,52.6,62.09Z"/><path class="cls-29" d="M53.4,62.39c.48-.83,2.18-.47,2.13.56s-.45,1.66-1.42,1.67S52.89,63.27,53.4,62.39Z"/><path class="cls-30" d="M53.65,62.38c.28-.49,1.27-.28,1.24.32s-.26,1-.82,1S53.35,62.89,53.65,62.38Z"/><path class="cls-31" d="M48.89,53.91c1-1.7,4.47-1,4.35,1.14s-.9,3.39-2.89,3.4S47.85,55.7,48.89,53.91Z"/><path class="cls-32" d="M49.7,54.21c.48-.83,2.18-.47,2.13.56s-.45,1.66-1.42,1.67S49.19,55.09,49.7,54.21Z"/><path class="cls-33" d="M50,54.2c.28-.49,1.27-.28,1.24.32s-.26,1-.82,1S49.65,54.71,50,54.2Z"/><path class="cls-31" d="M53.47,50.89c1-1.7,4.46-1,4.35,1.14s-.91,3.39-2.89,3.41S52.43,52.69,53.47,50.89Z"/><path class="cls-32" d="M54.28,51.19c.48-.83,2.18-.47,2.12.56S56,53.41,55,53.42,53.77,52.07,54.28,51.19Z"/><path class="cls-33" d="M54.52,51.18c.29-.49,1.28-.28,1.25.32s-.26,1-.83,1S54.23,51.69,54.52,51.18Z"/><path class="cls-31" d="M50.47,53c1-1.7,4.47-1,4.35,1.14s-.9,3.39-2.89,3.4S49.43,54.82,50.47,53Z"/><path class="cls-32" d="M51.28,53.32c.48-.83,2.18-.47,2.12.56S53,55.54,52,55.55,50.77,54.2,51.28,53.32Z"/><path class="cls-33" d="M51.53,53.31c.28-.49,1.27-.28,1.24.32s-.26,1-.83,1S51.23,53.82,51.53,53.31Z"/><path class="cls-37" d="M49.77,48.75c1-1.7,4.46-1,4.35,1.14s-.91,3.39-2.89,3.4S48.73,50.54,49.77,48.75Z"/><path class="cls-38" d="M50.58,49.05c.48-.83,2.18-.47,2.12.56s-.44,1.66-1.41,1.67S50.06,49.93,50.58,49.05Z"/><path class="cls-39" d="M50.82,49c.29-.49,1.28-.28,1.25.32s-.26,1-.83,1S50.53,49.55,50.82,49Z"/><path class="cls-31" d="M57.34,54.29c1-1.7,4.46-1,4.34,1.14s-.9,3.39-2.88,3.4S56.29,56.08,57.34,54.29Z"/><path class="cls-32" d="M58.14,54.59c.48-.83,2.19-.48,2.13.56s-.44,1.66-1.42,1.66S57.63,55.47,58.14,54.59Z"/><path class="cls-33" d="M58.39,54.57c.28-.48,1.28-.27,1.24.33s-.26,1-.82,1S58.09,55.09,58.39,54.57Z"/><path class="cls-31" d="M57.83,46.79c1-1.7,4.46-1,4.34,1.14s-.9,3.39-2.89,3.4S56.78,48.58,57.83,46.79Z"/><path class="cls-32" d="M58.63,47.09c.48-.83,2.18-.47,2.13.56s-.44,1.66-1.42,1.67S58.12,48,58.63,47.09Z"/><path class="cls-33" d="M58.88,47.07c.28-.48,1.28-.27,1.24.33s-.26,1-.82,1S58.58,47.59,58.88,47.07Z"/><path class="cls-31" d="M53.86,54.79c1-1.7,4.46-1,4.35,1.14s-.91,3.39-2.89,3.4S52.82,56.58,53.86,54.79Z"/><path class="cls-32" d="M54.67,55.09c.48-.83,2.18-.48,2.12.56s-.44,1.66-1.41,1.66S54.15,56,54.67,55.09Z"/><path class="cls-33" d="M54.91,55.07c.29-.48,1.28-.27,1.25.33s-.26,1-.83,1S54.62,55.59,54.91,55.07Z"/><path class="cls-31" d="M53.67,57.9c1-1.69,4.46-1,4.34,1.14s-.9,3.4-2.88,3.41S52.62,59.7,53.67,57.9Z"/><path class="cls-32" d="M54.47,58.21c.48-.83,2.19-.48,2.13.55s-.44,1.66-1.41,1.67S54,59.08,54.47,58.21Z"/><path class="cls-33" d="M54.72,58.19c.28-.49,1.28-.28,1.24.33s-.26,1-.82,1S54.42,58.7,54.72,58.19Z"/><path class="cls-40" d="M57.35,58.19c1-1.69,4.46-1,4.34,1.14s-.9,3.4-2.88,3.41S56.3,60,57.35,58.19Z"/><path class="cls-41" d="M58.15,58.5c.48-.83,2.19-.48,2.13.56s-.44,1.66-1.41,1.66S57.64,59.38,58.15,58.5Z"/><path class="cls-42" d="M58.4,58.48c.28-.48,1.28-.28,1.24.33s-.26,1-.82,1S58.1,59,58.4,58.48Z"/><path class="cls-37" d="M51.13,57.51c1-1.69,4.47-1,4.35,1.14s-.9,3.4-2.89,3.41S50.09,59.31,51.13,57.51Z"/><path class="cls-38" d="M51.94,57.82c.48-.83,2.18-.48,2.13.55S53.62,60,52.65,60,51.43,58.69,51.94,57.82Z"/><path class="cls-39" d="M52.19,57.8c.28-.49,1.27-.28,1.24.33s-.26,1-.83,1S51.89,58.31,52.19,57.8Z"/><path class="cls-31" d="M55.14,62.47c1-1.7,4.47-1,4.35,1.14S58.59,67,56.6,67,54.1,64.26,55.14,62.47Z"/><path class="cls-32" d="M56,62.77c.48-.83,2.18-.48,2.13.56S57.63,65,56.66,65,55.44,63.65,56,62.77Z"/><path class="cls-33" d="M56.2,62.75c.28-.48,1.27-.27,1.24.33s-.26,1-.82,1S55.9,63.27,56.2,62.75Z"/><path class="cls-31" d="M52.3,65.11c1-1.7,4.47-1,4.35,1.14s-.9,3.39-2.89,3.4S51.26,66.9,52.3,65.11Z"/><path class="cls-32" d="M53.11,65.41c.48-.83,2.18-.47,2.12.56s-.44,1.66-1.41,1.67S52.6,66.29,53.11,65.41Z"/><path class="cls-33" d="M53.36,65.4c.28-.49,1.27-.28,1.24.32s-.26,1-.83,1S53.06,65.91,53.36,65.4Z"/><path class="cls-31" d="M49.9,46.82c-.95-1.72,1.45-4.33,3.2-3.15s2.45,2.52,1.44,4.23S50.9,48.63,49.9,46.82Z"/><path class="cls-32" d="M50.57,46.28c-.47-.84.71-2.12,1.57-1.54s1.2,1.24.7,2.07S51.06,47.17,50.57,46.28Z"/><path class="cls-33" d="M50.68,46.06c-.27-.49.42-1.24.92-.9s.7.72.41,1.21S51,46.58,50.68,46.06Z"/><path class="cls-31" d="M49.41,41.66c-.95-1.72,1.46-4.33,3.21-3.15s2.45,2.52,1.44,4.23S50.41,43.47,49.41,41.66Z"/><path class="cls-32" d="M50.08,41.12c-.46-.84.72-2.12,1.57-1.54s1.2,1.23.71,2.07S50.57,42,50.08,41.12Z"/><path class="cls-33" d="M50.2,40.9c-.28-.49.41-1.24.91-.9s.7.72.42,1.21S50.48,41.42,50.2,40.9Z"/><path class="cls-31" d="M46.88,36.69c-1-1.72,1.46-4.33,3.21-3.14s2.44,2.51,1.44,4.22S47.88,38.51,46.88,36.69Z"/><path class="cls-32" d="M47.55,36.15c-.46-.84.71-2.11,1.57-1.53s1.2,1.23.71,2.06S48,37,47.55,36.15Z"/><path class="cls-33" d="M47.66,35.93c-.27-.49.42-1.24.92-.9s.7.72.41,1.21S48,36.45,47.66,35.93Z"/><path class="cls-31" d="M47.17,34.79c-1-1.72,1.46-4.33,3.21-3.14s2.45,2.51,1.44,4.22S48.17,36.61,47.17,34.79Z"/><path class="cls-32" d="M47.84,34.26c-.46-.84.72-2.12,1.57-1.54s1.2,1.23.71,2.06S48.33,35.15,47.84,34.26Z"/><path class="cls-33" d="M48,34c-.28-.49.41-1.23.91-.89s.7.72.42,1.2S48.24,34.55,48,34Z"/><path class="cls-31" d="M50.77,39c-1-1.72,1.46-4.33,3.21-3.15s2.45,2.52,1.44,4.23S51.78,40.84,50.77,39Z"/><path class="cls-32" d="M51.44,38.49C51,37.65,52.16,36.37,53,37s1.19,1.24.7,2.07S51.94,39.38,51.44,38.49Z"/><path class="cls-33" d="M51.56,38.27c-.27-.49.42-1.24.92-.9s.7.72.41,1.21S51.85,38.79,51.56,38.27Z"/><path class="cls-31" d="M53,38.81c-1.86-.63-1.85-4.18.24-4.49s3.51.2,3.92,2.14S55,39.47,53,38.81Z"/><path class="cls-32" d="M53.17,38c-.91-.31-.91-2.05.12-2.2s1.71.1,1.91,1.05S54.13,38.28,53.17,38Z"/><path class="cls-33" d="M53.1,37.72c-.53-.18-.53-1.2.07-1.29s1,.06,1.12.61S53.66,37.91,53.1,37.72Z"/><path class="cls-31" d="M53.22,41.23c.81-1.78,4.34-1.41,4.44.7s-.56,3.47-2.53,3.68S52.36,43.12,53.22,41.23Z"/><path class="cls-32" d="M54.05,41.45c.4-.87,2.13-.69,2.17.35S56,43.49,55,43.59,53.63,42.38,54.05,41.45Z"/><path class="cls-33" d="M54.3,41.41c.23-.51,1.24-.4,1.27.2s-.16,1-.73,1S54.05,42,54.3,41.41Z"/><path class="cls-31" d="M53.32,46.39c.81-1.78,4.34-1.41,4.44.7s-.56,3.47-2.53,3.68S52.46,48.28,53.32,46.39Z"/><path class="cls-32" d="M54.15,46.61c.4-.87,2.13-.69,2.17.35s-.27,1.69-1.24,1.8S53.73,47.54,54.15,46.61Z"/><path class="cls-33" d="M54.39,46.57c.24-.51,1.25-.4,1.27.2s-.16,1-.72,1S54.15,47.11,54.39,46.57Z"/><path class="cls-31" d="M54.57,49.46c-1.57-1.17-.47-4.54,1.62-4.19s3.27,1.27,3.06,3.24S56.24,50.69,54.57,49.46Z"/><path class="cls-32" d="M55,48.69c-.77-.57-.23-2.22.79-2s1.61.62,1.5,1.59S55.78,49.3,55,48.69Z"/><path class="cls-33" d="M55,48.44c-.45-.33-.14-1.3.46-1.19s.93.36.87.92S55.45,48.8,55,48.44Z"/><path class="cls-34" d="M56.33,47.12c-1.58-1.17-.47-4.54,1.61-4.19S61.21,44.2,61,46.17,58,48.36,56.33,47.12Z"/><path class="cls-35" d="M56.72,46.36c-.77-.58-.23-2.23.79-2.06s1.6.63,1.5,1.59S57.53,47,56.72,46.36Z"/><path class="cls-36" d="M56.73,46.11c-.45-.34-.14-1.3.46-1.2s.94.36.88.93S57.21,46.46,56.73,46.11Z"/><path class="cls-31" d="M54.08,41.62c-1.57-1.17-.47-4.54,1.62-4.19S59,38.7,58.76,40.67,55.75,42.86,54.08,41.62Z"/><path class="cls-32" d="M54.47,40.85c-.77-.57-.23-2.22.79-2.05s1.6.62,1.5,1.59S55.29,41.46,54.47,40.85Z"/><path class="cls-33" d="M54.48,40.61c-.45-.34-.13-1.3.47-1.2s.93.36.87.92S55,41,54.48,40.61Z"/><path class="cls-28" d="M55.89,43.18C54.31,42,55.42,38.63,57.5,39s3.28,1.27,3.07,3.24S57.56,44.41,55.89,43.18Z"/><path class="cls-29" d="M56.28,42.41c-.77-.57-.23-2.22.79-2s1.6.62,1.5,1.59S57.1,43,56.28,42.41Z"/><path class="cls-30" d="M56.29,42.16c-.45-.33-.13-1.3.46-1.2s.94.37.88.93S56.77,42.52,56.29,42.16Z"/><path class="cls-31" d="M55.06,53.35c-1.57-1.16-.47-4.54,1.62-4.19s3.27,1.27,3.06,3.25S56.73,54.59,55.06,53.35Z"/><path class="cls-32" d="M55.45,52.59c-.77-.57-.23-2.23.79-2.05s1.6.62,1.5,1.58S56.27,53.19,55.45,52.59Z"/><path class="cls-33" d="M55.46,52.34c-.45-.33-.13-1.3.46-1.2s.94.36.88.93S55.94,52.69,55.46,52.34Z"/><path class="cls-31" d="M57.06,53.64c-1.58-1.17-.47-4.55,1.61-4.2s3.28,1.28,3.07,3.25S58.73,54.87,57.06,53.64Z"/><path class="cls-32" d="M57.45,52.87c-.77-.57-.23-2.22.79-2s1.6.62,1.5,1.59S58.27,53.48,57.45,52.87Z"/><path class="cls-33" d="M57.46,52.62c-.45-.33-.13-1.3.46-1.2s.94.37.88.93S57.94,53,57.46,52.62Z"/><path class="cls-31" d="M61.49,81.79c-1.58-1.17-.47-4.54,1.61-4.19s3.27,1.27,3.07,3.24S63.16,83,61.49,81.79Z"/><path class="cls-32" d="M61.88,81c-.77-.57-.23-2.22.79-2s1.6.62,1.5,1.59S62.7,81.63,61.88,81Z"/><path class="cls-33" d="M61.89,80.77c-.45-.33-.13-1.3.46-1.2s.94.37.88.93S62.37,81.13,61.89,80.77Z"/><path class="cls-31" d="M68.4,72.94c2-.81,4.58,2.23,3,4s-3.14,2.35-4.88,1S66.24,73.79,68.4,72.94Z"/><path class="cls-32" d="M68.89,73.76c1-.39,2.25,1.09,1.48,2s-1.53,1.15-2.39.48S67.84,74.18,68.89,73.76Z"/><path class="cls-33" d="M69.12,73.92c.59-.23,1.31.64.87,1.14s-.9.68-1.4.29S68.51,74.16,69.12,73.92Z"/><path class="cls-31" d="M66.21,69.72c2-.8,4.58,2.24,3,4s-3.14,2.35-4.88,1S64.05,70.58,66.21,69.72Z"/><path class="cls-32" d="M66.7,70.55c1-.4,2.25,1.09,1.48,2s-1.53,1.15-2.39.48S65.65,71,66.7,70.55Z"/><path class="cls-33" d="M66.93,70.7c.58-.23,1.31.64.87,1.15s-.9.67-1.4.28S66.31,71,66.93,70.7Z"/><path class="cls-40" d="M67.38,76.3c2-.81,4.58,2.23,3,4s-3.14,2.35-4.89,1S65.22,77.15,67.38,76.3Z"/><path class="cls-41" d="M67.87,77.12c1-.4,2.25,1.09,1.48,2s-1.53,1.15-2.39.48S66.82,77.54,67.87,77.12Z"/><path class="cls-42" d="M68.1,77.28c.58-.23,1.31.64.86,1.14s-.89.68-1.39.29S67.48,77.52,68.1,77.28Z"/><path class="cls-46" d="M81.11,73.67c2-.81,4.58,2.23,3,4S81,80,79.25,78.66,79,74.52,81.11,73.67Z"/><path class="cls-47" d="M81.6,74.49c1-.39,2.25,1.09,1.48,2s-1.53,1.15-2.39.49S80.55,74.91,81.6,74.49Z"/><path class="cls-48" d="M81.83,74.65c.58-.23,1.31.64.87,1.14s-.9.68-1.4.29S81.21,74.89,81.83,74.65Z"/><path class="cls-31" d="M73.51,65.59c2-.81,4.59,2.23,3,4s-3.13,2.35-4.88,1S71.36,66.44,73.51,65.59Z"/><path class="cls-32" d="M74,66.41c1-.39,2.24,1.09,1.48,2s-1.54,1.15-2.39.49S73,66.83,74,66.41Z"/><path class="cls-33" d="M74.24,66.57c.58-.23,1.31.64.86,1.14s-.89.68-1.39.29S73.62,66.81,74.24,66.57Z"/><path class="cls-31" d="M74.68,70.12c2-.81,4.59,2.23,3,4s-3.13,2.35-4.88,1S72.52,71,74.68,70.12Z"/><path class="cls-32" d="M75.18,70.94c1-.4,2.24,1.09,1.48,2s-1.54,1.15-2.39.48S74.12,71.36,75.18,70.94Z"/><path class="cls-33" d="M75.41,71.1c.58-.23,1.31.63.86,1.14s-.9.67-1.4.28S74.79,71.34,75.41,71.1Z"/><path class="cls-46" d="M72.78,73.77c2-.81,4.59,2.23,3,4s-3.13,2.35-4.88,1S70.63,74.62,72.78,73.77Z"/><path class="cls-47" d="M73.28,74.59c1-.39,2.24,1.09,1.48,2s-1.54,1.15-2.39.48S72.22,75,73.28,74.59Z"/><path class="cls-48" d="M73.51,74.75c.58-.23,1.31.64.86,1.14s-.9.68-1.4.29S72.89,75,73.51,74.75Z"/><path class="cls-31" d="M72.78,77.27c2-.8,4.59,2.24,3,4s-3.13,2.35-4.88,1S70.63,78.13,72.78,77.27Z"/><path class="cls-32" d="M73.28,78.1c1-.4,2.24,1.09,1.48,2s-1.54,1.16-2.39.49S72.22,78.51,73.28,78.1Z"/><path class="cls-33" d="M73.51,78.25c.58-.23,1.31.64.86,1.15s-.9.67-1.4.28S72.89,78.5,73.51,78.25Z"/><path class="cls-31" d="M64,72.89c2-.8,4.58,2.23,3,4s-3.14,2.36-4.88,1S61.86,73.74,64,72.89Z"/><path class="cls-32" d="M64.51,73.71c1-.39,2.25,1.1,1.48,2s-1.53,1.15-2.39.49S63.46,74.13,64.51,73.71Z"/><path class="cls-33" d="M64.74,73.87c.59-.23,1.31.64.87,1.15s-.9.67-1.4.28S64.13,74.12,64.74,73.87Z"/><path class="cls-31" d="M69,65.05c2-.81,4.59,2.23,3,4s-3.13,2.36-4.88,1S66.83,65.9,69,65.05Z"/><path class="cls-32" d="M69.48,65.87c1-.39,2.24,1.1,1.48,2s-1.54,1.15-2.39.49S68.42,66.29,69.48,65.87Z"/><path class="cls-33" d="M69.71,66c.58-.23,1.31.64.86,1.14s-.9.68-1.4.29S69.09,66.27,69.71,66Z"/><path class="cls-31" d="M77.75,65.44c2-.8,4.58,2.24,3,4s-3.13,2.36-4.88,1S75.59,66.3,77.75,65.44Z"/><path class="cls-32" d="M78.24,66.26c1-.39,2.25,1.1,1.48,2s-1.53,1.16-2.39.49S77.19,66.68,78.24,66.26Z"/><path class="cls-33" d="M78.47,66.42c.59-.23,1.32.64.87,1.15s-.9.67-1.4.28S77.86,66.67,78.47,66.42Z"/><path class="cls-31" d="M74.24,61.21c2-.81,4.59,2.23,3,4s-3.14,2.35-4.89,1S72.09,62.06,74.24,61.21Z"/><path class="cls-32" d="M74.74,62c1-.4,2.24,1.09,1.48,2s-1.54,1.15-2.39.48S73.68,62.45,74.74,62Z"/><path class="cls-33" d="M75,62.19c.58-.23,1.31.63.86,1.14s-.89.67-1.39.28S74.35,62.43,75,62.19Z"/><path class="cls-40" d="M79.65,60c2-.81,4.58,2.23,3,4s-3.14,2.35-4.88,1S77.49,60.89,79.65,60Z"/><path class="cls-41" d="M80.14,60.86c1-.39,2.25,1.09,1.48,2s-1.53,1.15-2.39.48S79.09,61.28,80.14,60.86Z"/><path class="cls-42" d="M80.37,61c.58-.23,1.31.64.87,1.14s-.9.68-1.4.29S79.76,61.26,80.37,61Z"/><path class="cls-46" d="M76.14,63c2-.81,4.59,2.23,3,4S76,69.32,74.28,68,74,63.81,76.14,63Z"/><path class="cls-47" d="M76.64,63.78c1-.39,2.24,1.09,1.48,2s-1.54,1.15-2.39.49S75.58,64.2,76.64,63.78Z"/><path class="cls-48" d="M76.87,63.94c.58-.23,1.31.64.86,1.14s-.9.68-1.4.29S76.25,64.18,76.87,63.94Z"/><path class="cls-31" d="M78.33,69.09c2-.8,4.59,2.24,3,4s-3.14,2.35-4.89,1S76.18,70,78.33,69.09Z"/><path class="cls-32" d="M78.83,69.92c1-.4,2.24,1.09,1.48,2s-1.54,1.15-2.39.48S77.77,70.33,78.83,69.92Z"/><path class="cls-33" d="M79.06,70.07c.58-.23,1.31.64.86,1.15s-.89.67-1.39.28S78.44,70.32,79.06,70.07Z"/><path class="cls-31" d="M77.6,74.06c2-.81,4.59,2.23,3,4s-3.13,2.36-4.88,1S75.45,74.91,77.6,74.06Z"/><path class="cls-32" d="M78.1,74.88c1-.39,2.24,1.1,1.48,2S78,78,77.19,77.33,77,75.3,78.1,74.88Z"/><path class="cls-33" d="M78.33,75c.58-.23,1.31.64.86,1.14s-.89.68-1.39.29S77.71,75.28,78.33,75Z"/><path class="cls-31" d="M78.77,76.54c2-.8,4.59,2.24,3,4s-3.13,2.35-4.88,1S76.61,77.4,78.77,76.54Z"/><path class="cls-32" d="M79.27,77.37c1-.4,2.24,1.09,1.48,1.95s-1.54,1.16-2.39.49S78.21,77.78,79.27,77.37Z"/><path class="cls-33" d="M79.5,77.52c.58-.23,1.31.64.86,1.15s-.9.67-1.4.28S78.88,77.77,79.5,77.52Z"/><path class="cls-31" d="M85.64,74.06c2-.81,4.58,2.23,3,4s-3.14,2.36-4.88,1S83.48,74.91,85.64,74.06Z"/><path class="cls-32" d="M86.13,74.88c1-.39,2.25,1.1,1.48,2s-1.53,1.15-2.39.49S85.08,75.3,86.13,74.88Z"/><path class="cls-33" d="M86.36,75c.58-.23,1.31.64.87,1.14s-.9.68-1.4.29S85.74,75.28,86.36,75Z"/><path class="cls-31" d="M83,69.68c2-.81,4.58,2.23,3,4s-3.14,2.35-4.88,1S80.85,70.53,83,69.68Z"/><path class="cls-32" d="M83.5,70.5c1-.39,2.25,1.09,1.48,2s-1.53,1.15-2.39.48S82.45,70.92,83.5,70.5Z"/><path class="cls-33" d="M83.73,70.66c.58-.23,1.31.64.87,1.14s-.9.68-1.4.29S83.11,70.9,83.73,70.66Z"/><path class="cls-31" d="M82.57,64.42c2-.81,4.58,2.23,3,4s-3.13,2.36-4.88,1S80.41,65.27,82.57,64.42Z"/><path class="cls-32" d="M83.06,65.24c1-.39,2.25,1.09,1.48,2s-1.53,1.15-2.39.49S82,65.66,83.06,65.24Z"/><path class="cls-33" d="M83.29,65.4c.59-.23,1.32.64.87,1.14s-.9.68-1.4.29S82.68,65.64,83.29,65.4Z"/><path class="cls-31" d="M83.59,57.7c2-.81,4.59,2.23,3,4s-3.13,2.36-4.88,1S81.43,58.55,83.59,57.7Z"/><path class="cls-32" d="M84.09,58.52c1-.39,2.24,1.1,1.48,2S84,61.63,83.18,61,83,58.94,84.09,58.52Z"/><path class="cls-33" d="M84.32,58.68c.58-.23,1.31.64.86,1.15s-.9.67-1.4.28S83.7,58.92,84.32,58.68Z"/><path class="cls-31" d="M81.4,55.22c2-.81,4.59,2.23,3,4s-3.13,2.35-4.88,1S79.24,56.07,81.4,55.22Z"/><path class="cls-32" d="M81.9,56c1-.4,2.24,1.09,1.48,2s-1.54,1.15-2.39.48S80.84,56.46,81.9,56Z"/><path class="cls-49" d="M82.13,56.2c.58-.23,1.31.64.86,1.14s-.9.68-1.4.29S81.51,56.44,82.13,56.2Z"/><path class="cls-40" d="M80.67,67.78c2-.81,4.59,2.23,3,4s-3.13,2.36-4.88,1S78.51,68.63,80.67,67.78Z"/><path class="cls-41" d="M81.17,68.6c1-.39,2.24,1.09,1.48,2s-1.54,1.15-2.39.49S80.11,69,81.17,68.6Z"/><path class="cls-42" d="M81.39,68.76c.59-.23,1.32.64.87,1.14s-.9.68-1.4.29S80.78,69,81.39,68.76Z"/><path class="cls-31" d="M79.35,63.54c2-.8,4.59,2.24,3,4s-3.14,2.35-4.89,1S77.2,64.4,79.35,63.54Z"/><path class="cls-32" d="M79.85,64.37c1-.4,2.25,1.09,1.48,1.95s-1.53,1.16-2.39.49S78.8,64.78,79.85,64.37Z"/><path class="cls-33" d="M80.08,64.52c.58-.23,1.31.64.86,1.15s-.89.67-1.39.28S79.46,64.77,80.08,64.52Z"/><path class="cls-31" d="M88,55.66c2-.81,4.59,2.23,3,4s-3.14,2.35-4.89,1S85.82,56.51,88,55.66Z"/><path class="cls-32" d="M88.47,56.48c1-.4,2.24,1.09,1.48,2s-1.54,1.15-2.39.48S87.41,56.9,88.47,56.48Z"/><path class="cls-33" d="M88.7,56.64c.58-.24,1.31.63.86,1.14s-.89.67-1.39.28S88.08,56.88,88.7,56.64Z"/><path class="cls-37" d="M85,60.47c2-.81,4.59,2.23,3,4s-3.13,2.35-4.88,1S82.81,61.32,85,60.47Z"/><path class="cls-38" d="M85.47,61.29c1-.39,2.24,1.09,1.48,2s-1.54,1.15-2.39.48S84.41,61.71,85.47,61.29Z"/><path class="cls-39" d="M85.69,61.45c.59-.23,1.32.64.87,1.14s-.9.68-1.4.29S85.08,61.69,85.69,61.45Z"/><path class="cls-46" d="M89.58,58.72c2-.8,4.59,2.24,3,4s-3.13,2.35-4.88,1S87.42,59.58,89.58,58.72Z"/><path class="cls-47" d="M90.08,59.55c1-.4,2.24,1.09,1.48,2S90,62.66,89.17,62,89,60,90.08,59.55Z"/><path class="cls-48" d="M90.3,59.7c.59-.23,1.32.64.87,1.15s-.9.67-1.4.28S89.69,60,90.3,59.7Z"/><path class="cls-31" d="M88,63.54c2-.8,4.59,2.24,3,4s-3.14,2.35-4.89,1S85.82,64.4,88,63.54Z"/><path class="cls-32" d="M88.47,64.37c1-.4,2.24,1.09,1.48,1.95s-1.54,1.16-2.39.49S87.41,64.78,88.47,64.37Z"/><path class="cls-33" d="M88.7,64.52c.58-.23,1.31.64.86,1.15s-.89.67-1.39.28S88.08,64.77,88.7,64.52Z"/><path class="cls-46" d="M86.51,66.76c2-.81,4.59,2.23,3,4s-3.13,2.35-4.88,1S84.36,67.61,86.51,66.76Z"/><path class="cls-47" d="M87,67.58c1-.4,2.24,1.09,1.48,2S87,70.69,86.1,70,86,68,87,67.58Z"/><path class="cls-48" d="M87.24,67.74c.58-.23,1.31.64.86,1.14s-.89.67-1.39.29S86.62,68,87.24,67.74Z"/><path class="cls-40" d="M86.42,53.14c2-.81,4.58,2.23,3,4s-3.13,2.36-4.88,1S84.26,54,86.42,53.14Z"/><path class="cls-41" d="M86.91,54c1-.39,2.25,1.1,1.48,2s-1.53,1.15-2.39.49S85.86,54.38,86.91,54Z"/><path class="cls-42" d="M87.14,54.12c.59-.23,1.32.64.87,1.15s-.9.67-1.4.28S86.53,54.36,87.14,54.12Z"/><path class="cls-40" d="M88.7,70.26c2-.8,4.59,2.24,3,4s-3.14,2.35-4.89,1S86.55,71.12,88.7,70.26Z"/><path class="cls-41" d="M89.2,71.08c1-.39,2.24,1.1,1.48,2s-1.54,1.16-2.39.49S88.14,71.5,89.2,71.08Z"/><path class="cls-42" d="M89.43,71.24c.58-.23,1.31.64.86,1.15s-.89.67-1.39.28S88.81,71.49,89.43,71.24Z"/><path class="cls-31" d="M92.79,61.94c2-.81,4.59,2.23,3,4s-3.14,2.35-4.89,1S90.64,62.79,92.79,61.94Z"/><path class="cls-32" d="M93.29,62.76c1-.4,2.24,1.09,1.48,2s-1.54,1.15-2.39.48S92.23,63.18,93.29,62.76Z"/><path class="cls-33" d="M93.52,62.92c.58-.23,1.31.63.86,1.14s-.89.67-1.39.29S92.9,63.16,93.52,62.92Z"/><path class="cls-31" d="M92.35,66.61c2-.81,4.59,2.23,3,4s-3.14,2.36-4.89,1S90.2,67.46,92.35,66.61Z"/><path class="cls-32" d="M92.85,67.43c1-.39,2.25,1.1,1.48,2s-1.53,1.15-2.39.49S91.8,67.85,92.85,67.43Z"/><path class="cls-33" d="M93.08,67.59c.58-.23,1.31.64.86,1.15s-.89.67-1.39.28S92.46,67.83,93.08,67.59Z"/><path class="cls-31" d="M92.13,70.42c2-.8,4.58,2.23,3,4s-3.14,2.36-4.89,1S90,71.27,92.13,70.42Z"/><path class="cls-32" d="M92.62,71.24c1-.39,2.25,1.1,1.48,2s-1.53,1.15-2.39.49S91.57,71.66,92.62,71.24Z"/><path class="cls-33" d="M92.85,71.4c.58-.23,1.31.64.87,1.15s-.9.67-1.4.28S92.23,71.64,92.85,71.4Z"/><path class="cls-50" d="M96.88,66c2-.81,4.59,2.23,3,4S96.77,72.38,95,71,94.73,66.88,96.88,66Z"/><path class="cls-51" d="M97.38,66.85c1-.4,2.24,1.09,1.48,2s-1.54,1.15-2.39.48S96.32,67.27,97.38,66.85Z"/><path class="cls-52" d="M97.61,67c.58-.23,1.31.63.86,1.14s-.89.67-1.39.28S97,67.25,97.61,67Z"/><path class="cls-40" d="M94.4,62.52c2-.81,4.59,2.23,3,4s-3.13,2.36-4.88,1S92.24,63.37,94.4,62.52Z"/><path class="cls-41" d="M94.9,63.34c1-.39,2.24,1.1,1.48,2s-1.54,1.15-2.39.49S93.84,63.76,94.9,63.34Z"/><path class="cls-42" d="M95.13,63.5c.58-.23,1.31.64.86,1.15s-.9.67-1.4.28S94.51,63.74,95.13,63.5Z"/><path class="cls-31" d="M97.18,61.35c2-.8,4.58,2.24,3,4s-3.14,2.36-4.89,1S95,62.21,97.18,61.35Z"/><path class="cls-32" d="M97.67,62.17c1-.39,2.25,1.1,1.48,2s-1.53,1.16-2.39.49S96.62,62.59,97.67,62.17Z"/><path class="cls-33" d="M97.9,62.33c.58-.23,1.31.64.87,1.15s-.9.67-1.4.28S97.28,62.58,97.9,62.33Z"/><path class="cls-31" d="M93.67,57.26c2-.8,4.59,2.24,3,4s-3.13,2.35-4.88,1S91.51,58.12,93.67,57.26Z"/><path class="cls-32" d="M94.17,58.08c1-.39,2.24,1.1,1.48,2s-1.54,1.16-2.39.49S93.11,58.5,94.17,58.08Z"/><path class="cls-33" d="M94.39,58.24c.59-.23,1.32.64.87,1.15s-.9.67-1.4.28S93.78,58.49,94.39,58.24Z"/><path class="cls-31" d="M91.48,53.32c2-.81,4.58,2.23,3,4s-3.13,2.35-4.88,1S89.32,54.17,91.48,53.32Z"/><path class="cls-32" d="M92,54.14c1-.39,2.25,1.09,1.48,2s-1.53,1.15-2.39.49S90.92,54.56,92,54.14Z"/><path class="cls-33" d="M92.2,54.3c.59-.23,1.32.64.87,1.14s-.9.68-1.4.29S91.59,54.54,92.2,54.3Z"/><path class="cls-31" d="M94.4,53c2-.81,4.59,2.23,3,4s-3.13,2.35-4.88,1S92.24,53.88,94.4,53Z"/><path class="cls-32" d="M94.9,53.85c1-.4,2.24,1.09,1.48,2S94.84,57,94,56.29,93.84,54.27,94.9,53.85Z"/><path class="cls-33" d="M95.13,54c.58-.23,1.31.63.86,1.14s-.9.67-1.4.28S94.51,54.25,95.13,54Z"/><path class="cls-34" d="M97.76,53.32c2-.81,4.59,2.23,3,4s-3.13,2.35-4.88,1S95.6,54.17,97.76,53.32Z"/><path class="cls-35" d="M98.26,54.14c1-.39,2.24,1.09,1.48,2s-1.54,1.15-2.39.49S97.2,54.56,98.26,54.14Z"/><path class="cls-36" d="M98.48,54.3c.59-.23,1.32.64.87,1.14s-.9.68-1.4.29S97.87,54.54,98.48,54.3Z"/><path class="cls-31" d="M102.29,51.13c2-.81,4.58,2.23,3,4s-3.14,2.35-4.88,1S100.13,52,102.29,51.13Z"/><path class="cls-32" d="M102.78,52c1-.39,2.25,1.09,1.48,2s-1.53,1.15-2.39.48S101.73,52.37,102.78,52Z"/><path class="cls-33" d="M103,52.11c.59-.23,1.31.64.87,1.14s-.9.68-1.4.29S102.4,52.35,103,52.11Z"/><path class="cls-46" d="M106.52,50c2-.81,4.59,2.23,3,4s-3.14,2.36-4.89,1S104.37,50.81,106.52,50Z"/><path class="cls-47" d="M107,50.78c1-.39,2.24,1.09,1.48,2s-1.54,1.15-2.39.49S106,51.2,107,50.78Z"/><path class="cls-48" d="M107.25,50.94c.58-.23,1.31.64.86,1.14s-.89.68-1.39.29S106.63,51.18,107.25,50.94Z"/><path class="cls-31" d="M104.62,54.19c2-.8,4.59,2.24,3,4s-3.14,2.35-4.89,1S102.47,55.05,104.62,54.19Z"/><path class="cls-32" d="M105.12,55c1-.4,2.25,1.09,1.48,2s-1.53,1.15-2.39.48S104.07,55.43,105.12,55Z"/><path class="cls-33" d="M105.35,55.17c.58-.23,1.31.64.86,1.15s-.89.67-1.39.28S104.73,55.42,105.35,55.17Z"/><path class="cls-31" d="M103.16,58.87c2-.81,4.59,2.23,3,4s-3.14,2.36-4.89,1S101,59.72,103.16,58.87Z"/><path class="cls-32" d="M103.66,59.69c1-.39,2.24,1.09,1.48,2s-1.54,1.15-2.39.49S102.6,60.11,103.66,59.69Z"/><path class="cls-33" d="M103.89,59.85c.58-.23,1.31.64.86,1.14s-.89.68-1.39.29S103.27,60.09,103.89,59.85Z"/><path class="cls-31" d="M100.83,56.24c2-.81,4.58,2.23,3,4s-3.14,2.36-4.88,1S98.67,57.09,100.83,56.24Z"/><path class="cls-32" d="M101.32,57.06c1-.39,2.25,1.09,1.48,2s-1.53,1.15-2.39.49S100.27,57.48,101.32,57.06Z"/><path class="cls-33" d="M101.55,57.22c.58-.23,1.31.64.87,1.14s-.9.68-1.4.29S100.94,57.46,101.55,57.22Z"/><path class="cls-40" d="M97.76,57.26c2-.8,4.59,2.24,3,4s-3.13,2.35-4.88,1S95.6,58.12,97.76,57.26Z"/><path class="cls-41" d="M98.26,58.08c1-.39,2.24,1.1,1.48,2s-1.54,1.16-2.39.49S97.2,58.5,98.26,58.08Z"/><path class="cls-49" d="M98.48,58.24c.59-.23,1.32.64.87,1.15s-.9.67-1.4.28S97.87,58.49,98.48,58.24Z"/><path class="cls-31" d="M101.11,61.46c2-.81,4.59,2.23,3,4s-3.13,2.35-4.88,1S99,62.31,101.11,61.46Z"/><path class="cls-32" d="M101.61,62.28c1-.4,2.24,1.09,1.48,2s-1.54,1.15-2.39.48S100.55,62.7,101.61,62.28Z"/><path class="cls-33" d="M101.84,62.44c.58-.24,1.31.63.86,1.14s-.9.67-1.4.28S101.22,62.68,101.84,62.44Z"/><path class="cls-40" d="M70.18,69.25c2-.8,4.58,2.24,3,4s-3.13,2.35-4.88,1S68,70.11,70.18,69.25Z"/><path class="cls-41" d="M70.67,70.08c1-.4,2.25,1.09,1.48,2s-1.53,1.15-2.39.48S69.62,70.49,70.67,70.08Z"/><path class="cls-49" d="M70.9,70.23c.59-.23,1.32.64.87,1.15s-.9.67-1.4.28S70.29,70.48,70.9,70.23Z"/><path class="cls-40" d="M46.84,40.6c.81-1.79,4.35-1.41,4.44.7s-.56,3.46-2.53,3.67S46,42.49,46.84,40.6Z"/><path class="cls-41" d="M47.67,40.82c.4-.87,2.13-.69,2.18.34s-.28,1.7-1.24,1.8S47.25,41.74,47.67,40.82Z"/><path class="cls-42" d="M47.92,40.78c.23-.51,1.24-.41,1.27.2S49,42,48.46,42,47.67,41.32,47.92,40.78Z"/><path class="cls-31" d="M46.07,63.94c1-1.7,4.46-1,4.35,1.14s-.91,3.39-2.89,3.4S45,65.73,46.07,63.94Z"/><path class="cls-32" d="M46.88,64.24c.48-.83,2.18-.47,2.12.56s-.44,1.66-1.41,1.67S46.36,65.12,46.88,64.24Z"/><path class="cls-33" d="M47.12,64.23c.29-.49,1.28-.28,1.25.32s-.26,1-.83,1S46.83,64.74,47.12,64.23Z"/><path class="cls-31" d="M47.84,67.43c1-1.69,4.47-1,4.35,1.14S51.28,72,49.3,72,46.8,69.23,47.84,67.43Z"/><path class="cls-32" d="M48.65,67.74c.48-.83,2.18-.48,2.12.55S50.33,70,49.36,70,48.14,68.61,48.65,67.74Z"/><path class="cls-33" d="M48.89,67.72c.29-.49,1.28-.28,1.25.33s-.26,1-.83,1S48.6,68.23,48.89,67.72Z"/><path class="cls-31" d="M39.13,46c1-1.69,4.47-1,4.35,1.14s-.91,3.4-2.89,3.41S38.09,47.84,39.13,46Z"/><path class="cls-32" d="M39.94,46.35c.48-.83,2.18-.48,2.12.56s-.44,1.66-1.41,1.66S39.43,47.23,39.94,46.35Z"/><path class="cls-33" d="M40.18,46.33c.29-.48,1.28-.28,1.25.33s-.26,1-.83,1S39.89,46.84,40.18,46.33Z"/><path class="cls-31" d="M33.09,65.78c1-1.7,4.46-1,4.34,1.14s-.9,3.39-2.88,3.4S32,67.57,33.09,65.78Z"/><path class="cls-32" d="M33.89,66.08c.49-.83,2.19-.48,2.13.56s-.44,1.66-1.41,1.66S33.38,67,33.89,66.08Z"/><path class="cls-33" d="M34.14,66.06c.28-.48,1.28-.27,1.24.33s-.25,1-.82,1S33.84,66.58,34.14,66.06Z"/><path class="cls-28" d="M40.31,40.86c1.54,1.21.34,4.55-1.73,4.14s-3.24-1.37-3-3.33S38.68,39.57,40.31,40.86Z"/><path class="cls-29" d="M39.9,41.61c.75.6.16,2.23-.85,2S37.47,43,37.6,42,39.1,41,39.9,41.61Z"/><path class="cls-30" d="M39.88,41.86c.44.35.1,1.3-.5,1.18s-.92-.39-.84-.95S39.41,41.49,39.88,41.86Z"/><path class="cls-31" d="M36.32,45c1.54,1.21.34,4.55-1.74,4.14s-3.23-1.37-3-3.33S34.69,43.66,36.32,45Z"/><path class="cls-32" d="M35.91,45.7c.75.59.16,2.23-.85,2s-1.59-.67-1.46-1.63S35.11,45.07,35.91,45.7Z"/><path class="cls-33" d="M35.89,46c.44.35.09,1.3-.5,1.18s-.92-.39-.85-1S35.42,45.58,35.89,46Z"/><path class="cls-31" d="M41,55c1.77,1.39.39,5.22-2,4.75s-3.7-1.57-3.4-3.82S39.14,53.48,41,55Z"/><path class="cls-32" d="M40.54,55.82c.86.68.19,2.55-1,2.32s-1.82-.77-1.67-1.87S39.63,55.1,40.54,55.82Z"/><path class="cls-33" d="M40.52,56.1c.5.4.11,1.49-.57,1.36s-1.06-.45-1-1.09S40,55.68,40.52,56.1Z"/><path class="cls-31" d="M45.2,51.35c1.77,1.39.39,5.22-2,4.74s-3.7-1.56-3.4-3.81S43.33,49.88,45.2,51.35Z"/><path class="cls-32" d="M44.73,52.21c.86.68.19,2.56-1,2.33s-1.81-.77-1.66-1.87S43.81,51.49,44.73,52.21Z"/><path class="cls-33" d="M44.71,52.5c.5.4.11,1.49-.57,1.36s-1.06-.45-1-1.1S44.17,52.08,44.71,52.5Z"/><path class="cls-40" d="M47.88,45.65c1.76,1.39.38,5.22-2,4.75s-3.71-1.57-3.4-3.82S46,44.18,47.88,45.65Z"/><path class="cls-41" d="M47.41,46.52c.86.68.18,2.55-1,2.32s-1.81-.77-1.66-1.87S46.49,45.8,47.41,46.52Z"/><path class="cls-42" d="M47.38,46.8c.51.4.11,1.49-.57,1.36s-1.06-.45-1-1.09S46.85,46.38,47.38,46.8Z"/><path class="cls-31" d="M44.43,49.1c1.76,1.39.38,5.22-2,4.75S38.73,52.28,39,50,42.56,47.63,44.43,49.1Z"/><path class="cls-32" d="M44,50c.87.68.19,2.55-1,2.32s-1.81-.77-1.66-1.87S43,49.25,44,50Z"/><path class="cls-33" d="M43.93,50.25c.51.4.11,1.49-.57,1.36s-1.06-.45-1-1.09S43.4,49.83,43.93,50.25Z"/><path class="cls-28" d="M41.5,59.33c1.77,1.4.39,5.22-2,4.75s-3.7-1.57-3.4-3.82S39.63,57.86,41.5,59.33Z"/><path class="cls-29" d="M41,60.2c.86.68.19,2.55-1,2.32s-1.81-.77-1.66-1.87S40.11,59.48,41,60.2Z"/><path class="cls-30" d="M41,60.48c.5.4.11,1.5-.57,1.36s-1.06-.45-1-1.09S40.47,60.06,41,60.48Z"/><path class="cls-31" d="M44.71,41.32c1.77,1.39.39,5.22-2,4.74S39,44.5,39.33,42.25,42.84,39.85,44.71,41.32Z"/><path class="cls-32" d="M44.24,42.18c.86.68.19,2.56-1,2.33s-1.82-.77-1.67-1.87S43.33,41.46,44.24,42.18Z"/><path class="cls-33" d="M44.22,42.47c.5.4.11,1.49-.57,1.36s-1.06-.45-1-1.1S43.68,42.05,44.22,42.47Z"/><path class="cls-31" d="M43.74,36.94c1.76,1.39.39,5.22-2,4.74s-3.7-1.56-3.4-3.82S41.87,35.47,43.74,36.94Z"/><path class="cls-32" d="M43.27,37.8c.86.68.19,2.56-1,2.32s-1.81-.76-1.66-1.86S42.35,37.08,43.27,37.8Z"/><path class="cls-33" d="M43.25,38.09c.5.39.11,1.49-.57,1.35s-1.06-.44-1-1.09S42.71,37.67,43.25,38.09Z"/><path class="cls-31" d="M36.74,42.46c-2.09.81-4.69-2.32-3.07-4.13s3.23-2.39,5-1S39,41.6,36.74,42.46Z"/><path class="cls-32" d="M36.24,41.61c-1,.4-2.3-1.13-1.51-2s1.58-1.17,2.46-.48S37.32,41.19,36.24,41.61Z"/><path class="cls-33" d="M36,41.45c-.6.23-1.34-.66-.88-1.18s.93-.68,1.44-.28S36.64,41.2,36,41.45Z"/><path class="cls-31" d="M35.77,61.74c-2.1.81-4.69-2.32-3.08-4.12s3.23-2.4,5-1S38,60.88,35.77,61.74Z"/><path class="cls-32" d="M35.26,60.89c-1,.4-2.29-1.13-1.5-2s1.58-1.18,2.45-.49S36.35,60.47,35.26,60.89Z"/><path class="cls-33" d="M35,60.73c-.6.23-1.34-.66-.88-1.18s.93-.68,1.44-.28S35.66,60.49,35,60.73Z"/><path class="cls-31" d="M25.4,59.77c1-1.69,4.46-1,4.35,1.14s-.91,3.4-2.89,3.41S24.36,61.57,25.4,59.77Z"/><path class="cls-32" d="M26.21,60.08c.48-.83,2.18-.48,2.12.56s-.44,1.66-1.41,1.66S25.7,61,26.21,60.08Z"/><path class="cls-33" d="M26.45,60.06c.29-.48,1.28-.28,1.25.33s-.26,1-.83,1S26.16,60.57,26.45,60.06Z"/><path class="cls-50" d="M26.5,67.15c1-1.7,4.46-1,4.34,1.14s-.9,3.39-2.88,3.41S25.45,69,26.5,67.15Z"/><path class="cls-51" d="M27.3,67.45c.48-.83,2.19-.47,2.13.56S29,69.67,28,69.68,26.79,68.33,27.3,67.45Z"/><path class="cls-52" d="M27.55,67.44c.28-.49,1.28-.28,1.24.32s-.26,1-.82,1S27.25,68,27.55,67.44Z"/><path class="cls-40" d="M35.12,67.49c1.87-.61,4,2.25,2.48,3.74s-2.93,1.93-4.42.62S33.15,68.13,35.12,67.49Z"/><path class="cls-41" d="M35.52,68.25c.91-.3,1.95,1.1,1.21,1.83s-1.43,1-2.16.3S34.55,68.56,35.52,68.25Z"/><path class="cls-42" d="M35.72,68.4c.53-.17,1.13.65.71,1.07s-.84.56-1.27.18S35.15,68.59,35.72,68.4Z"/><path class="cls-31" d="M30.6,68.29c1.86-.61,4,2.25,2.47,3.75s-2.93,1.92-4.42.61S28.62,68.93,30.6,68.29Z"/><path class="cls-32" d="M31,69.05c.92-.29,1.95,1.1,1.22,1.84s-1.44.94-2.17.3S30,69.37,31,69.05Z"/><path class="cls-33" d="M31.19,69.21c.53-.18,1.14.64.71,1.07s-.84.55-1.27.17S30.62,69.39,31.19,69.21Z"/><path class="cls-31" d="M20.21,47.59c1.95-.17,3.36,3.09,1.57,4.21s-3.29,1.22-4.44-.39S18.14,47.78,20.21,47.59Z"/><path class="cls-32" d="M20.43,48.43c.95-.09,1.64,1.51.76,2.06s-1.61.59-2.17-.2S19.41,48.52,20.43,48.43Z"/><path class="cls-33" d="M20.58,48.62c.56,0,1,.88.45,1.21s-.94.34-1.27-.12S20,48.67,20.58,48.62Z"/><g class="cls-53"><path class="cls-54" d="M25.75,20.78a13.35,13.35,0,0,0-1.23-5.59,8.43,8.43,0,0,0-4.12-4.26A1.93,1.93,0,0,0,18,13.29c1.25,3,4.06,5.21,5.61,8.06a1.14,1.14,0,0,0,2.1-.57Z"/></g><g class="cls-19"><g class="cls-55"><path class="cls-17" d="M33.16,8c-2.24.17-3.25,2.38-4,4.2a8.36,8.36,0,0,0-.24,7.13c1.84,3.72,13,3.78,22.48,2.32.7-.1-11.27-2.59-11.93-2.88-1.87-.8-5.6.34-6.65-2s1.48-5.12,1.67-7.49A1.3,1.3,0,0,0,33.16,8Z"/></g><g class="cls-56"><path class="cls-7" d="M6.62,15.05a13.39,13.39,0,0,0,3.25.77,7.73,7.73,0,0,1,3.72,1.94c.7.63,2.35,1.78,2.38,2.79a3.18,3.18,0,0,1-.82,1.66c-.43.61-.71,1.31-1.13,1.92-.79,1.15.54,3,1.9,2.48s2.28-.75,3.24-1.89a6.13,6.13,0,0,0,1.43-3.4c.25-2.71-1.5-4.53-3.43-6.14a11.09,11.09,0,0,0-6.34-2.95c-1.39-.11-4.57.25-4.56,2.2a.7.7,0,0,0,.36.62Z"/></g><path class="cls-57" d="M25.51,9.39c.31-1,.35-2.07.58-3.08s.78-2.13,1-3.23a2.51,2.51,0,0,0-4.57-1.92c-1.71,2.3-1.42,6.89.76,8.82a1.37,1.37,0,0,0,2.26-.59Z"/><path class="cls-57" d="M17.11,8a5.85,5.85,0,0,1-1.48-2,4.72,4.72,0,0,1-.39-1,4.74,4.74,0,0,0-1-2,2.32,2.32,0,0,0-3.62.46c-1.12,1.84,0,4.15,1.35,5.51s2.75,1.43,4.51,1.44A1.3,1.3,0,0,0,17.11,8Z"/></g><g class="cls-9"><g class="cls-58"><path class="cls-57" d="M87.47,15c1.76.29,2.92-.61,3.91-2s2-3.27,1.11-4.92a1.91,1.91,0,0,0-2.1-.85c-1.57.33-2.16,2.07-2.64,3.4a18.06,18.06,0,0,0-1,3.1A1,1,0,0,0,87.47,15Z"/></g><g class="cls-58"><path class="cls-57" d="M83.31,12.08a16.49,16.49,0,0,1-.55-2.48c-.18-1-.08-2.12-.68-3a2,2,0,0,0-3.36,0c-.8,1.37-.34,3,.33,4.38a7.34,7.34,0,0,0,2.61,2.75c1.1.8,2-.7,1.65-1.65Z"/></g><g class="cls-58"><path class="cls-57" d="M92.85,17.24a5.21,5.21,0,0,0,2.25,1.7c1.3.67,2.21,1.15,3.67.52a1.92,1.92,0,0,0,1-1.75c-.17-1.75-1.45-2.62-3.08-2.92-1.17-.21-2.81-.2-3.62.82a1.4,1.4,0,0,0-.22,1.63Z"/></g><g class="cls-58"><path class="cls-57" d="M77.67,13.44a4.39,4.39,0,0,0-1.44-2.74,5.41,5.41,0,0,0-3.71-1.48c-2.69.06-3.43,4.18-.65,4.83a14.88,14.88,0,0,0,1.49.23c.29,0,.65.05,1,.11.6.1,1.41.13,2.07.25a1,1,0,0,0,1.2-1.2Z"/></g></g></g></g></g></g></svg>